<?xml version="1.0" standalone="no"?>
<!DOCTYPE svg PUBLIC "-//W3C//DTD SVG 20010904//EN"
 "http://www.w3.org/TR/2001/REC-SVG-20010904/DTD/svg10.dtd">
<svg version="1.0" xmlns="http://www.w3.org/2000/svg"
 width="1280.000000pt" height="1280.000000pt" viewBox="0 0 1280.000000 1280.000000"
 preserveAspectRatio="xMidYMid meet">
<metadata>
Created by potrace 1.15, written by Peter Selinger 2001-2017
</metadata>
<g transform="translate(0.000000,1280.000000) scale(0.100000,-0.100000)"
fill="#000000" stroke="none">
<path d="M6629 11404 c-87 -88 -237 -212 -372 -308 -496 -348 -1087 -568
-1772 -658 -148 -19 -216 -22 -525 -23 -364 0 -444 5 -700 47 -424 68 -834
209 -1145 393 -42 25 -80 45 -84 45 -4 0 -95 -266 -201 -592 -136 -413 -191
-593 -182 -596 38 -12 139 -92 206 -162 277 -290 400 -733 364 -1312 -19 -303
-16 -1062 5 -1323 80 -996 284 -1780 646 -2480 503 -972 1259 -1690 2346
-2225 255 -125 379 -179 804 -352 382 -155 564 -234 630 -276 l44 -28 141 71
c78 39 285 128 461 199 749 301 1169 509 1580 781 309 205 521 379 795 654
378 378 643 747 887 1234 467 934 685 2121 632 3452 -28 686 -13 872 92 1172
83 235 241 450 416 564 39 26 62 47 59 55 -3 8 -89 269 -191 581 -102 313
-187 573 -190 580 -2 7 -34 -7 -87 -39 -341 -206 -786 -349 -1303 -419 -194
-26 -656 -37 -871 -20 -538 43 -1029 172 -1479 390 -335 162 -582 330 -852
578 l-90 82 -64 -65z"/>
</g>
</svg>
