<?xml version="1.0" standalone="no"?>
<!DOCTYPE svg PUBLIC "-//W3C//DTD SVG 20010904//EN"
 "http://www.w3.org/TR/2001/REC-SVG-20010904/DTD/svg10.dtd">
<svg version="1.0" xmlns="http://www.w3.org/2000/svg"
 width="1055.000000pt" height="1280.000000pt" viewBox="0 0 1055.000000 1280.000000"
 preserveAspectRatio="xMidYMid meet">
<metadata>
Created by potrace 1.15, written by Peter Selinger 2001-2017
</metadata>
<g transform="translate(0.000000,1280.000000) scale(0.100000,-0.100000)"
fill="#000000" stroke="none">
<path d="M0 8953 c0 -2471 4 -3902 10 -3998 68 -1004 396 -1926 976 -2741 770
-1082 1950 -1848 3249 -2109 379 -76 626 -100 1040 -100 334 0 444 7 725 46
908 125 1792 501 2520 1073 873 685 1514 1630 1820 2686 108 374 173 743 200
1145 6 96 10 1527 10 3998 l0 3847 -5275 0 -5275 0 0 -3847z"/>
</g>
</svg>
