<svg width="300" height="78" viewBox="0 0 300 78" fill="none" xmlns="http://www.w3.org/2000/svg">
<rect x="2.5" y="2.5" width="295" height="73" fill="black"/>
<rect x="2.5" y="2.5" width="295" height="73" stroke="#A7F407" stroke-width="5"/>
<line x1="80.4998" y1="1.96622" x2="81.4998" y2="75.9662" stroke="#A7F407" stroke-width="5"/>
<g clip-path="url(#clip0_12_171)">
<path d="M41 69C24.4341 69 11 55.5659 11 39C11 22.4341 24.4341 9 41 9C57.5659 9 71 22.4341 71 39C71 55.5659 57.5659 69 41 69Z" fill="white" stroke="#A7F407" stroke-width="0.64"/>
<path d="M36.4051 38.7582H11C11 38.8428 11 38.9154 11 39C11 39.0846 11 39.1572 11 39.2418H36.393C36.5139 41.6723 38.5333 43.607 40.9879 43.607C43.4426 43.607 45.4619 41.6723 45.5828 39.2418H70.9758C70.9758 39.1572 70.9758 39.0846 70.9758 39C70.9758 38.9154 70.9758 38.8428 70.9758 38.7582H45.5949C45.474 36.3277 43.4547 34.393 41 34.393C38.5453 34.393 36.526 36.3277 36.4051 38.7582ZM41 43.1233C38.8114 43.1233 37.0097 41.4063 36.8888 39.2418H40.6372C40.7098 39.3507 40.8428 39.4353 41 39.4353C41.1572 39.4353 41.2781 39.3628 41.3628 39.2418H45.1112C44.9903 41.4063 43.1886 43.1233 41 43.1233ZM45.1112 38.7582H41.3628C41.2902 38.6493 41.1572 38.5647 41 38.5647C40.8428 38.5647 40.7219 38.6372 40.6372 38.7582H36.8888C37.0097 36.5937 38.8114 34.8767 41 34.8767C43.1886 34.8767 44.9903 36.5937 45.1112 38.7582Z" fill="#A7F407" stroke="#A7F407" stroke-width="0.64"/>
<path d="M41.4353 14.6348C41.4353 14.3944 41.2404 14.1995 41 14.1995C40.7596 14.1995 40.5647 14.3944 40.5647 14.6348C40.5647 14.8752 40.7596 15.0701 41 15.0701C41.2404 15.0701 41.4353 14.8752 41.4353 14.6348Z" fill="#A7F407" stroke="#A7F407" stroke-width="0.64"/>
<path d="M41.4353 63.3652C41.4353 63.1248 41.2404 62.9299 41 62.9299C40.7596 62.9299 40.5647 63.1248 40.5647 63.3652C40.5647 63.6056 40.7596 63.8005 41 63.8005C41.2404 63.8005 41.4353 63.6056 41.4353 63.3652Z" fill="#A7F407" stroke="#A7F407" stroke-width="0.64"/>
<path d="M45.1959 16.6058H36.8041H31.2297V10.6324C31.0725 10.6929 30.9033 10.7412 30.7461 10.8017V17.0895H37.0943C37.9287 18.4196 39.416 19.2418 41 19.2418C42.5961 19.2418 44.0834 18.4196 44.9178 17.0895H51.3627V10.8501C51.2056 10.7896 51.0363 10.7291 50.8791 10.6808V16.6179H45.1959V16.6058ZM41 18.7582C39.682 18.7582 38.4486 18.1294 37.6747 17.0895H44.3253C43.5635 18.1415 42.3543 18.7582 41 18.7582Z" fill="#A7F407" stroke="#A7F407" stroke-width="0.64"/>
<path d="M36.6711 11.9262V9.32648C36.5139 9.35066 36.3446 9.37485 36.1874 9.39903V12.4099H45.9214V9.41112C45.7642 9.38694 45.5949 9.36275 45.4377 9.33857V11.9262H36.6711Z" fill="#A7F407" stroke="#A7F407" stroke-width="0.64"/>
<path d="M37.191 60.8501H30.7461V67.1983C30.9033 67.2588 31.0725 67.3071 31.2297 67.3676V61.3337H36.9129H45.3047H50.8791V67.3313C51.0363 67.2708 51.2056 67.2225 51.3627 67.162V60.8501H45.0145C44.1802 59.5199 42.6929 58.6977 41.1088 58.6977C39.5006 58.6977 38.0254 59.5199 37.191 60.8501ZM44.422 60.8501H37.7715C38.5332 59.7981 39.7545 59.1814 41.1088 59.1814C42.4268 59.1814 43.6602 59.8101 44.422 60.8501Z" fill="#A7F407" stroke="#A7F407" stroke-width="0.64"/>
<path d="M36.1874 65.5296V68.6131C36.3446 68.6372 36.5139 68.6614 36.6711 68.6856V66.0133H45.4377V68.6735C45.5949 68.6493 45.7642 68.6251 45.9214 68.601V65.5296H36.1874Z" fill="#A7F407" stroke="#A7F407" stroke-width="0.64"/>
</g>
<path d="M102.768 52.864C99.912 52.864 97.656 52.636 96 52.18C93.696 51.58 91.944 50.464 90.744 48.832C89.352 46.888 88.656 44.188 88.656 40.732C88.656 38.26 88.932 36.16 89.484 34.432C90.036 32.704 90.888 31.288 92.04 30.184C93.192 29.08 94.668 28.276 96.468 27.772C98.292 27.244 100.512 26.98 103.128 26.98C105.168 26.98 107.088 27.292 108.888 27.916C111.096 28.708 112.812 29.92 114.036 31.552C115.548 33.496 116.304 36.052 116.304 39.22C116.304 42.916 115.752 45.796 114.648 47.86C113.544 49.756 111.948 51.1 109.86 51.892C108.156 52.54 105.792 52.864 102.768 52.864ZM102.48 49.372C102.768 49.372 102.996 49.192 103.164 48.832C103.524 48.064 103.776 46.852 103.92 45.196C104.064 43.684 104.136 42.256 104.136 40.912V39.472V38.572C104.136 37.516 104.064 36.232 103.92 34.72C103.776 33.088 103.524 31.852 103.164 31.012C102.972 30.604 102.744 30.4 102.48 30.4C101.952 30.4 101.568 30.904 101.328 31.912C101.088 33.304 100.968 34.564 100.968 35.692C100.896 36.652 100.86 38.152 100.86 40.192C100.86 41.56 100.896 42.688 100.968 43.576C100.968 44.704 101.088 46.012 101.328 47.5C101.568 48.748 101.952 49.372 102.48 49.372ZM124.634 52.108C124.394 52.108 124.19 52.084 124.022 52.036H123.302H122.726H122.402L120.782 51.64L120.674 51.352C120.65 51.352 120.638 51.22 120.638 50.956C120.59 50.236 120.566 49.408 120.566 48.472C120.566 47.8 120.542 47.26 120.494 46.852C120.494 46.18 120.482 45.676 120.458 45.34V44.08C120.338 42.976 120.266 41.764 120.242 40.444C120.218 39.124 120.206 37.84 120.206 36.592L120.278 32.92C120.302 32.512 120.313 31.888 120.313 31.048C120.313 30.208 120.302 29.584 120.278 29.176C120.206 28.624 120.362 28.216 120.746 27.952C120.986 27.832 121.406 27.772 122.006 27.772C122.894 27.772 124.034 27.748 125.426 27.7L126.218 27.628C127.658 27.532 128.558 27.484 128.918 27.484C129.254 27.484 129.494 27.496 129.638 27.52C129.974 27.544 130.202 27.592 130.322 27.664C130.442 27.736 130.55 27.856 130.646 28.024C130.766 28.192 130.85 28.324 130.898 28.42C131.186 28.804 131.474 29.212 131.762 29.644C132.194 30.292 132.542 30.796 132.806 31.156L135.182 34.792L136.334 36.52C136.334 35.896 136.358 35.404 136.406 35.044V31.696L136.514 29.14C136.538 28.948 136.562 28.816 136.586 28.744C136.61 28.672 136.646 28.624 136.694 28.6C136.742 28.552 136.778 28.516 136.802 28.492C137.09 28.252 137.378 28.072 137.666 27.952C137.906 27.904 138.098 27.88 138.242 27.88H140.294H140.726C140.918 27.904 141.254 27.916 141.734 27.916C142.262 27.916 142.682 27.928 142.994 27.952H144.218H145.226H145.658C146.282 27.952 146.702 28.048 146.918 28.24C147.182 28.432 147.314 28.852 147.314 29.5L147.278 29.86L147.242 30.436C147.218 30.58 147.206 30.772 147.206 31.012V31.444V31.732L147.278 32.092V33.244C147.254 33.652 147.242 34.348 147.242 35.332V37.996C147.218 38.62 147.206 39.496 147.206 40.624V42.712V43.936V49.624L147.062 50.992C146.966 51.544 146.774 51.88 146.486 52L145.874 52.036L145.262 52H143.642H141.518H139.322H138.782C138.302 52.048 137.834 51.988 137.378 51.82C137.162 51.724 136.922 51.568 136.658 51.352L132.986 46.204C132.986 46.18 132.722 45.736 132.194 44.872C132.002 44.584 131.822 44.332 131.654 44.116C131.606 44.02 131.546 43.948 131.474 43.9C131.426 43.828 131.39 43.792 131.366 43.792C131.15 43.792 131.042 43.888 131.042 44.08V44.872C131.018 45.112 131.006 45.508 131.006 46.06V47.464V48.832C130.958 49.12 130.934 49.48 130.934 49.912V50.632V51.172L130.97 51.352C130.97 51.544 130.874 51.664 130.682 51.712C130.562 51.808 130.37 51.832 130.106 51.784C129.29 51.832 128.642 51.88 128.162 51.928C127.874 51.952 127.37 51.988 126.65 52.036C125.93 52.084 125.258 52.108 124.634 52.108ZM154.407 52C154.287 52 154.107 51.988 153.867 51.964C153.627 51.916 153.339 51.88 153.003 51.856L152.247 51.676C152.127 51.652 152.031 51.628 151.959 51.604C151.911 51.556 151.899 51.52 151.923 51.496C151.923 50.872 151.887 50.044 151.815 49.012C151.815 48.652 151.803 48.34 151.779 48.076C151.755 47.788 151.731 47.548 151.707 47.356L151.635 45.808C151.635 45.4 151.611 44.884 151.563 44.26L151.527 43.144C151.527 42.232 151.515 41.524 151.491 41.02C151.467 40.516 151.455 39.46 151.455 37.852C151.455 36.34 151.467 34.78 151.491 33.172C151.515 31.564 151.587 30.04 151.707 28.6C151.707 28.336 151.995 28.12 152.571 27.952C152.931 27.904 153.531 27.88 154.371 27.88C156.315 27.88 157.743 27.844 158.655 27.772C161.487 27.724 163.623 27.7 165.063 27.7H166.647C168.615 27.748 170.127 27.82 171.183 27.916C171.567 27.916 171.843 28.372 172.011 29.284C172.083 29.452 172.167 29.884 172.263 30.58C172.335 30.94 172.431 31.384 172.551 31.912C172.575 32.056 172.575 32.2 172.551 32.344C172.551 32.464 172.551 32.536 172.551 32.56C172.527 32.8 172.395 32.92 172.155 32.92C172.059 32.896 171.915 32.884 171.723 32.884C170.715 32.884 169.479 32.968 168.015 33.136L166.107 33.28C165.315 33.376 164.691 33.436 164.235 33.46C164.163 33.46 164.067 33.604 163.947 33.892C163.851 34.204 163.743 34.924 163.623 36.052L163.551 36.952C163.551 37.264 163.587 37.468 163.659 37.564C163.731 37.636 163.887 37.672 164.127 37.672H167.331C168.267 37.672 169.335 37.732 170.535 37.852H170.967C171.279 37.924 171.471 38.044 171.543 38.212C171.639 38.356 171.699 38.512 171.723 38.68L171.867 41.884V41.992C171.867 42.4 171.435 42.64 170.571 42.712C170.067 42.832 169.107 42.892 167.691 42.892C166.467 42.892 165.675 42.88 165.315 42.856C164.619 42.856 164.199 42.868 164.055 42.892C163.791 42.964 163.623 43.108 163.551 43.324C163.479 43.516 163.443 43.852 163.443 44.332C163.443 44.644 163.419 45.088 163.371 45.664C163.347 45.952 163.335 46.408 163.335 47.032C164.895 47.032 166.047 47.008 166.791 46.96C167.607 46.888 168.759 46.852 170.247 46.852C170.343 46.852 170.439 46.936 170.535 47.104C170.655 47.344 170.847 47.884 171.111 48.724C171.255 49.204 171.399 49.804 171.543 50.524C171.591 50.692 171.615 50.872 171.615 51.064C171.615 51.568 171.375 51.82 170.895 51.82C170.271 51.82 169.431 51.844 168.375 51.892C167.823 51.94 166.959 51.964 165.783 51.964C163.263 51.964 161.367 51.976 160.095 52H154.407ZM186.856 52.828C184.984 52.828 183.304 52.396 181.816 51.532C180.136 50.716 178.756 49.372 177.676 47.5C176.476 45.388 175.876 42.892 175.876 40.012C175.876 37.972 176.236 36.136 176.956 34.504C177.676 32.872 178.708 31.492 180.052 30.364C181.372 29.26 182.92 28.42 184.696 27.844C186.472 27.268 188.404 26.98 190.492 26.98C193.564 26.98 196.732 27.76 199.996 29.32L198.592 35.44C198.424 35.392 198.22 35.332 197.98 35.26C197.764 35.188 197.512 35.116 197.224 35.044C195.904 34.708 194.932 34.492 194.308 34.396C193.732 34.3 193.264 34.252 192.904 34.252C191.392 34.252 190.24 34.66 189.448 35.476C188.512 36.412 188.044 37.984 188.044 40.192C188.044 42.208 188.344 43.648 188.944 44.512C189.448 45.328 190.192 45.736 191.176 45.736C191.8 45.736 192.52 45.568 193.336 45.232C193.336 44.848 193.312 44.272 193.264 43.504L193.228 42.712C193.204 42.16 193.192 41.344 193.192 40.264V39.292C193.192 39.076 193.228 38.932 193.3 38.86C193.372 38.764 193.504 38.716 193.696 38.716C193.768 38.74 193.972 38.752 194.308 38.752H198.124C199.252 38.752 199.996 38.74 200.356 38.716C201.004 38.716 201.424 38.728 201.616 38.752C201.928 38.824 202.132 38.944 202.228 39.112C202.348 39.256 202.408 39.496 202.408 39.832C202.408 39.952 202.42 40.06 202.444 40.156V40.48V41.056V42.136V45.772V45.952C202.42 46.048 202.396 46.156 202.372 46.276C202.348 46.396 202.336 46.528 202.336 46.672V46.852C202.336 48.364 202.312 49.42 202.264 50.02C202.216 51.004 202.132 51.628 202.012 51.892C201.388 51.892 200.92 51.916 200.608 51.964L199.816 52H199.708C199.492 52 199.372 51.988 199.348 51.964C199.324 51.94 199.3 51.928 199.276 51.928C199.276 51.904 199.276 51.892 199.276 51.892H199.168C199.144 51.916 199.12 51.94 199.096 51.964C199.096 51.988 199.096 52 199.096 52H195.496H195.316H194.956H194.524C194.452 52.024 194.356 52.036 194.236 52.036C194.14 52.036 194.056 51.964 193.984 51.82C193.816 51.388 193.72 50.872 193.696 50.272C193.648 49.984 193.6 49.564 193.552 49.012C193.336 50.236 192.58 51.184 191.284 51.856C190.108 52.504 188.632 52.828 186.856 52.828ZM219.909 52.864C217.053 52.864 214.797 52.636 213.141 52.18C210.837 51.58 209.085 50.464 207.885 48.832C206.493 46.888 205.797 44.188 205.797 40.732C205.797 38.26 206.073 36.16 206.625 34.432C207.177 32.704 208.029 31.288 209.181 30.184C210.333 29.08 211.809 28.276 213.609 27.772C215.433 27.244 217.653 26.98 220.269 26.98C222.309 26.98 224.229 27.292 226.029 27.916C228.237 28.708 229.953 29.92 231.177 31.552C232.689 33.496 233.445 36.052 233.445 39.22C233.445 42.916 232.893 45.796 231.789 47.86C230.685 49.756 229.089 51.1 227.001 51.892C225.297 52.54 222.933 52.864 219.909 52.864ZM219.621 49.372C219.909 49.372 220.137 49.192 220.305 48.832C220.665 48.064 220.917 46.852 221.061 45.196C221.205 43.684 221.277 42.256 221.277 40.912V39.472V38.572C221.277 37.516 221.205 36.232 221.061 34.72C220.917 33.088 220.665 31.852 220.305 31.012C220.113 30.604 219.885 30.4 219.621 30.4C219.093 30.4 218.709 30.904 218.469 31.912C218.229 33.304 218.109 34.564 218.109 35.692C218.037 36.652 218.001 38.152 218.001 40.192C218.001 41.56 218.037 42.688 218.109 43.576C218.109 44.704 218.229 46.012 218.469 47.5C218.709 48.748 219.093 49.372 219.621 49.372ZM237.706 52.036C237.394 52.036 237.178 51.796 237.058 51.316C237.034 51.244 237.022 51.124 237.022 50.956C237.022 50.716 237.07 50.356 237.166 49.876C237.214 49.564 237.25 49.324 237.274 49.156C237.322 48.964 237.358 48.82 237.382 48.724C238.102 45.34 238.81 42.364 239.506 39.796L242.026 28.42C242.026 28.372 242.062 28.3 242.134 28.204C242.206 28.108 242.29 28.048 242.386 28.024H242.566C242.566 28.048 242.602 28.06 242.674 28.06C242.962 28.06 243.286 28.024 243.646 27.952C244.006 27.88 244.33 27.844 244.618 27.844C245.146 27.844 245.638 27.88 246.094 27.952C246.31 27.952 246.55 27.964 246.814 27.988C247.078 28.012 247.354 28.024 247.642 28.024C247.738 28.024 247.846 28 247.966 27.952H248.614H249.442L250.306 27.916C250.474 27.892 250.678 27.88 250.918 27.88C251.11 27.88 251.206 27.868 251.206 27.844H251.782H253.006H254.518C255.862 27.844 256.75 27.868 257.182 27.916C257.254 27.916 257.35 27.928 257.47 27.952C257.614 27.952 257.698 27.976 257.722 28.024C257.89 28.024 258.058 28.012 258.226 27.988C258.394 27.964 258.55 27.952 258.694 27.952C259.03 27.88 259.354 27.844 259.666 27.844C259.81 27.844 259.954 27.88 260.098 27.952C260.242 28.024 260.398 28.06 260.566 28.06L260.746 28.024H260.854C260.926 28.072 260.998 28.144 261.07 28.24C261.166 28.312 261.214 28.372 261.214 28.42L263.734 39.796C264.502 42.604 265.198 45.58 265.822 48.724C265.822 48.868 265.87 49.024 265.966 49.192C265.99 49.36 266.026 49.588 266.074 49.876C266.122 50.164 266.146 50.404 266.146 50.596C266.17 50.692 266.182 50.824 266.182 50.992C266.182 51.328 266.11 51.604 265.966 51.82C265.87 51.964 265.726 52.036 265.534 52.036H265.066C264.706 52.036 264.43 52.024 264.238 52H263.302H262.402H261.682C261.49 52 261.394 51.988 261.394 51.964H259.126V51.892C259.03 51.844 258.91 51.82 258.766 51.82C258.766 51.82 258.754 51.832 258.73 51.856C258.73 51.856 258.718 51.868 258.694 51.892C258.694 51.94 258.67 51.964 258.622 51.964H258.514H258.226C258.106 51.916 257.866 51.892 257.506 51.892C256.786 51.844 256.222 51.82 255.814 51.82C255.67 51.604 255.514 51.172 255.346 50.524C255.202 49.876 255.046 49.156 254.878 48.364C254.83 47.98 254.782 47.716 254.734 47.572C254.23 47.668 253.57 47.716 252.754 47.716H251.638H250.594L250.342 48.868C250.03 50.452 249.778 51.436 249.586 51.82C249.49 51.82 249.37 51.844 249.226 51.892C249.178 51.916 249.13 51.94 249.082 51.964C249.058 51.964 249.046 51.964 249.046 51.964H248.902C248.758 51.964 248.65 51.94 248.578 51.892C248.53 51.844 248.47 51.82 248.398 51.82L246.778 51.892H246.202H245.662C245.566 51.94 245.446 51.964 245.302 51.964H245.158H241.846H241.522C241.258 51.988 240.718 52 239.902 52H238.966C238.774 52.024 238.498 52.036 238.138 52.036H237.706ZM254.338 43.216C254.17 42.04 254.086 41.452 254.086 41.452C254.014 41.116 253.894 40.48 253.726 39.544C253.678 39.304 253.558 38.656 253.366 37.6C253.174 36.448 253.078 35.872 253.078 35.872C253.006 35.392 252.934 34.972 252.862 34.612L252.826 34.144C252.754 34.024 252.718 33.916 252.718 33.82L252.682 33.604C252.658 33.652 252.646 33.724 252.646 33.82C252.646 33.916 252.622 33.976 252.574 34V34.144L252.502 34.612C252.478 34.78 252.442 34.972 252.394 35.188C252.37 35.38 252.334 35.596 252.286 35.836L252.106 36.844C251.842 38.356 251.686 39.232 251.638 39.472C251.614 39.736 251.554 40.132 251.458 40.66C251.41 40.828 251.362 41.08 251.314 41.416L251.026 43.072H252.862L253.114 43H253.186C253.474 43 253.69 43.024 253.834 43.072C253.93 43.072 254.014 43.096 254.086 43.144C254.182 43.168 254.266 43.192 254.338 43.216ZM281.913 52C279.441 52 277.641 51.988 276.513 51.964C275.481 51.964 274.689 51.952 274.137 51.928L271.185 51.892C270.969 51.892 270.765 51.796 270.573 51.604C270.381 51.412 270.285 51.208 270.285 50.992V43.072V39.616L270.249 36.664C270.249 35.68 270.273 34.444 270.321 32.956C270.321 32.644 270.357 31.84 270.429 30.544V29.716C270.429 29.044 270.561 28.504 270.825 28.096C270.945 27.88 271.137 27.772 271.401 27.772C272.577 27.772 273.861 27.796 275.253 27.844C275.445 27.868 275.721 27.88 276.081 27.88C276.873 27.88 277.461 27.892 277.845 27.916H279.789C279.885 27.916 280.161 27.916 280.617 27.916C281.097 27.916 281.469 27.976 281.733 28.096C282.165 28.336 282.381 28.888 282.381 29.752L282.345 30.04C282.345 30.112 282.321 30.292 282.273 30.58C282.201 30.94 282.165 31.204 282.165 31.372C282.165 31.636 282.201 31.972 282.273 32.38C282.321 32.668 282.345 32.86 282.345 32.956L282.381 33.172V38.212V40.552V42.784V43.216C282.381 43.408 282.489 43.528 282.705 43.576C282.777 43.6 282.933 43.612 283.173 43.612H285.801C286.449 43.588 287.433 43.576 288.753 43.576C289.017 43.576 289.233 43.66 289.401 43.828C289.569 43.972 289.653 44.128 289.653 44.296V51.172V51.244C289.653 51.436 289.557 51.592 289.365 51.712C289.149 51.808 288.897 51.868 288.609 51.892C288.297 51.964 287.805 52 287.133 52H281.913Z" fill="#A7F407"/>
<defs>
<clipPath id="clip0_12_171">
<rect width="60" height="60" fill="white" transform="matrix(0 -1 1 0 11 69)"/>
</clipPath>
</defs>
</svg>
