<svg width="84" height="69" viewBox="0 0 84 69" fill="none" xmlns="http://www.w3.org/2000/svg">
<g clip-path="url(#clip0_43_489)">
<path d="M6.40003 48.5C6.40003 48.5 5.90004 48.4 6.00004 48.3C6.10004 47.8 6.30003 47.5 6.30003 47.3C6.30003 47.1 6.70002 47.3 6.70002 47.3L7.00004 46.7C7.00004 46.7 6.60002 46.6 6.70002 46.4C6.80002 46 7.00005 45.8 7.10005 45.7C7.20005 45.6 7.40003 45.8 7.40003 45.8C7.40003 45.8 7.60005 45.6 7.60005 45.5C7.90005 45.1 8.30003 44.9 8.40003 44.6L8.60005 44C8.60005 44 8.20006 43.8 8.30006 43.7C8.50006 43.4 8.60002 43.3 8.70002 43C8.80002 42.9 9.00001 43.2 9.00001 43.2L9.30006 42.8C9.30006 42.8 9.00005 42.6 9.10005 42.5C9.20005 42.2 9.50005 42 9.60005 41.7C9.70005 41.6 9.90003 41.9 9.90003 41.9C9.90003 41.9 10.5001 41.2 10.8001 41.1C11.0001 41.1 11.4 41.4 11.4 41.4L12.1 42.1L12.8001 42.8H13.2C14 42.8 16.0001 42.2 18.3001 41.3C19.6001 40.8 21 40.3 21.4 40.2C21.4 40.2 21.9 40 22.2 40C22.3 40 22.6 40.1 22.6 40.1L23 40.2L22.6 39.6C22.4 39.2 21.9 38.4 21.6 37.7C21.2 37 21 36.3 20.7 35.7L20.3001 35.8L19.6 34.1C17.6 30 17.4 28.9 17.5 26.4C17.6 25.8 17.8 25.4 18.1 25L17.7 24.9C17.7 24.9 17.3001 25 17.3001 24.8C17.3001 23.9 17.5 22.2 17.5 22.2C17.8 19.2 18.2 16.2 18.9 14.1L19.2 13.2L20.2 12.7L21.2 12.2L20.7 12.3C20.4 12.3 19.2 12.5 18.1 12.5L16 12.7L14 14.9L11.8001 16.9L11.6 17.6C11.6 17.6 11.5 18.1 11.4 18.3C11.3 18.5 10.9 18.9 10.9 18.9C10.6 19.2 10.1001 19.6 9.80006 19.8L9.20002 20.1H8.80006C8.20006 20.1 7.90003 20 7.90003 19.7C7.90003 19.6 8.20001 19.2 8.50001 18.9C8.80001 18.5 9.10001 18.2 9.00001 18.2C9.00001 18.2 8.70003 18.3 8.40003 18.5C8.40003 18.5 8.00006 18.9 7.80006 18.9C7.60006 18.9 7.50001 18.6 7.50001 18.3C7.50001 18.1 7.90005 18 8.10005 17.9C8.60005 17.5 8.80002 17.2 9.20002 16.6C9.40002 16.3 9.70001 15.9 10 15.8L10.5 15.5L11.8001 13.4C12.5001 12.3 13.3 10.9 13.7 10.4C13.7 10.4 14.0001 9.69998 14.3001 9.39998C14.5001 9.29998 14.9 9.19999 14.9 9.19999L15.7 8.99999C15.7 8.69999 15.5001 8.39998 15.8001 8.39998C18.0001 7.89998 18.7 7.59999 20.6 7.19999C22.2 6.89999 23.7 6.99999 23.7 6.99999L24.4 7.09999C25.4 7.29999 26.9 7.69998 27.6 7.89998L28.2 8.09999L28.5 7.49999C28.9 6.69999 29.7 5.89999 30.5 5.49999C31.5 5.09999 32.4 4.89999 33.4 5.19999L34 5.39998C35.1 6.09998 35.7 7.09999 36.2 8.19999C36.3 9.39999 36.5001 10.3 35.8001 10.9C35.6001 11 35.4 11 35 11.2C34.5 11.4 34.2 12 33.7 12.7C33.7 12.7 33.5001 13 33.3001 13.1C33.1001 13.2 33.0001 13.2 32.8001 13.1C32.4001 13.1 32.2 13.2 32.2 13.2L31.7 13.5C31.4 13.7 31.0001 13.8 30.8001 13.8H30.5C30.3 13.7 30.1 13.3 30.1 13.3L29.8001 12.8L29.7 13.1C28.8 15.6 28.6 18.5 27.7 21L28.9 21.1C29.5 21.2 31.1 21.4 32.4 21.6C32.4 21.6 34.1001 21.8 34.8001 22C35.0001 22 35.1 22.5 35.1 22.5L36.6 22.8C37.4 23 38.7 23.3 39.5 23.6L40.9 24.1C40.9 24.1 41.9 23.9 42.4 23.9C43 23.9 44.1 24.3 44.1 24.3L44.2 24.1L45.6 24.7C46.3 25 47.8 25.7 49.2 26.3C52 27.5 54 28.2 55.1 28.5L55.9 28.7L58.1 28.5C59.3 28.4 60.6 28.2 61 28.1C62 27.9 62.3 27.9 62.7 28.3C62.9 28.5 63.2 28.8 63.1 28.9C63 29 62.8 29.2 62.6 29.2C62.6 29.2 62.8 29.4 62.7 29.5C62.5 29.7 62.3 29.7 62.1 29.8C62 29.8 61.9 29.6 61.9 29.6L61.5 29.9C61.6 30 61.7 30.1 61.6 30.2C61.4 30.4 61.2 30.5 61 30.6C60.9 30.7 60.9001 30.5 60.8001 30.4L58.3001 32.3C58.3001 32.3 58.6 32.5 58.5 32.7C58.2 33 58.2 33 58 33.1C57.9 33.1 57.8 32.9 57.7 32.8L57.3001 33.1C57.3001 33.1 57.6 33.4 57.5 33.5C57.4 33.6 57.2 33.7 56.9 33.9C56.8 34 56.5 33.6 56.5 33.6C56.5 33.6 55.7 34.1 55.4 34C55.2 33.9 55.2 33.4 54.9 32.9C54.9 32.9 54.7 32.3 54.4 32.1C54.2 31.9 53.8001 31.9 53.8001 31.9C52.5001 31.7 50.3 31.2 49 31.1C44.6 30.8 43.7 30.6 42.1 29.8L41 29.2L37.7 29.1L34.3001 29L34.1 29.4H27.3001V29.7C27.3001 29.9 27.5 30.7 27.7 31.8C27.7 31.8 28.1 33.6 27.9 33.8C27.7 34 27.4 34.2 27.4 34.2L27.8001 36.5C28.3001 39.8 28.4 39.9 28.4 41.1V42.2L28.2 42.6C28.1 42.8 27.9 43.3 27.6 43.5L27.2 44L26.3001 44.4C25.8001 44.6 25.5001 44.8 25.3001 44.8C25.2001 44.8 24.8 44.9 24.7 45C24.6 45 24.7 45.2 24.6 45.2C24.4 45.2 22.8001 45.3 22.8001 45.3C21.8001 45.4 19.1 45.5 16.6 45.7L12.2 45.9L11.6 46.3C10.3 47.1 9.20005 48.1 8.60005 48.9L7.90003 49.6C7.70003 49.7 7.40005 49.8 7.10005 49.8C6.60005 49.8 6.30003 49.6 6.30003 49.3C6.20003 49 6.40003 48.5 6.40003 48.5Z" fill="black"/>
<path d="M78.8002 14.1C76.9002 14.1 75.4002 15.2 75.4002 16.6C75.4002 18 76.9002 19.1 78.8002 19.1C80.7002 19.1 82.2002 18 82.2002 16.6C82.1002 15.2 80.6002 14.1 78.8002 14.1ZM82.4002 16C82.6002 16.4 82.8002 16.9 82.8002 17.5C82.8002 19.4 81.0002 20.9 78.8002 20.9C76.6002 20.9 74.9002 19.4 74.9002 17.5C74.9002 17.2 75.0002 16.9 75.0002 16.6C74.8002 17.1 74.7002 17.5 74.7002 18.1C74.7002 20.2 76.5002 22 78.8002 22C81.1002 22 82.9002 20.3 82.9002 18.1C83.0002 17.2 82.7002 16.6 82.4002 16Z" fill="black"/>
<path d="M78.8 13.9C76.4 13.9 74.5 15.8 74.5 18.2C74.5 20.6 76.4 22.5 78.8 22.5C81.2 22.5 83.1 20.6 83.1 18.2C83.1 15.8 81.1 13.9 78.8 13.9ZM77.4 14.3C77.4 14.3 78.2 14.1 78.8 14.1C79.4 14.1 80.9 14.4 81.6 15.3C82.9 17.1 81.4 18.2 81.2 18.4C81.2 18.2 80.9 17.1 80.6 16.6C80.4 16.3 80.2 16 80 15.8C79.7 15.5 79.5 15.3 79.1 15C78 14.7 78.9 15 79.3 15.3C79.3 15.3 80.9 16.7 81 18.4C80.4 18.8 79.6 19.1 78.8 19.1C76.9 19.1 75.5 18 75.5 16.6C75.8 14.9 76.8 14.7 76.9 14.5C77 14.5 77.2 14.4 77.4 14.3ZM78.8 21.8C75 21.6 74.3 18.4 75 16.5C74.2 18.4 75.9 20.7 78.8 20.8C80.5 20.8 81 20.2 81 20.2C81 20.2 81 20.6 80.9 20.8C80.9 21 80.8 21.3 80.8 21.3C80.2 21.7 80 21.7 78.8 21.8Z" fill="black"/>
<path d="M81.2001 18.7C81.1001 18.3 81.1001 18.1 81.0001 17.8L80.9001 17.3C80.4001 15.9 79.7001 15.4 78.8001 14.8C78.5001 14.6 77.9001 14.3 77.6001 14.2C78.0001 14.1 78.1001 14.1 78.3001 14C79.2001 14 80.0001 14 81.0001 14.5C82.1001 15.1 82.7001 15.9 82.7001 16.8C82.7001 17.1 82.7001 17.3 82.6001 17.5C82.5001 18 82.3001 18.4 81.9001 18.9C81.8001 19.1 81.6001 19.1 81.5001 19.1C81.2001 19.2 81.2001 18.9 81.2001 18.7Z" fill="black"/>
<path d="M80.0998 16.2C80.0998 17.2 79.2998 18.1 78.1998 18.1C77.0998 18.1 76.2998 17.3 76.2998 16.2C76.2998 15.2 77.0998 14.3 78.1998 14.3C79.2998 14.3 80.0998 15.2 80.0998 16.2Z" fill="black"/>
<path d="M76.7999 16.8C77.3999 16.2 78.2999 15.8 79.7999 16C79.2999 15.4 78.7999 15 78.0999 14.7C76.7999 15 76.1999 15.6 75.8999 16.4C76.0999 16.4 76.2999 16.5 76.7999 16.8Z" fill="white" stroke="black"/>
<path d="M44.3 59.2C42.9 59.2 41.9 59.7 41.5 60.8C41.3 61.2 41.3 61.3 41.3 62C41.3 62.6 41.4 62.8 41.5 63C41.9 63.7 42.4 64 44.1 64.6C45.8 65.2 46.1 65.4 46.1 66.1C46.1 66.5 45.9 66.8 45.4 67.1C45.1 67.3 45 67.3 44.4 67.3C43.6 67.3 43.1 67.1 42.5 66.6C42.3 66.4 42 66.3 42 66.3C41.9 66.3 41 67.2 41 67.3C41 67.4 41.7 68 42 68.2C42.4 68.4 42.8 68.6 43.3 68.7C43.9 68.8 45.2 68.8 45.7 68.6C46.6 68.3 47.2 67.8 47.5 67.1C47.6 66.8 47.7 66.6 47.7 66C47.7 65.3 47.7 65.2 47.5 64.9C47.3 64.5 46.9 64.1 46.4 63.8C46.2 63.7 45.5 63.4 44.8 63.2C44.1 63 43.4 62.7 43.3 62.6C42.8 62.3 42.7 61.7 43.1 61.3C43.6 60.7 45.1 60.7 46 61.4C46.2 61.6 46.4 61.7 46.4 61.7C46.5 61.7 47.4 60.8 47.4 60.7C47.4 60.5 46.8 60 46.2 59.8C45.5 59.3 45.1 59.2 44.3 59.2ZM65.2 59.2C64.3 59.2 63.8 59.3 63.1 59.7C62.2 60.2 61.5 61 61.1 62.3C61 62.8 60.9 63 60.9 64C60.9 65.3 61 65.8 61.4 66.6C62 67.7 63 68.5 64.2 68.7C65.7 69 67.3 68.6 68.2 67.7C69 66.9 69.2 66.1 69.3 64.5V63.4H65.5V65.2H66.1C66.7 65.2 66.7 65.2 66.7 65.4C66.7 65.8 66.4 66.3 66 66.4C65.7 66.5 65 66.5 64.7 66.4C64.4 66.3 64 65.8 63.8 65.4C63.6 64.8 63.6 64 63.7 63.4C63.9 62.2 64.3 61.6 65.2 61.6C65.5 61.6 66 61.8 66.1 62C66.2 62.1 66.3 62.2 66.4 62.2C66.6 62.2 68.6 61.4 68.7 61.3C68.8 61.2 68.4 60.5 68 60.2C67.4 59.5 66.5 59.2 65.2 59.2ZM25.8 59.4V68.6H27.6C29 68.6 29.5 68.5 29.8 68.4C31.8 67.8 32.9 66.3 32.9 63.9C32.9 63 32.8 62.3 32.4 61.6C31.9 60.6 31.2 59.9 30.1 59.6C29.6 59.4 29.5 59.4 27.7 59.4H25.8ZM18.4 59.4H16.8V68.5C16.8 68.6 17 68.6 17.5 68.6H18.2V65.4C18.2 63.9 18.1 62.3 18.1 62.3C18.1 62.3 18.2 62.3 18.9 63.3C19.3 63.9 20.2 65.4 20.9 66.5L22.3 68.6H23.7V59.4H22.1V62.6C22.1 64.7 22.1 65.8 22 65.7C22 65.6 21.1 64.2 20 62.5L18.4 59.4ZM75.4 59.4H72.7L69.5 68.5H72.3L72.7 67L75.3 67.1L75.8 68.6L78.6 68.5L75.4 59.4ZM0 59.4V68.6C0.1 68.7 4 68.7 4.5 68.6C5 68.5 5.7 68.2 6 67.9C6.5 67.4 6.89999 66.4 6.79999 65.5C6.69999 64.7 6.39999 64.1 5.79999 63.8C5.69999 63.7 5.5 63.6 5.5 63.6L5.79999 63.3C6.29999 62.9 6.39999 62.5 6.39999 61.6C6.39999 61 6.29998 60.9 6.19998 60.5C5.89998 60 5.49999 59.6 4.89999 59.4C4.49999 59.3 4.29998 59.3 2.19998 59.3H0V59.4ZM13.6 59.4V62.1C13.6 63.6 13.6 65 13.5 65.3C13.3 66.6 12.7 67.2 11.5 67.1C10.7 67.1 10.1 66.7 9.80002 65.9C9.70002 65.6 9.70001 65.4 9.60001 62.4V59.3H7.99997V62.4C7.89997 65.3 7.99997 68.6 11.5 68.7C13.3 68.7 14.4 67.9 14.9 66.2C15 65.9 15 65.3 15 62.6V59.4H13.6ZM56.7 59.4V68.6H59.4V59.4H56.7ZM34 59.4V68.5C34 68.6 34.7 68.6 37.1 68.6H40.2V67H35.6V64.4H38.2V62.8H35.6V60.8H40V59.4H34ZM49.3 59.4V68.5C49.3 68.6 50 68.6 52.4 68.6H55.4V66.2H52V59.4H49.3ZM3 60.8C3.5 60.8 3.9 60.8 4 60.9C4.6 61 4.99999 61.5 4.89999 62.1C4.89999 62.5 4.49998 62.8 4.19998 62.9C4.09998 62.9 3.39998 63 2.69998 63H1.39999V60.8H3ZM27.3 60.8H27.7C28.3 60.8 29.3 60.9 29.6 61C30.7 61.4 31.2 62.4 31.2 63.9C31.2 64.6 31.1 65.1 30.9 65.6C30.6 66.3 30 66.7 29.2 66.9C28.9 67 28.4 67 28 67H27.3V60.8ZM74 62.5L74.7 64.9H73.2L74 62.5ZM1.39999 64.3H2.60001C4.20001 64.3 4.49999 64.4 4.79999 64.7C5.49999 65.4 5.19999 66.7 4.29999 67C4.09999 67 3.39998 67.1 2.69998 67.1H1.39999V64.3Z" fill="black"/>
</g>
<defs>
<clipPath id="clip0_43_489">
<rect width="83.1" height="68.8" fill="white"/>
</clipPath>
</defs>
</svg>
