<svg width="2206" height="2182" viewBox="0 0 2206 2182" fill="none" xmlns="http://www.w3.org/2000/svg">
<path fill-rule="evenodd" clip-rule="evenodd" d="M941.475 173.571C881.074 185.905 816.822 212.96 816.822 212.96C848.637 169.628 913.214 116.543 913.214 116.543C895.445 83.1585 879.713 33.7307 879.713 33.7307C879.713 33.7307 954.393 37.8292 1012.85 56.8039C1012.85 56.8039 1112.16 2.36982 1215.06 0.696716C1215.06 0.696716 1140.05 44.0028 1108.19 84.3258C1116.64 88.7744 1176.63 106.725 1223.35 134.259C1223.35 134.259 1138.89 136.646 1061.38 147.255C1061.38 147.255 1034.09 185.749 1011.02 273.36C1011.01 273.36 971.266 229.587 941.475 173.571Z" fill="black"/>
<path fill-rule="evenodd" clip-rule="evenodd" d="M1342.72 246.111C1291.58 189.225 1223.33 134.259 1223.33 134.259C1286.11 135.154 1379.27 172.196 1379.27 172.196C1397.48 137.774 1410.23 90.4086 1410.23 90.4086C1410.23 90.4086 1445.87 150.731 1462.05 217.434C1462.05 217.434 1536.05 261.739 1591.88 335.887C1591.88 335.887 1533.62 323.735 1490.73 323.942C1490.6 333.514 1506.46 412.214 1503.01 466.324C1503.01 466.324 1455.52 389.141 1410.95 324.85C1410.95 324.85 1339.32 326.147 1264.06 346.717C1264.07 346.717 1306.22 298.029 1342.72 246.111ZM1424.68 616.903C1462.39 553.312 1503.03 466.337 1503.03 466.337C1515.49 524.507 1516.61 598.72 1516.61 598.72C1554.02 590.834 1620.26 559.058 1620.26 559.058C1620.26 559.058 1590.75 637.655 1524.61 697.925C1524.61 697.925 1531.3 745.018 1532.08 807.157C1532.08 807.157 1485.3 786.314 1446.5 763.008C1438.24 767.819 1391.36 799.712 1312.15 816.106C1312.15 816.106 1345.69 763.708 1373.43 712.529C1373.43 712.529 1318.21 676.149 1274.46 616.527C1274.46 616.514 1359.52 627.253 1424.68 616.903Z" fill="black"/>
<path fill-rule="evenodd" clip-rule="evenodd" d="M1157.88 487.141C1215.73 558.812 1274.45 616.527 1274.45 616.527C1178.52 602.273 1100.64 575.374 1100.64 575.374C1061.68 637.836 1019.16 710.454 1019.16 710.454C1019.16 710.454 995.39 631.676 991.369 542.262C991.369 542.262 943.187 525.402 854.383 490.435C854.383 490.435 915.639 452.408 989.774 431.669C985.442 423.122 996.804 316.822 1011.02 273.373C1011.02 273.373 1054.25 343.449 1089.45 394.965C1089.45 394.965 1158.34 371.593 1264.08 346.717C1264.07 346.717 1206.21 420.139 1157.88 487.141ZM631.186 758.235C625.361 747.275 619.931 736.11 614.909 724.76C615.92 686.745 619.319 637.785 629.046 599.809C629.046 599.809 601.174 580.471 572.355 555.336C572.031 550.965 571.655 546.555 571.408 542.132C587.958 535.959 623.093 523.547 653.779 516.439C657.294 507.503 676.398 445.936 713.323 403.46C713.323 403.46 715.814 445.313 725.852 501.031C725.852 501.031 784.138 487.828 854.37 490.409C854.37 490.409 789.287 541.666 748.303 593.739C763.166 653.776 793.074 711.401 793.074 711.401C748.381 686.11 701.106 652.609 701.106 652.609C684.505 672.349 651.133 725.603 631.186 758.235ZM1002.99 1030.85C995.756 1029.54 988.556 1028.06 981.395 1026.4C956.999 1000.24 919.789 957.528 891.372 912.64C891.372 912.64 786.551 904.184 712.688 871.837C712.688 871.837 773.775 860.359 840.855 825.768C836.523 817.221 810.947 770.063 793.062 711.427C793.062 711.427 857.132 763.189 904.601 793.487C904.601 793.487 964.937 758.779 1019.16 710.454C1019.16 710.454 1005.4 777.248 997.789 853.537C1032.82 873.545 1068.15 893.041 1103.75 912.017C1049.06 919.981 995.221 918.308 995.221 918.308C993.094 960.667 998.788 1005.19 1002.99 1030.85ZM1459.02 894.638C1459.02 894.638 1386.73 913.742 1316.17 916.388C1316.17 916.388 1315.64 868.257 1312.14 816.106C1312.14 816.106 1274.67 869.282 1225.76 920.422C1168 919.592 1103.75 912.017 1103.75 912.017C1125.79 934.442 1148.45 956.249 1171.73 977.385C1128.23 1014.36 1088.02 1039.07 1088.02 1039.07C1093.73 1039.15 1099.54 1039.19 1105.28 1039.11C1242.59 1036.86 1366.69 982.21 1459.02 894.638Z" fill="black"/>
<path fill-rule="evenodd" clip-rule="evenodd" d="M577.764 425.846C577.764 425.846 616.387 377.676 661.47 338.559C661.47 338.559 676.541 366.392 713.324 403.473C713.324 403.473 713.596 358.156 718.862 287.056C760.054 250.637 816.822 212.96 816.822 212.96C769.742 209.964 734.607 212.26 734.607 212.26C745.527 158.305 770.196 100.408 770.196 100.408C670.095 179.783 599.644 294.838 577.764 425.846ZM1588.69 1820.89C1521.21 1820.89 1480.23 1764.35 1480.23 1702.36C1480.23 1637.93 1528.01 1591.26 1590.37 1591.26C1659.47 1591.26 1701.11 1646.12 1701.11 1706.42C1701.11 1777.85 1649.31 1820.89 1588.69 1820.89ZM1584.92 1623.73C1542.92 1623.73 1530.38 1663.71 1530.38 1690.79C1530.38 1730.38 1548.01 1788.32 1596.45 1788.32C1631 1788.32 1650.99 1757.57 1650.99 1720.63C1650.99 1681.36 1635.76 1623.73 1584.92 1623.73ZM1175.76 1788.72C1175.76 1800.9 1178.1 1805.28 1197.77 1809.08V1817.51C1176.42 1816.5 1163.17 1815.49 1150.68 1815.49C1138.11 1815.49 1124.92 1816.5 1110.02 1817.51V1809.01C1123.19 1806.67 1125.61 1800.9 1125.61 1784.96V1619.34C1125.61 1609.82 1121.53 1605.38 1110.02 1605.04V1595.61H1210.26C1272.96 1595.61 1295.68 1625.43 1295.68 1664.77C1295.68 1706.79 1263.81 1732.56 1220.12 1732.56C1203.53 1732.56 1179.16 1724.05 1179.16 1716.93C1179.16 1713.9 1181.18 1713.9 1184.23 1713.9C1187.28 1713.9 1191.65 1714.91 1196.06 1714.91C1231.62 1714.91 1245.55 1694.92 1245.55 1666.81C1245.55 1636.27 1226.55 1625.45 1196.71 1625.45L1175.76 1627.7V1788.72ZM1361.16 1617.25C1361.16 1607.79 1357.12 1603.34 1345.59 1603.03V1594.21C1360.48 1595.23 1373.65 1596.24 1386.22 1596.24C1398.79 1596.24 1411.98 1595.23 1426.86 1594.21V1603.03C1415.38 1603.33 1411.28 1607.79 1411.28 1617.25V1794.79C1411.28 1804.31 1415.38 1808.7 1426.86 1809.08V1817.51C1411.99 1816.5 1398.76 1815.49 1386.22 1815.49C1373.65 1815.49 1360.49 1816.5 1345.59 1817.51V1809.08C1357.12 1808.71 1361.16 1804.32 1361.16 1794.79V1617.25ZM1769.05 1617.09C1769.05 1607.64 1764.95 1603.19 1753.42 1602.88V1593.98C1768.34 1594.97 1781.57 1596.08 1794.11 1596.08C1803.25 1596.08 1813.41 1596.08 1823.95 1593.98L1917.45 1745.55H1918.11V1621.85C1918.11 1604.2 1906.94 1602.88 1897.8 1602.88V1593.98C1908.97 1594.97 1919.78 1596.08 1930.33 1596.08C1941.5 1596.08 1952.68 1594.97 1963.56 1593.98V1602.88C1952 1603.18 1947.93 1607.64 1947.93 1617.09V1817.51H1912L1799.53 1642.55H1798.87V1789.88C1798.87 1807.53 1809.98 1808.85 1819.18 1808.85V1817.36C1808.01 1816.35 1797.14 1815.26 1786.65 1815.26C1775.48 1815.26 1764.28 1816.35 1753.42 1817.36V1808.85C1764.95 1808.55 1769.05 1804.09 1769.05 1794.64V1617.09ZM2032.8 1740.46C2039.74 1778.49 2064.7 1796.3 2102.06 1796.3C2122.58 1796.3 2152.27 1790.37 2152.27 1764.2C2152.27 1743.28 2130.63 1737.72 2114.6 1732.81L2089.8 1725.47C2054.24 1715 2018.68 1700.01 2018.68 1658.87C2018.68 1604.84 2070.99 1588.44 2122.94 1588.44C2144.98 1588.44 2167.6 1592.27 2187.84 1599.61C2187.84 1624.74 2189.23 1645.96 2190.61 1664.11H2181.89C2174.58 1632.01 2148.45 1617.01 2117.07 1617.01C2099.56 1617.01 2070.32 1622.64 2070.32 1646.68C2070.32 1665.9 2087.02 1671.42 2101.33 1675.59L2137.94 1686.12C2173.15 1696.17 2205.95 1709.14 2205.95 1754.44C2205.95 1800.42 2159.57 1824.87 2102.72 1824.87C2077.26 1824.87 2050.42 1820.74 2027.06 1812.3C2027.06 1784.74 2026.02 1760.75 2024.24 1740.46H2032.8ZM271.275 1617.25C271.275 1607.79 267.228 1603.34 255.659 1603.03V1594.21C270.575 1595.23 283.804 1596.24 296.346 1596.24C308.887 1596.24 322.065 1595.23 336.993 1594.21V1603.03C325.476 1603.33 321.455 1607.79 321.455 1617.25L321.416 1684.33L403.398 1684.41V1617.25C403.398 1607.79 399.377 1603.34 387.86 1603.03V1594.21C402.737 1595.23 415.979 1596.24 428.495 1596.24C441.023 1596.24 454.265 1595.23 469.103 1594.21V1603.03C457.625 1603.33 453.552 1607.79 453.552 1617.25V1794.79C453.552 1804.31 457.612 1808.69 469.103 1809.01V1817.67C454.252 1816.68 441.023 1815.65 428.456 1815.65C415.979 1815.65 402.737 1816.68 387.821 1817.67V1809.01C399.377 1808.71 403.398 1804.32 403.398 1794.79V1716.87H321.416V1794.79C321.416 1804.31 325.476 1808.69 337.006 1809.01V1817.67C322.091 1816.68 308.9 1815.65 296.358 1815.65C283.83 1815.65 270.588 1816.68 255.672 1817.67V1809.01C267.19 1808.71 271.288 1804.32 271.288 1794.79L271.275 1617.25ZM594.533 1720.55C603.314 1696.58 614.157 1669.79 621.939 1642.71H622.639C629.422 1676.91 635.181 1698.62 642.288 1720.55H594.533ZM512.5 1817.53C524.38 1816.52 535.923 1815.5 547.752 1815.5C559.269 1815.5 571.149 1816.52 582.653 1817.53V1809.02C571.447 1808.31 566.713 1804.34 566.713 1798.18C566.713 1794.8 567.725 1791.06 569.45 1786.3L584.313 1746.32H650.368L661.224 1779.28C662.949 1783.66 664.622 1791.46 664.622 1796.15C664.622 1803.96 660.212 1806.68 647.671 1809.02V1817.53C662.236 1816.52 676.801 1815.5 691.392 1815.5C705.568 1815.5 720.172 1816.52 734.412 1817.53V1809.02C724.27 1806.36 719.147 1801.92 714.076 1787.01L651.73 1594.24C641.212 1595.25 630.369 1596.26 619.863 1596.26C609.397 1596.26 598.852 1595.25 588.036 1594.24V1603.06C597.166 1603.06 600.928 1608.45 600.928 1611.9C600.928 1615.25 598.502 1620.01 596.518 1625.08L530.1 1793.43C526.715 1802.33 522.305 1807.72 512.461 1809.03V1817.53H512.5ZM802.802 1649.11C803.152 1639.66 803.775 1630.14 803.775 1616.64C803.775 1606.08 801.427 1604.76 788.561 1603.03V1594.21C798.704 1595.23 810.921 1596.24 823.152 1596.24C835.33 1596.24 847.548 1595.23 859.726 1594.21L919.024 1751.29L972.161 1594.21C984.08 1595.23 995.598 1596.24 1007.45 1596.24C1019.28 1596.24 1031.15 1595.23 1042.66 1594.21V1603.03C1030.84 1604.04 1029.11 1607.79 1029.11 1616.94C1029.11 1626.46 1030.46 1641.68 1031.46 1653.16L1042.35 1797.85C1043.03 1806.67 1052.82 1807.98 1059.62 1808.99V1817.5C1045.01 1816.49 1030.15 1815.48 1015.57 1815.48C1000.66 1815.48 986.104 1816.49 972.148 1817.5V1808.99C988.788 1806.97 993.198 1803.92 993.198 1788.37C993.198 1780.19 992.148 1764.96 991.175 1753.79L983.354 1652.85H982.693L926.118 1819.38H897.663L832.931 1650.83H832.217L829.533 1750.05C829.221 1767.7 828.508 1776.84 828.508 1785.97C828.508 1802.92 830.194 1806.67 850.544 1808.99V1817.5C836.99 1816.49 824.448 1815.48 811.569 1815.48C799.08 1815.48 786.499 1816.49 776.006 1817.5V1808.99C789.236 1807.98 794.657 1804.95 795.331 1790.73L802.802 1649.11ZM204.623 1805.12C181.433 1822.92 148.179 1830.04 126.468 1830.04C45.6919 1830.04 0.0512695 1767.4 0.0512695 1703.16C0.0512695 1637.48 45.6919 1573.92 133.225 1574.02C163.872 1574.02 185.856 1579.84 194.468 1583.22C194.468 1608.9 195.843 1633.65 197.749 1658.17H187.944C181.978 1626.86 160.111 1610.24 128.698 1610.24C86.1057 1610.24 53.1884 1643.81 53.1884 1700.5C53.1884 1743.21 88.3105 1791.55 137.699 1791.55C158.633 1791.55 188.735 1780.07 208.955 1763.05L204.623 1805.12ZM571.408 1940.03C571.408 1932.71 568.244 1929.26 559.385 1929.03V1921.83C570.903 1922.69 581.084 1923.4 590.733 1923.4C601.745 1923.4 617.723 1922.69 625.285 1921.83V1929.03C611.939 1929.56 610.11 1936.12 610.11 1943.39V2071.51H658.474C675.763 2071.51 682.832 2063.64 687.254 2043.72H695.762C692.598 2060.74 689.719 2077.53 689.446 2094.56H559.385V2087.36C568.244 2087.13 571.408 2083.69 571.408 2076.34V1940.03ZM737.875 1940.88C737.875 1933.57 734.711 1930.12 725.852 1929.88V1922.76H857.988C858.137 1936.17 858.83 1949.57 860.064 1962.92H852.904C850.297 1948.53 846.64 1943.54 832.529 1943.54H776.551V1994.12H811.336C823.074 1994.12 824.915 1990.14 826.472 1980.78H833.618C832.685 1989.06 832.161 1997.38 832.049 2005.71C832.049 2012.72 832.827 2024.2 833.618 2030.53H826.472C824.902 2021.07 823.074 2017.18 811.336 2017.18H776.551V2071.51H835.382C849.519 2071.51 853.929 2066.75 858.403 2044.81H867.119C865.254 2061.33 864.21 2077.94 863.993 2094.56H725.852V2087.36C734.711 2087.13 737.875 2083.69 737.875 2076.34V1940.88ZM898.493 2087.45C906.054 2086.36 909.465 2082.21 912.085 2075.42L963.381 1945.82C964.95 1941.82 966.779 1938.25 966.779 1935.67C966.779 1933.01 963.874 1928.81 956.818 1928.81V1921.69C965.171 1922.48 973.302 1923.26 981.409 1923.26C989.528 1923.26 997.88 1922.47 1006.01 1921.69L1054.13 2070.52C1058.09 2081.92 1061.98 2085.37 1069.82 2087.47V2094.59C1058.81 2093.8 1047.61 2093.02 1036.61 2093.02C1025.36 2093.02 1014.12 2093.81 1002.87 2094.59V2087.47C1012.56 2085.59 1015.95 2083.49 1015.95 2077.56C1015.95 2073.89 1014.62 2067.86 1013.33 2064.51L1004.95 2039.21H953.952L942.434 2069.96C941.112 2073.55 940.32 2076.44 940.32 2079.1C940.32 2083.71 943.991 2086.91 952.616 2087.47V2094.59C943.718 2093.8 934.588 2093.02 925.678 2093.02C916.495 2093.02 907.65 2093.81 898.467 2094.59V2087.45H898.493ZM998.658 2019.36C993.198 2002.41 988.711 1985.72 983.471 1959.33H982.965C976.96 1980.17 968.569 2000.87 961.772 2019.36H998.658ZM1209.75 2033.34C1209.75 2022.88 1205.02 2022.4 1193.28 2022.18V2013.36C1204 2014.21 1214.73 2015 1225.71 2015C1237.51 2015 1249.01 2014.21 1260.76 2013.36V2021.62C1251.59 2021.88 1246.91 2024.2 1246.91 2036V2094.57H1231.71L1225.71 2077C1209.24 2092.45 1191.93 2097.92 1174.18 2097.92C1124.98 2097.92 1093.6 2057.39 1093.6 2010.32C1093.6 1953.55 1131.55 1919.18 1188.04 1919.18C1206.11 1919.18 1225.56 1922.56 1239.62 1931.36C1239.62 1944.18 1240.16 1958.95 1241.22 1976.96H1233.67C1230.3 1953.71 1208.18 1942.23 1186.5 1942.23C1150.09 1942.23 1132.34 1970.03 1132.34 2003.76C1132.34 2036.24 1150.65 2072.84 1180.97 2072.84C1199.57 2072.84 1209.75 2064.2 1209.75 2052.16V2033.34ZM1313.37 1940.03C1313.37 1932.71 1310.21 1929.26 1301.36 1929.03V1921.83C1311.34 1922.85 1321.37 1923.37 1331.4 1923.4C1345.03 1923.4 1355.77 1922.69 1366.23 1921.83V1929.03C1354.94 1929.56 1352.1 1931.61 1352.1 1941.82V2039.57C1352.1 2069.18 1364.41 2074.86 1385.59 2074.86C1406.77 2074.86 1419.07 2068.64 1419.07 2039.57V1941.82C1419.07 1931.61 1416.21 1929.56 1404.91 1929.03V1921.83C1415.43 1922.69 1426.12 1923.4 1439.75 1923.4C1450.72 1923.4 1461.46 1922.69 1469.81 1921.83V1929.03C1460.94 1929.26 1457.78 1932.7 1457.78 1940.03V2034.14C1457.78 2082.54 1432.67 2097.92 1385.59 2097.92C1338.47 2097.92 1313.37 2082.54 1313.37 2037.81V1940.03ZM1525.17 1940.88C1525.17 1933.57 1522.08 1930.12 1513.16 1929.88V1922.76H1645.33C1645.6 1937.12 1646.1 1948.78 1647.38 1962.92H1640.23C1637.63 1948.53 1633.96 1943.54 1619.82 1943.54H1563.93V1993.37H1598.67C1610.42 1993.37 1612.27 1989.44 1613.87 1980.03H1620.96C1620.05 1988.27 1619.53 1996.56 1619.39 2004.85C1619.39 2011.94 1620.22 2023.42 1620.96 2029.75H1613.87C1612.27 2020.3 1610.42 2016.41 1598.67 2016.41H1563.93V2071.53H1622.7C1636.84 2071.53 1641.3 2066.77 1645.75 2044.82H1654.44C1652.56 2061.34 1651.51 2077.95 1651.3 2094.57H1513.14V2087.38C1522.07 2087.14 1525.15 2083.71 1525.15 2076.35L1525.17 1940.88ZM854.642 1532.17C912.189 1466.25 996.817 1424.63 1091.24 1424.63C1188.25 1424.63 1275.03 1468.67 1332.67 1537.85L1347.9 1523.55C1286.52 1450.57 1194.51 1404.27 1091.66 1404.27C991.486 1404.27 901.632 1448.23 840.285 1518.03L854.642 1532.17ZM1064.42 1365.69L972.511 1384.8L949.36 1273.47L1040.01 1254.65L1044.26 1275.02L984.69 1287.43L989.528 1310.79L1046.37 1298.93L1050.62 1319.37L993.756 1331.16L999.333 1357.96L1060.16 1345.29L1064.42 1365.69ZM1239.78 1293.85L1184.96 1282.29L1179.77 1307.04L1234.54 1318.67L1230.25 1339.06L1175.49 1327.43L1165.84 1373.18L1134.78 1366.54L1158.21 1255.37L1244.11 1273.47L1239.78 1293.85ZM1372.29 1484.13L1345.03 1458.37L1349.33 1433.92L1302.55 1401.42L1281.85 1414.47L1250.89 1397.14L1361.34 1331.33L1391.54 1352.25L1372.29 1484.13ZM1362.91 1362.56L1321.16 1388.85L1354.33 1411.9L1362.91 1362.56ZM867.184 1438.54C846.808 1454.7 812.257 1467.9 786.992 1438.21L750.495 1391.46L774.891 1372.18L810.687 1418.16C823.605 1433.39 839.857 1430.42 852.8 1420.26C865.718 1410.13 872.359 1394.96 860.582 1378.83L824.734 1332.9L849.13 1313.7L885.64 1360.46C907.429 1390.36 893.928 1417.28 867.184 1438.54Z" fill="black"/>
<path fill-rule="evenodd" clip-rule="evenodd" d="M1484.18 1373.11C1386.22 1270.11 1247.86 1205.85 1094.52 1205.85C939.335 1205.85 799.482 1271.6 701.378 1376.76L684.79 1359.91C787.848 1252.01 933.148 1184.77 1094.15 1184.77C1253.88 1184.77 1398.09 1250.98 1500.99 1357.33L1484.18 1373.11ZM1697.92 2181.3C1692.34 2181.32 1686.8 2180.23 1681.63 2178.1C1676.47 2175.97 1671.77 2172.85 1667.81 2168.9C1663.85 2164.96 1660.71 2160.27 1658.57 2155.11C1656.43 2149.95 1655.32 2144.42 1655.32 2138.83C1655.35 2127.54 1659.85 2116.73 1667.83 2108.75C1675.82 2100.78 1686.64 2096.29 1697.92 2096.27V2100.35C1687.75 2100.38 1678 2104.46 1670.82 2111.67C1663.64 2118.88 1659.61 2128.65 1659.62 2138.83C1659.59 2149.02 1663.6 2158.81 1670.79 2166.05C1677.97 2173.28 1687.73 2177.37 1697.92 2177.41V2181.3Z" fill="black"/>
<path fill-rule="evenodd" clip-rule="evenodd" d="M1680.39 2113.45H1697.56C1704.12 2113.45 1707.95 2114.38 1711.19 2116.9C1712.74 2118.06 1714 2119.57 1714.86 2121.3C1715.73 2123.03 1716.18 2124.94 1716.18 2126.88C1716.18 2132.84 1711.9 2137.52 1705.02 2138.92C1708.39 2139.93 1709.91 2140.8 1711.35 2142.51C1713.15 2144.69 1713.93 2146.97 1715.28 2154.07L1716.04 2157.89C1716.55 2160.71 1716.7 2161.19 1717.66 2162.81H1712.54C1711.5 2160.63 1711.27 2159.77 1710.69 2156.43C1708.88 2146.27 1708.66 2145.56 1706.15 2143.16C1704.2 2141.28 1701.54 2140.66 1695.91 2140.66H1685.1V2162.82H1680.39V2113.45ZM1697.72 2136.8C1706.15 2136.8 1711.27 2133.06 1711.27 2126.87C1711.27 2120.38 1706.3 2116.96 1696.91 2116.96H1685.03V2136.79L1697.72 2136.8Z" fill="black"/>
<path fill-rule="evenodd" clip-rule="evenodd" d="M1697.92 2181.3C1721.45 2181.3 1740.63 2162.41 1740.63 2138.83C1740.63 2115.25 1721.45 2096.27 1697.92 2096.27V2100.35C1719.05 2100.35 1736.04 2117.57 1736.17 2138.83C1736.17 2160.2 1719.05 2177.41 1697.92 2177.41V2181.3Z" fill="black"/>
</svg>
