<svg width="353" height="401" viewBox="0 0 353 401" fill="none" xmlns="http://www.w3.org/2000/svg">
<g clip-path="url(#clip0_43_657)">
<path d="M262.13 378.21C316.3 348.26 352.96 290.77 352.96 224.77C352.96 158.77 319.9 107.09 270.18 76.06L261.71 105.91C297.84 132.33 321.32 175.08 321.32 223.33C321.32 275.95 293.4 322.03 251.6 347.51L262.13 378.21Z" fill="black"/>
<path d="M104.8 400.85H247.64L235.81 367.03H117.33L104.8 400.85Z" fill="black"/>
<path d="M155.4 350.95H196.97L176.19 256.94L155.4 350.95Z" fill="black"/>
<path d="M122.53 350.95H144.9L171.05 234.33V0L91.9097 34.6L157.34 254.2L122.53 350.95Z" fill="black"/>
<path d="M181.44 0.22998L260.01 34.72L195.83 254.88L230.14 350.95H207.7L181.9 234.33L181.44 0.22998Z" fill="black"/>
<path d="M90.2 377.86C36.37 347.81 0 290.51 0 224.77C0 162.61 32.51 108 81.55 76.84L90.46 106.34C54.66 132.79 31.44 175.34 31.44 223.33C31.44 276.05 59.46 322.21 101.4 347.66L90.21 377.86H90.2Z" fill="black"/>
</g>
<defs>
<clipPath id="clip0_43_657">
<rect width="353" height="401" fill="white"/>
</clipPath>
</defs>
</svg>
