<svg width="2487" height="2500" viewBox="0 0 2487 2500" fill="none" xmlns="http://www.w3.org/2000/svg">
<path fill-rule="evenodd" clip-rule="evenodd" d="M149 1012.29H1000.79V0H2290V1204.01C2290 1738.8 1809.1 2175 1219.5 2175C629.885 2175 149 1738.8 149 1204.01V1012.29ZM1243.94 916.539C1060.17 916.539 910.29 1052.49 910.29 1219.15C910.29 1385.82 1060.17 1521.76 1243.94 1521.76C1427.66 1521.76 1577.54 1385.82 1577.54 1219.15C1577.54 1052.49 1427.66 916.539 1243.94 916.539Z" fill="black"/>
<path fill-rule="evenodd" clip-rule="evenodd" d="M1514.15 2208C1537.94 2208 1560.22 2215.45 1579.04 2228.29V2211.24H1625.07V2301.29H1579.04V2300.2L1577.56 2301.29C1565.28 2277.69 1540.16 2261.77 1514.15 2261.77C1475.18 2261.77 1443.46 2297.44 1443.46 2341.16C1443.46 2384.88 1475.18 2420.55 1514.15 2420.55C1545.53 2420.55 1568.8 2404.29 1578 2372.42H1532.06V2321.93H1634.45V2322.37C1634.38 2351.47 1635.25 2377.14 1627.24 2400.82C1612.9 2443.08 1578.05 2474.41 1514.14 2474.41C1446.63 2474.41 1391.59 2414.58 1391.59 2341.2C1391.61 2267.83 1446.65 2208 1514.15 2208ZM445 2471.17V2414.61C459.244 2421.63 474.404 2421.39 487.061 2415.47C503.86 2407.62 516.247 2389.73 516.247 2365.58V2261.83H485.552L485.604 2211.27H597.428L597.377 2261.83H568.694L568.746 2365.58C568.772 2424.91 544.348 2457.92 507.15 2470.43C486.92 2477.22 465.05 2479.36 445 2471.17ZM1782.9 2476.28C1724.62 2476.26 1682.09 2443.81 1682.13 2365.51L1682.18 2261.77H1653.5L1653.44 2211.19H1765.25L1765.3 2261.77H1734.61V2365.51C1734.61 2384.3 1748.86 2420.55 1782.89 2420.58C1816.96 2420.58 1831.2 2384.35 1831.2 2365.53V2261.8H1800.5L1800.56 2211.24H1912.37L1912.32 2261.8H1883.64L1883.69 2365.53C1883.77 2443.83 1841.23 2476.28 1782.9 2476.28ZM1931.36 2471.2V2420.56H1962.45V2261.76L1931.36 2261.74V2211.22H2134.72V2285.39H2088.91L2088.75 2261.76H2014.8V2315.03H2077.11V2365.52H2014.8V2420.56H2091.08L2091.05 2401.74H2137.35V2471.18L1931.36 2471.2ZM613.723 2412.76C622.29 2412.76 629.722 2415.89 636.006 2422.13C642.238 2428.35 645.36 2435.91 645.36 2444.67C645.36 2453.39 642.238 2460.81 636.07 2466.89C633.153 2469.85 629.671 2472.19 625.833 2473.77C621.996 2475.34 617.881 2476.12 613.736 2476.06C609.671 2476.12 605.637 2475.33 601.887 2473.75C598.136 2472.18 594.747 2469.84 591.931 2466.89C588.99 2464.01 586.666 2460.55 585.1 2456.73C583.533 2452.91 582.759 2448.81 582.823 2444.67C582.823 2435.75 585.79 2428.19 591.79 2422C594.602 2419.01 598.006 2416.64 601.783 2415.05C605.561 2413.45 609.628 2412.67 613.723 2412.76ZM674.325 2471.2V2420.56H705.834V2261.81L674.325 2261.76V2211.23H790.485V2261.76L759.378 2261.81V2420.56H832.211L832.185 2395.31H878.04V2471.21L674.325 2471.2ZM903.459 2471.2V2420.56H934.566V2261.76L903.459 2261.74V2211.22H1106.83V2285.39H1061.03L1060.87 2261.76H986.897V2315.03H1049.22V2365.52H986.897V2420.56H1063.18L1063.16 2401.74H1109.44V2471.18L903.459 2471.2ZM1304.54 2261.77L1365.95 2420.55H1387.32V2471.18H1282.22V2420.55H1306.84L1256.9 2285.83L1209.92 2420.55H1230.96V2471.18H1133.02V2420.55H1151.72L1211.33 2261.77H1198.46V2211.24H1317.76V2261.77H1304.54Z" fill="black"/>
<path fill-rule="evenodd" clip-rule="evenodd" d="M1716.51 1357C1905.13 1357 2059 1500.09 2059 1675.49C2059 1850.93 1905.13 1994 1716.51 1994C1527.85 1994 1374 1850.91 1374 1675.49C1373.97 1500.09 1527.85 1357 1716.51 1357Z" fill="white"/>
</svg>
