<svg width="295" height="342" viewBox="0 0 295 342" fill="none" xmlns="http://www.w3.org/2000/svg">
<path d="M26.2593 97.67C30.5283 83.976 37.2353 72.775 46.2723 71.772C63.5813 69.849 83.7543 98.888 87.2833 133.023C90.5463 164.585 83.1603 199.136 65.8473 201.059C55.3093 202.23 45.5473 197.937 37.9753 181.545C49.6563 184.75 64.4693 180.055 64.4693 180.055C69.7333 163.018 69.6913 131.673 69.6913 131.673C58.8743 103.06 47.0813 89.924 47.0813 89.924C47.0813 89.924 35.1713 92.612 26.2593 97.67Z" fill="#918E8E"/>
<path d="M40.1112 163.992C33.3022 164.811 26.4802 154.674 24.8782 141.353C23.2752 128.033 27.5012 116.568 34.3092 115.752C41.1172 114.931 47.9402 125.065 49.5422 138.386C51.1462 151.708 46.9212 163.17 40.1112 163.992Z" fill="#918E8E"/>
<path d="M195.497 98.517C196.927 110.983 188.153 122.223 175.909 123.626C163.658 125.032 152.571 116.067 151.146 103.601C149.715 91.14 158.488 79.899 170.736 78.492C182.984 77.087 194.071 86.056 195.497 98.517Z" fill="#918E8E"/>
<path d="M236.225 94.026C231.885 56.162 199.402 28.785 163.673 32.88C127.947 36.976 102.506 70.9949 106.846 108.861C110.577 141.419 135.125 166.225 164.654 169.927C164.654 169.927 164.087 163.402 163.34 156.904C162.6 150.443 161.683 144.067 161.683 144.067L153.945 144.895C153.945 144.895 145.021 136.364 138.06 126.472C131.55 117.216 126.973 106.553 126.973 106.553C126.973 106.553 130.271 94.852 134.635 84.082C139.07 73.129 144.564 63.099 144.564 63.099C144.564 63.099 154.982 60.632 165.739 59.397C177.238 58.081 189.126 57.989 189.126 57.989C189.126 57.989 197.149 65.918 203.808 75.389C210.634 85.09 216.098 96.332 216.098 96.332C216.098 96.332 214.622 107.043 210.252 117.829C205.822 128.767 198.507 139.783 198.507 139.783L191.549 140.936C191.549 140.936 192.474 147.075 192.937 153.378C193.433 160.024 193.743 166.594 193.743 166.594C221.665 156.305 239.958 126.587 236.225 94.026Z" fill="#918E8E"/>
<path d="M223.223 37.348C206.781 22.547 193.165 10.943 193.357 10.233C193.449 9.88996 197.505 11.646 203.887 14.936C207.586 16.843 217.23 22.13 227.761 31.415C244.726 46.373 253.629 62.651 253.416 63.301C253.119 64.208 239.668 52.144 223.223 37.348Z" fill="#918E8E"/>
<path d="M105.264 7.70801C96.3921 10.811 88.8271 14.661 81.9771 18.72C91.2301 16.895 109.172 12.961 125.87 2.43201C120.639 3.10001 112.179 5.28901 105.264 7.70801Z" fill="#918E8E"/>
<path d="M165.476 3.78199C164.833 1.91099 153.549 0.019968 139.121 0.925968C142.033 1.43297 145.106 2.31798 147.179 3.63398L115.187 18.007L76.9291 28.052C76.9291 28.052 74.6281 27.882 72.1451 25.4C62.2111 32.981 55.8941 39.796 56.0771 41.403C56.4501 44.677 82.5091 38.627 112.72 28.238C142.931 17.853 166.549 6.89899 165.476 3.78199Z" fill="#918E8E"/>
<path d="M251.51 138.328C255.452 110.287 261.134 87.341 263.895 88.294C265.61 88.884 272.851 113.358 268.834 141.546C265.482 165.073 254.326 190.117 249.607 189.834C246.688 189.663 247.56 166.37 251.51 138.328Z" fill="#918E8E"/>
<path d="M125.597 243.993C111.539 241.138 104.478 235.623 102.523 227.979C98.2072 211.105 125.589 195.548 159.513 190.366C190.525 185.63 217.181 195.576 219.988 207.107C222.169 216.066 217.977 223.283 206.119 231.09C208.12 219.145 206.66 211.691 206.66 211.691C189.214 207.049 161.899 204.494 161.899 204.494C132.511 215.633 119.586 225.667 119.586 225.667C119.586 225.667 120.583 235.643 125.597 243.993Z" fill="#918E8E"/>
<path d="M189.936 229.232C190.895 235.237 180.936 241.826 167.685 243.946C154.437 246.066 142.915 242.916 141.957 236.91C140.996 230.906 150.953 224.317 164.204 222.196C177.454 220.073 188.971 223.224 189.936 229.232Z" fill="#918E8E"/>
<g filter="url(#filter0_d_43_1216)">
<path d="M4.31299 331.885V287.892H15.796V321.892H29.695V331.885H4.31299Z" fill="#918E8E"/>
<path d="M48.2451 331.885V287.892H59.7311V331.885H48.2451Z" fill="#918E8E"/>
<path d="M101.54 286.285C110.383 286.285 116.871 289.731 121.412 297.312L112.22 302.365C112.22 302.365 109.235 296.28 101.425 296.28C93.8991 296.28 90.5152 302.422 90.5152 310.406C90.5152 317.872 93.9592 323.846 102.457 323.846C107.338 323.846 111.819 320.112 112.218 316.036H102.112V306.845H124.166C124.166 306.845 124.166 308.341 124.166 309.259C124.166 322.294 118.137 333.493 101.653 333.493C87.6402 333.493 78.6812 322.756 78.6812 309.948C78.6832 296.451 88.7352 286.285 101.54 286.285Z" fill="#918E8E"/>
<path d="M154.201 287.892C154.201 287.892 154.201 305.984 154.201 314.887C154.201 320.744 157.763 322.812 162.125 322.812C166.318 322.812 169.935 320.57 169.935 315.46C169.935 306.556 169.935 296.852 169.935 287.891H181.538C181.538 287.891 181.538 306.154 181.538 316.034C181.538 326.082 174.7 333.146 161.895 333.146C152.195 333.146 142.717 328.093 142.717 317.296C142.717 307.13 142.717 287.89 142.717 287.89L154.201 287.892Z" fill="#918E8E"/>
<path d="M202.843 287.892H228.344V297.886H214.331V305.009H227.542V314.77H214.331V322.122H228.573V331.886H202.842V287.892H202.843Z" fill="#918E8E"/>
<path d="M272.447 287.892H290.254V331.885H278.766V297.312H272.447V287.892Z" fill="#918E8E"/>
</g>
<defs>
<filter id="filter0_d_43_1216" x="0.312988" y="286.285" width="293.941" height="55.208" filterUnits="userSpaceOnUse" color-interpolation-filters="sRGB">
<feFlood flood-opacity="0" result="BackgroundImageFix"/>
<feColorMatrix in="SourceAlpha" type="matrix" values="0 0 0 0 0 0 0 0 0 0 0 0 0 0 0 0 0 0 127 0" result="hardAlpha"/>
<feOffset dy="4"/>
<feGaussianBlur stdDeviation="2"/>
<feComposite in2="hardAlpha" operator="out"/>
<feColorMatrix type="matrix" values="0 0 0 0 0 0 0 0 0 0 0 0 0 0 0 0 0 0 0.25 0"/>
<feBlend mode="normal" in2="BackgroundImageFix" result="effect1_dropShadow_43_1216"/>
<feBlend mode="normal" in="SourceGraphic" in2="effect1_dropShadow_43_1216" result="shape"/>
</filter>
</defs>
</svg>
