<svg xmlns="http://www.w3.org/2000/svg" viewBox="0 0 1000 1054"><g fill="none" stroke="gray" stroke-width="2"><path d="M502.96 1011.19c201.2-58.8 359.76-211.89 424.46-410.52 20.65-63.39 30.49-129.83 30.54-197.43q.11-181.33-.01-362.75a.49.48 90 0 0-.48-.49H48a.49.49 0 0 0-.49.49q-.04 184.35.02 368.69c.05 137.9 46.68 271.93 130.68 381.25a.59.59 0 0 1-.05.78L59.44 909.94a.62.61-45.3 0 0 0 .87l28.31 28.32a.54.53-44.6 0 0 .75 0l116.11-116.12a.32.32 0 0 1 .46.02q121.59 136.14 296.99 188.16a1.62 1.62 0 0 0 .9 0" vector-effect="non-scaling-stroke"/><path d="M88.66 404.57c.28 129.81 40.62 252.87 118.93 356.54a.42.42 0 0 0 .63.05L887.97 81.4a.23.23 0 0 0-.16-.4H89.04a.48.48 0 0 0-.48.48q-.24 161.59.1 323.09m176.78 421.99q101.88 99.24 236.82 141.62a1.6 1.55 44 0 0 .95 0c239.83-74.88 406.46-293.82 413.26-545.36.19-7.25.62-14.7.6-21.76q-.4-144.87-.32-289.57a.26.26 0 0 0-.44-.18L234.55 793.08a.56.55 47.7 0 0-.03.76q13.01 15.28 30.92 32.72" vector-effect="non-scaling-stroke"/><path d="M455.52 280.33c22.89 20.18 58.8 25.82 87.97 20.66 33.69-5.95 53.74-32.03 47.46-66.24-4.7-25.53-25.88-37.21-49.78-40.87-13.68-2.1-47.2-3.26-41.51-26.34 2.76-11.22 13.75-14.85 24.35-14.48 15.06.52 27.82 5.73 40.29 13.8a2.25 2.25 0 0 0 3.08-.62q7.85-11.42 15.37-22.94c1.58-2.43 2.92-3.77-.23-5.96-22.79-15.86-53.27-21.85-80.19-15.69-23.92 5.47-40.58 22.73-42.55 47.33-3.1 38.62 25.2 54.54 58.21 58.62 10.41 1.28 19.05 2.22 26.92 6.75 9.97 5.73 9.66 19.47 2.48 26.95-5.3 5.51-14.36 7.87-22.15 7.94-18.29.16-34.64-7.38-48.57-18.78a2.15 2.14 40.3 0 0-2.96.24q-10 11.37-19.9 22.85c-2.73 3.16-.59 4.76 1.71 6.78m-243.29-54.32q-22.56-50.6-45.24-101.36-1.07-2.4-2.99-2.4h-32.78a1.97 1.97 0 0 0-1.97 1.97v173.79a1.42 1.38 27 0 0 .29.85q1.07 1.39 2.96 1.39 13.84.04 27.69-.03c1.73-.01 4.05-.64 4.05-2.53q.02-49.94.01-99.93a.4.4 0 0 1 .76-.16q16.06 36.56 32.21 73.16c1.54 3.5 2.22 4.99 6.52 4.99h17.08c2 0 4.13-.8 4.9-2.55q16.67-37.82 33.23-75.62a.42.42 0 0 1 .8.17q-.01 49.37.01 98.68c0 1.98.63 3.73 2.8 3.78q7.83.14 28.5.01c1.53-.01 3.69-.55 3.69-2.22q.01-86.84-.01-173.73a2 2 0 0 0-1.99-2q-15.41-.05-30.78-.01c-3.15.01-4.01.86-5.18 3.55q-21.82 50.05-43.65 100.2a.5.5 0 0 1-.91 0M320 299.84a5.05 4.99-33 0 0 1.99.41q56.79.01 114.05-.01c1.52 0 3.67-.69 3.68-2.3q.08-14.95-.01-29.97a2.23 2.22 89.9 0 0-2.22-2.22l-78.74-.01a1.5 1.5 0 0 1-1.5-1.5q0-68.96-.01-138.55c0-1.63-.72-3.44-2.49-3.44q-17.22-.01-34.1.01a2.16 2.16 0 0 0-2.15 2.16v172.8c0 1.29.33 2.11 1.5 2.62m-96.43 85.24a.65.65 0 0 1-.63-.46l-10.33-33.08a.65.65 0 0 0-1.24 0l-10.33 33.08a.65.65 0 0 1-.63.46l-34.66-.4a.65.65 0 0 0-.39 1.18l28.28 20.05a.65.65 0 0 1 .24.74l-11.09 32.84a.65.65 0 0 0 1 .73l27.81-20.69a.65.65 0 0 1 .78 0l27.81 20.69a.65.65 0 0 0 1-.73l-11.09-32.84a.65.65 0 0 1 .24-.74l28.28-20.05a.65.65 0 0 0-.39-1.18l-34.66.4m167.09-.02a.59.59 0 0 1-.57-.41l-10.41-33.28a.59.59 0 0 0-1.12 0l-10.41 33.28a.59.59 0 0 1-.57.41l-34.86-.39a.59.59 0 0 0-.35 1.07l28.44 20.18a.59.59 0 0 1 .21.67l-11.14 33.04a.59.59 0 0 0 .91.66l27.98-20.81a.59.59 0 0 1 .7 0l27.98 20.81a.59.59 0 0 0 .91-.66l-11.14-33.04a.59.59 0 0 1 .21-.67l28.44-20.18a.59.59 0 0 0-.35-1.07l-34.86.39m-83.5 111.23a.7.7 0 0 1-.68-.49l-10.25-32.9a.7.7 0 0 0-1.34 0l-10.25 32.9a.7.7 0 0 1-.68.49l-34.45-.41a.7.7 0 0 0-.41 1.27l28.12 19.91a.7.7 0 0 1 .25.8l-11.04 32.63a.7.7 0 0 0 1.08.79l27.63-20.59a.7.7 0 0 1 .84 0l27.63 20.59a.7.7 0 0 0 1.08-.79l-11.04-32.63a.7.7 0 0 1 .25-.8l28.12-19.91a.7.7 0 0 0-.41-1.27l-34.45.41m-75.32 192.33-15.65-6.93a.85.83-55.4 0 0-.93.18l-4.2 4.19a.63.63 0 0 0 0 .88l17.01 17a.62.61-44.7 0 0 .87 0l2.5-2.51a.62.62 0 0 0 0-.88l-12.37-12.33a.18.18 0 0 1 .2-.3l17.16 7.64a.88.88 0 0 0 .98-.17l1.69-1.63a.82.82 0 0 0 .18-.93l-7.54-16.85q-.49-1.11.37-.25l12.02 12.02a.71.71 0 0 0 1 0l2.62-2.62a.54.53-45.4 0 0 0-.75l-17.12-17.12a.52.51-44.6 0 0-.73 0l-4.37 4.32a.78.78 0 0 0-.16.87l7 15.64q.42.95-.53.53m-30.75 13.66a.4.4 0 0 1 .56 0l14.19 14.19a.4.4 0 0 0 .56 0l3.07-3.06a.4.4 0 0 0 0-.56l-14.31-14.32a.4.4 0 0 1 0-.56l4.81-4.82a.4.4 0 0 0 0-.57l-2.47-2.4a.4.4 0 0 0-.56 0l-13.78 13.79a.4.4 0 0 0 0 .56l2.56 2.57a.4.4 0 0 0 .56 0l4.81-4.82" vector-effect="non-scaling-stroke"/></g><path fill="#fff" d="M503.44 1054h-1.5q-9.92-3.1-19.88-6.1c-105.18-31.73-199.85-88.92-277.96-166.09a.55.55 0 0 0-.78 0L88.5 996.63a.54.53-44.6 0 1-.75 0L1.56 910.44a.28.28 0 0 1 0-.38l122.83-122.83a.61.6-39.5 0 0 .08-.78C48.69 675.32 6.71 545.11 6.72 410.01Q6.74 205.37 6.79.74a.49.49 0 0 1 .49-.49h990.99a.49.49 0 0 1 .49.49q-.03 203.55.01 407.26c.06 285.94-182.64 539.21-452.54 632.57-13.42 4.65-28.5 9.05-42.79 13.43Zm-.48-42.81c201.2-58.8 359.76-211.89 424.46-410.52 20.65-63.39 30.49-129.83 30.54-197.43q.11-181.33-.01-362.75a.49.48 90 0 0-.48-.49H48a.49.49 0 0 0-.49.49q-.04 184.35.02 368.69c.05 137.9 46.68 271.93 130.68 381.25a.59.59 0 0 1-.05.78L59.44 909.94a.62.61-45.3 0 0 0 .87l28.31 28.32a.54.53-44.6 0 0 .75 0l116.11-116.12a.32.32 0 0 1 .46.02q121.59 136.14 296.99 188.16a1.62 1.62 0 0 0 .9 0Z"/><path d="M927.42 600.67c-64.7 198.63-223.26 351.72-424.46 410.52a1.62 1.62 0 0 1-.9 0q-175.4-52.02-296.99-188.16a.32.32 0 0 0-.46-.02L88.5 939.13a.54.53-44.6 0 1-.75 0l-28.31-28.32a.62.61-45.3 0 1 0-.87l118.72-118.73a.59.59 0 0 0 .05-.78c-84-109.32-130.63-243.35-130.68-381.25q-.06-184.34-.02-368.69A.49.49 0 0 1 48 40h909.47a.49.48-90 0 1 .48.49q.12 181.42.01 362.75c-.05 67.6-9.89 134.04-30.54 197.43ZM88.66 404.57c.28 129.81 40.62 252.87 118.93 356.54a.42.42 0 0 0 .63.05L887.97 81.4a.23.23 0 0 0-.16-.4H89.04a.48.48 0 0 0-.48.48q-.24 161.59.1 323.09Zm176.78 421.99q101.88 99.24 236.82 141.62a1.6 1.55 44 0 0 .95 0c239.83-74.88 406.46-293.82 413.26-545.36.19-7.25.62-14.7.6-21.76q-.4-144.87-.32-289.57a.26.26 0 0 0-.44-.18L234.55 793.08a.56.55 47.7 0 0-.03.76q13.01 15.28 30.92 32.72Z"/><path fill="#fff" d="M88.66 404.57q-.34-161.5-.1-323.09a.48.48 0 0 1 .48-.48h798.77a.23.23 0 0 1 .16.4L208.22 761.16a.42.42 0 0 1-.63-.05C129.28 657.44 88.94 534.38 88.66 404.57Zm366.86-124.24c22.89 20.18 58.8 25.82 87.97 20.66 33.69-5.95 53.74-32.03 47.46-66.24-4.7-25.53-25.88-37.21-49.78-40.87-13.68-2.1-47.2-3.26-41.51-26.34 2.76-11.22 13.75-14.85 24.35-14.48 15.06.52 27.82 5.73 40.29 13.8a2.25 2.25 0 0 0 3.08-.62q7.85-11.42 15.37-22.94c1.58-2.43 2.92-3.77-.23-5.96-22.79-15.86-53.27-21.85-80.19-15.69-23.92 5.47-40.58 22.73-42.55 47.33-3.1 38.62 25.2 54.54 58.21 58.62 10.41 1.28 19.05 2.22 26.92 6.75 9.97 5.73 9.66 19.47 2.48 26.95-5.3 5.51-14.36 7.87-22.15 7.94-18.29.16-34.64-7.38-48.57-18.78a2.15 2.14 40.3 0 0-2.96.24q-10 11.37-19.9 22.85c-2.73 3.16-.59 4.76 1.71 6.78Zm-243.29-54.32q-22.56-50.6-45.24-101.36-1.07-2.4-2.99-2.4h-32.78a1.97 1.97 0 0 0-1.97 1.97v173.79a1.42 1.38 27 0 0 .29.85q1.07 1.39 2.96 1.39 13.84.04 27.69-.03c1.73-.01 4.05-.64 4.05-2.53q.02-49.94.01-99.93a.4.4 0 0 1 .76-.16q16.06 36.56 32.21 73.16c1.54 3.5 2.22 4.99 6.52 4.99h17.08c2 0 4.13-.8 4.9-2.55q16.67-37.82 33.23-75.62a.42.42 0 0 1 .8.17q-.01 49.37.01 98.68c0 1.98.63 3.73 2.8 3.78q7.83.14 28.5.01c1.53-.01 3.69-.55 3.69-2.22q.01-86.84-.01-173.73a2 2 0 0 0-1.99-2q-15.41-.05-30.78-.01c-3.15.01-4.01.86-5.18 3.55q-21.82 50.05-43.65 100.2a.5.5 0 0 1-.91 0ZM320 299.84a5.05 4.99-33 0 0 1.99.41q56.79.01 114.05-.01c1.52 0 3.67-.69 3.68-2.3q.08-14.95-.01-29.97a2.23 2.22 89.9 0 0-2.22-2.22l-78.74-.01a1.5 1.5 0 0 1-1.5-1.5q0-68.96-.01-138.55c0-1.63-.72-3.44-2.49-3.44q-17.22-.01-34.1.01a2.16 2.16 0 0 0-2.15 2.16v172.8c0 1.29.33 2.11 1.5 2.62Zm-96.43 85.24a.65.65 0 0 1-.63-.46l-10.33-33.08a.65.65 0 0 0-1.24 0l-10.33 33.08a.65.65 0 0 1-.63.46l-34.66-.4a.65.65 0 0 0-.39 1.18l28.28 20.05a.65.65 0 0 1 .24.74l-11.09 32.84a.65.65 0 0 0 1 .73l27.81-20.69a.65.65 0 0 1 .78 0l27.81 20.69a.65.65 0 0 0 1-.73l-11.09-32.84a.65.65 0 0 1 .24-.74l28.28-20.05a.65.65 0 0 0-.39-1.18l-34.66.4Zm167.09-.02a.59.59 0 0 1-.57-.41l-10.41-33.28a.59.59 0 0 0-1.12 0l-10.41 33.28a.59.59 0 0 1-.57.41l-34.86-.39a.59.59 0 0 0-.35 1.07l28.44 20.18a.59.59 0 0 1 .21.67l-11.14 33.04a.59.59 0 0 0 .91.66l27.98-20.81a.59.59 0 0 1 .7 0l27.98 20.81a.59.59 0 0 0 .91-.66l-11.14-33.04a.59.59 0 0 1 .21-.67l28.44-20.18a.59.59 0 0 0-.35-1.07l-34.86.39Zm-83.5 111.23a.7.7 0 0 1-.68-.49l-10.25-32.9a.7.7 0 0 0-1.34 0l-10.25 32.9a.7.7 0 0 1-.68.49l-34.45-.41a.7.7 0 0 0-.41 1.27l28.12 19.91a.7.7 0 0 1 .25.8l-11.04 32.63a.7.7 0 0 0 1.08.79l27.63-20.59a.7.7 0 0 1 .84 0l27.63 20.59a.7.7 0 0 0 1.08-.79l-11.04-32.63a.7.7 0 0 1 .25-.8l28.12-19.91a.7.7 0 0 0-.41-1.27l-34.45.41Zm-75.32 192.33-15.65-6.93a.85.83-55.4 0 0-.93.18l-4.2 4.19a.63.63 0 0 0 0 .88l17.01 17a.62.61-44.7 0 0 .87 0l2.5-2.51a.62.62 0 0 0 0-.88l-12.37-12.33a.18.18 0 0 1 .2-.3l17.16 7.64a.88.88 0 0 0 .98-.17l1.69-1.63a.82.82 0 0 0 .18-.93l-7.54-16.85q-.49-1.11.37-.25l12.02 12.02a.71.71 0 0 0 1 0l2.62-2.62a.54.53-45.4 0 0 0-.75l-17.12-17.12a.52.51-44.6 0 0-.73 0l-4.37 4.32a.78.78 0 0 0-.16.87l7 15.64q.42.95-.53.53Zm-30.75 13.66a.4.4 0 0 1 .56 0l14.19 14.19a.4.4 0 0 0 .56 0l3.07-3.06a.4.4 0 0 0 0-.56l-14.31-14.32a.4.4 0 0 1 0-.56l4.81-4.82a.4.4 0 0 0 0-.57l-2.47-2.4a.4.4 0 0 0-.56 0l-13.78 13.79a.4.4 0 0 0 0 .56l2.56 2.57a.4.4 0 0 0 .56 0l4.81-4.82Zm64.35 124.28q-17.91-17.44-30.92-32.72a.56.55 47.7 0 1 .03-.76l681.76-681.77a.26.26 0 0 1 .44.18q-.08 144.7.32 289.57c.02 7.06-.41 14.51-.6 21.76-6.8 251.54-173.43 470.48-413.26 545.36a1.6 1.55 44 0 1-.95 0Q367.32 925.8 265.44 826.56Z"/><path d="M455.52 280.33c-2.3-2.02-4.44-3.62-1.71-6.78q9.9-11.48 19.9-22.85a2.15 2.14 40.3 0 1 2.96-.24c13.93 11.4 30.28 18.94 48.57 18.78 7.79-.07 16.85-2.43 22.15-7.94 7.18-7.48 7.49-21.22-2.48-26.95-7.87-4.53-16.51-5.47-26.92-6.75-33.01-4.08-61.31-20-58.21-58.62 1.97-24.6 18.63-41.86 42.55-47.33 26.92-6.16 57.4-.17 80.19 15.69 3.15 2.19 1.81 3.53.23 5.96q-7.52 11.52-15.37 22.94a2.25 2.25 0 0 1-3.08.62c-12.47-8.07-25.23-13.28-40.29-13.8-10.6-.37-21.59 3.26-24.35 14.48-5.69 23.08 27.83 24.24 41.51 26.34 23.9 3.66 45.08 15.34 49.78 40.87 6.28 34.21-13.77 60.29-47.46 66.24-29.17 5.16-65.08-.48-87.97-20.66Zm-243.29-54.32a.5.5 0 0 0 .91 0q21.83-50.15 43.65-100.2c1.17-2.69 2.03-3.54 5.18-3.55q15.37-.04 30.78.01a2 2 0 0 1 1.99 2q.02 86.89.01 173.73c0 1.67-2.16 2.21-3.69 2.22q-20.67.13-28.5-.01c-2.17-.05-2.8-1.8-2.8-3.78q-.02-49.31-.01-98.68a.42.42 0 0 0-.8-.17q-16.56 37.8-33.23 75.62c-.77 1.75-2.9 2.55-4.9 2.55h-17.08c-4.3 0-4.98-1.49-6.52-4.99q-16.15-36.6-32.21-73.16a.4.4 0 0 0-.76.16q.01 49.99-.01 99.93c0 1.89-2.32 2.52-4.05 2.53q-13.85.07-27.69.03-1.89 0-2.96-1.39a1.42 1.38 27 0 1-.29-.85V124.22a1.97 1.97 0 0 1 1.97-1.97H164q1.92 0 2.99 2.4 22.68 50.76 45.24 101.36ZM320 299.84c-1.17-.51-1.5-1.33-1.5-2.62v-172.8a2.16 2.16 0 0 1 2.15-2.16q16.88-.02 34.1-.01c1.77 0 2.49 1.81 2.49 3.44q.01 69.59.01 138.55a1.5 1.5 0 0 0 1.5 1.5l78.74.01a2.23 2.22 89.9 0 1 2.22 2.22q.09 15.02.01 29.97c-.01 1.61-2.16 2.3-3.68 2.3q-57.26.02-114.05.01a5.05 4.99-33 0 1-1.99-.41Zm-96.43 85.24 34.66-.4a.65.65 0 0 1 .39 1.18l-28.28 20.05a.65.65 0 0 0-.24.74l11.09 32.84a.65.65 0 0 1-1 .73l-27.81-20.69a.65.65 0 0 0-.78 0l-27.81 20.69a.65.65 0 0 1-1-.73l11.09-32.84a.65.65 0 0 0-.24-.74l-28.28-20.05a.65.65 0 0 1 .39-1.18l34.66.4a.65.65 0 0 0 .63-.46l10.33-33.08a.65.65 0 0 1 1.24 0l10.33 33.08a.65.65 0 0 0 .63.46Zm167.09-.02 34.86-.39a.59.59 0 0 1 .35 1.07l-28.44 20.18a.59.59 0 0 0-.21.67l11.14 33.04a.59.59 0 0 1-.91.66l-27.98-20.81a.59.59 0 0 0-.7 0l-27.98 20.81a.59.59 0 0 1-.91-.66l11.14-33.04a.59.59 0 0 0-.21-.67l-28.44-20.18a.59.59 0 0 1 .35-1.07l34.86.39a.59.59 0 0 0 .57-.41l10.41-33.28a.59.59 0 0 1 1.12 0l10.41 33.28a.59.59 0 0 0 .57.41Zm-83.5 111.23 34.45-.41a.7.7 0 0 1 .41 1.27l-28.12 19.91a.7.7 0 0 0-.25.8l11.04 32.63a.7.7 0 0 1-1.08.79l-27.63-20.59a.7.7 0 0 0-.84 0l-27.63 20.59a.7.7 0 0 1-1.08-.79l11.04-32.63a.7.7 0 0 0-.25-.8l-28.12-19.91a.7.7 0 0 1 .41-1.27l34.45.41a.7.7 0 0 0 .68-.49l10.25-32.9a.7.7 0 0 1 1.34 0l10.25 32.9a.7.7 0 0 0 .68.49Zm-74.79 191.8-7-15.64a.78.78 0 0 1 .16-.87l4.37-4.32a.52.51-44.6 0 1 .73 0l17.12 17.12a.54.53-45.4 0 1 0 .75l-2.62 2.62a.71.71 0 0 1-1 0l-12.02-12.02q-.86-.86-.37.25l7.54 16.85a.82.82 0 0 1-.18.93l-1.69 1.63a.88.88 0 0 1-.98.17l-17.16-7.64a.18.18 0 0 0-.2.3l12.37 12.33a.62.62 0 0 1 0 .88l-2.5 2.51a.62.61-44.7 0 1-.87 0l-17.01-17a.63.63 0 0 1 0-.88l4.2-4.19a.85.83-55.4 0 1 .93-.18l15.65 6.93q.95.42.53-.53Zm-31.28 14.19-4.81 4.82a.4.4 0 0 1-.56 0l-2.56-2.57a.4.4 0 0 1 0-.56l13.78-13.79a.4.4 0 0 1 .56 0l2.47 2.4a.4.4 0 0 1 0 .57l-4.81 4.82a.4.4 0 0 0 0 .56l14.31 14.32a.4.4 0 0 1 0 .56l-3.07 3.06a.4.4 0 0 1-.56 0l-14.19-14.19a.4.4 0 0 0-.56 0Z"/></svg>