<svg width="189" height="274" viewBox="0 0 189 274" fill="none" xmlns="http://www.w3.org/2000/svg">
<path d="M0.96184 267.873C0.776608 267.688 0.591377 267.225 0.869226 266.947L5.12957 262.039C5.3148 261.761 5.68526 261.761 5.96311 261.946C8.46375 263.983 11.8905 265.836 15.9657 265.836C19.9481 265.836 22.1709 263.983 22.1709 261.298C22.1709 259.075 20.7817 257.686 16.2435 257.037L14.2059 256.759C6.42619 255.648 2.16585 252.036 2.16585 245.368C2.16585 238.329 7.44497 233.698 15.6878 233.698C20.6891 233.698 25.4125 235.18 28.6541 237.681C29.0245 237.866 29.0245 238.144 28.7467 238.514L25.3199 243.608C25.1346 243.886 24.8568 243.978 24.579 243.793C21.7079 241.848 18.8368 240.922 15.6878 240.922C12.3536 240.922 10.5939 242.682 10.5939 245.09C10.5939 247.313 12.1684 248.702 16.5213 249.258L18.5589 249.535C26.4313 250.647 30.599 254.166 30.599 261.112C30.599 267.966 25.5051 273.152 15.5952 273.152C9.66775 273.06 3.92556 270.744 0.96184 267.873Z" fill="#1A1659"/>
<path d="M35.0444 234.902C35.0444 234.532 35.2297 234.346 35.6001 234.346H60.0508C60.4212 234.346 60.6065 234.532 60.6065 234.902V240.922C60.6065 241.293 60.4212 241.478 60.0508 241.478H43.5651C43.3799 241.478 43.1946 241.57 43.1946 241.848V249.443C43.1946 249.628 43.2873 249.813 43.5651 249.813H57.2723C57.6428 249.813 57.828 249.998 57.828 250.369V256.296C57.828 256.667 57.6428 256.852 57.2723 256.852H43.5651C43.3799 256.852 43.1946 256.945 43.1946 257.222V265.095C43.1946 265.28 43.2873 265.465 43.5651 265.465H59.9582C60.3286 265.465 60.5139 265.651 60.5139 266.021V272.041C60.5139 272.412 60.3286 272.597 59.9582 272.597H35.6001C35.2297 272.597 35.0444 272.412 35.0444 272.041V234.902Z" fill="#1A1659"/>
<path d="M86.6316 272.412C86.1685 272.412 85.9833 272.226 85.7981 271.856L79.2223 257.871H74.1284C73.9432 257.871 73.758 257.963 73.758 258.241V271.856C73.758 272.226 73.5727 272.412 73.2023 272.412H66.0708C65.7004 272.412 65.5151 272.226 65.5151 271.856V234.809C65.5151 234.439 65.7004 234.254 66.0708 234.254H81.2599C89.0396 234.254 94.2261 239.162 94.2261 246.109C94.2261 251.017 91.6329 254.815 87.4652 256.667L94.9671 271.671C95.1523 272.041 94.9671 272.319 94.5966 272.319H86.6316V272.412ZM86.0759 246.201C86.0759 243.33 84.0384 241.478 80.8894 241.478H74.1284C73.9432 241.478 73.758 241.57 73.758 241.848V250.647C73.758 250.832 73.8506 251.017 74.1284 251.017H80.8894C84.0384 250.925 86.0759 249.072 86.0759 246.201Z" fill="#1A1659"/>
<path d="M99.4126 234.902C99.4126 234.532 99.5978 234.346 99.9683 234.346H107.1C107.47 234.346 107.655 234.532 107.655 234.902V271.948C107.655 272.319 107.47 272.504 107.1 272.504H100.061C99.6904 272.504 99.5052 272.319 99.5052 271.948V234.902H99.4126Z" fill="#1A1659"/>
<path d="M113.861 234.902C113.861 234.532 114.046 234.346 114.417 234.346H138.867C139.238 234.346 139.423 234.532 139.423 234.902V240.922C139.423 241.293 139.238 241.478 138.867 241.478H122.474C122.289 241.478 122.104 241.57 122.104 241.848V249.443C122.104 249.628 122.196 249.813 122.474 249.813H136.181C136.552 249.813 136.737 249.998 136.737 250.369V256.296C136.737 256.667 136.552 256.852 136.181 256.852H122.474C122.289 256.852 122.104 256.945 122.104 257.222V265.095C122.104 265.28 122.196 265.465 122.474 265.465H138.867C139.238 265.465 139.423 265.651 139.423 266.021V272.041C139.423 272.412 139.238 272.597 138.867 272.597H114.417C114.046 272.597 113.861 272.412 113.861 272.041V234.902Z" fill="#1A1659"/>
<path d="M166.837 234.902C166.93 234.532 167.208 234.346 167.578 234.346H174.617C174.987 234.346 175.265 234.532 175.358 234.902L188.232 271.948C188.324 272.319 188.232 272.504 187.861 272.504H180.544C180.174 272.504 179.896 272.319 179.804 271.948L177.581 265.28H164.244L162.114 271.948C162.021 272.319 161.743 272.504 161.373 272.504H154.056C153.686 272.504 153.593 272.319 153.686 271.948L166.837 234.902ZM175.358 258.241L171.005 244.905H170.82L166.467 258.241H175.358Z" fill="#1A1659"/>
<path d="M1.55566 156.862H58.422L94.4496 215.766L1.55566 156.862Z" fill="#1A1659"/>
<path d="M187.436 156.862H130.477L94.4497 215.766L187.436 156.862Z" fill="#1A1659"/>
<path d="M58.4219 156.862H94.4495H130.477L94.4495 61.7455L58.4219 156.862Z" fill="#1A1659"/>
<path d="M94.4495 215.766L130.477 156.862H58.4219L94.4495 215.766Z" fill="url(#paint0_linear_43_862)"/>
<path d="M94.4496 61.7455L110.009 102.774H90.3745L77.0378 138.154H123.438L130.477 156.862H187.436L120.104 0.155762C102.97 0.155762 85.9289 0.155762 68.795 0.155762L1.55566 156.862H58.5146L94.4496 61.7455Z" fill="url(#paint1_linear_43_862)"/>
<defs>
<linearGradient id="paint0_linear_43_862" x1="58.4592" y1="186.277" x2="130.48" y2="186.277" gradientUnits="userSpaceOnUse">
<stop stop-color="#31ECFF"/>
<stop offset="0.049371" stop-color="#2DE2FF"/>
<stop offset="0.2964" stop-color="#1BB2FF"/>
<stop offset="0.5147" stop-color="#0E90FF"/>
<stop offset="0.694" stop-color="#067BFF"/>
<stop offset="0.8118" stop-color="#0373FF"/>
</linearGradient>
<linearGradient id="paint1_linear_43_862" x1="147.843" y1="10.2725" x2="83.6266" y2="186.707" gradientUnits="userSpaceOnUse">
<stop stop-color="#31ECFF"/>
<stop offset="0.0488274" stop-color="#2DE2FF"/>
<stop offset="0.2932" stop-color="#1BB2FF"/>
<stop offset="0.5091" stop-color="#0E90FF"/>
<stop offset="0.6863" stop-color="#067BFF"/>
<stop offset="0.8028" stop-color="#0373FF"/>
</linearGradient>
</defs>
</svg>
