<svg width="215" height="533" viewBox="0 0 215 533" fill="none" xmlns="http://www.w3.org/2000/svg">
<path fill-rule="evenodd" clip-rule="evenodd" d="M36.0554 476.221C36.0554 476.221 34.6854 474.359 32.3914 481.441C30.1014 488.49 25.7544 503.668 25.7544 503.668C25.7544 503.668 22.6454 508.639 29.0504 513.692C34.7154 518.148 43.0104 532.428 113.349 532.777C172.825 533.043 189.764 510.583 189.764 510.583C189.764 510.583 191.593 507.258 188.841 500.642C186.102 494.059 181.983 484.383 181.983 484.383C181.983 484.383 181.983 481.557 179.232 481.557L36.0554 476.221Z" fill="#918E8E"/>
<path fill-rule="evenodd" clip-rule="evenodd" d="M166.87 317.847V311.214H169.996V312.23H168.067V313.868H169.846V314.888H168.067V316.827H170.062V317.847H166.87Z" fill="white"/>
<path fill-rule="evenodd" clip-rule="evenodd" d="M170.846 317.847V311.214H172.045V316.744H173.838V317.847H170.846Z" fill="white"/>
<path d="M111.548 88.44C111.883 87.26 112.789 86.491 113.578 86.728C114.366 86.963 114.74 88.114 114.405 89.294C114.075 90.474 113.168 91.241 112.377 91.006C111.59 90.767 111.22 89.622 111.548 88.44Z" stroke="white" stroke-width="3.8056" stroke-miterlimit="2.6131"/>
<path d="M162.538 70.5931C165.065 69.9531 166.667 67.4571 166.119 65.0181C165.573 62.5801 163.077 61.1221 160.554 61.7641C158.025 62.4021 156.421 64.9001 156.967 67.3391C157.517 69.7791 160.011 71.2331 162.538 70.5931Z" stroke="white" stroke-width="3.8056" stroke-miterlimit="2.6131"/>
<path d="M116.05 73.0751C104.802 69.2891 92.8614 84.3801 92.4744 100.113C92.0774 116.336 100.578 122.479 105.254 122.595C98.7524 125.465 97.9814 128.231 97.8734 132.83C105.676 124.418 116 137.391 120.499 120.783C116.58 123.235 114.82 123.493 111.387 122.749C119.348 120.151 126.906 112.215 127.901 100.013C128.865 88.2931 127.022 78.6731 118.178 76.8821C110.269 75.3551 104.322 89.0181 104.627 95.6881C104.929 102.354 106.716 105.912 110.336 106.12C113.954 106.334 118.212 99.5301 118.37 93.1161C118.528 86.7031 116.273 83.2561 112.25 85.0951C113.621 81.6141 115.849 81.4291 117.136 81.4591C118.418 81.4921 123.219 86.0891 120.951 97.5431C118.684 108.991 112.907 111.029 109.632 110.953C106.359 110.872 101.168 108.081 101.422 97.6701C101.649 88.3481 105.867 73.6751 115.916 73.9201C116.907 73.9431 116.948 73.4281 116.05 73.0751Z" stroke="white" stroke-width="3.8056" stroke-miterlimit="2.6131"/>
<path fill-rule="evenodd" clip-rule="evenodd" d="M93.5576 50.222L90.8687 54.9311H98.9406L99.6136 51.5691L93.5576 50.222Z" fill="white"/>
<path fill-rule="evenodd" clip-rule="evenodd" d="M122.321 43.955L121.384 46.299L126.539 47.236L122.321 43.955Z" fill="white"/>
<path fill-rule="evenodd" clip-rule="evenodd" d="M109.665 45.8311L106.384 50.9871L110.133 51.4561L110.603 49.1131L109.665 45.8311Z" fill="white"/>
<path fill-rule="evenodd" clip-rule="evenodd" d="M132.634 46.7681L131.227 48.6431L133.572 50.5191L135.448 48.175L132.634 46.7681Z" fill="white"/>
<path fill-rule="evenodd" clip-rule="evenodd" d="M113.414 60.361L111.54 63.173L113.414 63.642L115.758 61.766L113.414 60.361Z" fill="white"/>
<path fill-rule="evenodd" clip-rule="evenodd" d="M101.698 58.485L103.105 64.11L106.384 62.2361L105.449 59.4241L101.698 58.485Z" fill="white"/>
<path fill-rule="evenodd" clip-rule="evenodd" d="M137.79 63.173L136.383 65.517L142.478 65.049L137.79 63.173Z" fill="white"/>
<path fill-rule="evenodd" clip-rule="evenodd" d="M156.364 51.0511L157.301 48.7071L152.143 47.7681L156.364 51.0511Z" fill="white"/>
<path fill-rule="evenodd" clip-rule="evenodd" d="M169.017 49.175L172.298 44.0191L168.549 43.5491L168.08 45.8941L169.017 49.175Z" fill="white"/>
<path fill-rule="evenodd" clip-rule="evenodd" d="M157.768 58.549L160.113 53.861L158.238 53.395L155.424 54.8L157.768 58.549Z" fill="white"/>
<path fill-rule="evenodd" clip-rule="evenodd" d="M146.047 48.2381L147.454 46.3631L145.112 44.4871L143.236 46.8311L146.047 48.2381Z" fill="white"/>
<path fill-rule="evenodd" clip-rule="evenodd" d="M132.925 59.0171L138.551 53.8611L136.676 52.4561L134.802 54.3331L132.925 59.0171Z" fill="white"/>
<path fill-rule="evenodd" clip-rule="evenodd" d="M211.821 110.656L214.51 105.948H206.441L205.767 109.312L211.821 110.656Z" fill="white"/>
<path fill-rule="evenodd" clip-rule="evenodd" d="M183.06 116.924L183.996 114.582L178.84 113.643L183.06 116.924Z" fill="white"/>
<path fill-rule="evenodd" clip-rule="evenodd" d="M195.713 115.047L198.996 109.894L195.245 109.424L194.776 111.768L195.713 115.047Z" fill="white"/>
<path fill-rule="evenodd" clip-rule="evenodd" d="M184.465 124.424L186.811 119.735L184.933 119.268L182.123 120.675L184.465 124.424Z" fill="white"/>
<path fill-rule="evenodd" clip-rule="evenodd" d="M172.747 114.11L174.151 112.236L171.81 110.359L169.936 112.705L172.747 114.11Z" fill="white"/>
<path fill-rule="evenodd" clip-rule="evenodd" d="M191.965 100.518L193.842 97.706L191.965 97.236L189.621 99.113L191.965 100.518Z" fill="white"/>
<path fill-rule="evenodd" clip-rule="evenodd" d="M203.683 102.394L202.278 96.769L198.997 98.643L199.932 101.457L203.683 102.394Z" fill="white"/>
<path fill-rule="evenodd" clip-rule="evenodd" d="M167.591 97.7061L168.998 95.3621L162.906 95.8291L167.591 97.7061Z" fill="white"/>
<path fill-rule="evenodd" clip-rule="evenodd" d="M159.624 124.893L165.247 119.735L163.371 118.331L161.499 120.205L159.624 124.893Z" fill="white"/>
<path fill-rule="evenodd" clip-rule="evenodd" d="M175.558 123.019V121.142L172.277 120.675L170.402 122.079L171.809 123.956L175.558 123.019Z" fill="white"/>
<path fill-rule="evenodd" clip-rule="evenodd" d="M156.531 88.3751L159.223 83.6691H151.151L150.479 87.0291L156.531 88.3751Z" fill="white"/>
<path fill-rule="evenodd" clip-rule="evenodd" d="M127.769 94.6411L128.707 92.2991L123.549 91.3621L127.769 94.6411Z" fill="white"/>
<path fill-rule="evenodd" clip-rule="evenodd" d="M140.426 92.7661L143.705 87.6111L139.954 87.1431L139.485 89.4871L140.426 92.7661Z" fill="white"/>
<path fill-rule="evenodd" clip-rule="evenodd" d="M129.174 102.143L131.518 97.4541L129.644 96.9871L126.83 98.3921L129.174 102.143Z" fill="white"/>
<path fill-rule="evenodd" clip-rule="evenodd" d="M117.454 91.829L118.863 89.955L116.521 88.08L114.645 90.424L117.454 91.829Z" fill="white"/>
<path fill-rule="evenodd" clip-rule="evenodd" d="M136.674 78.237L138.551 75.425L136.674 74.957L134.332 76.83L136.674 78.237Z" fill="white"/>
<path fill-rule="evenodd" clip-rule="evenodd" d="M148.392 80.111L146.988 74.486L143.706 76.362L144.643 79.174L148.392 80.111Z" fill="white"/>
<path fill-rule="evenodd" clip-rule="evenodd" d="M112.3 75.4231L113.707 73.0811L107.615 73.55L112.3 75.4231Z" fill="white"/>
<path fill-rule="evenodd" clip-rule="evenodd" d="M104.334 102.61L109.956 97.4541L108.081 96.05L106.207 97.9241L104.334 102.61Z" fill="white"/>
<path fill-rule="evenodd" clip-rule="evenodd" d="M120.27 100.736V98.863L116.989 98.392L115.114 99.798L116.521 101.673L120.27 100.736Z" fill="white"/>
<path fill-rule="evenodd" clip-rule="evenodd" d="M192.571 131.686C193.327 132.395 193.602 133.087 193.427 134.2C192.721 136.041 192.012 137.882 191.285 139.709C189.458 145.42 187.958 151.953 187.28 158.172C187.197 158.916 186.536 161.416 187.706 161.416C187.889 160.522 188.076 159.625 188.246 158.712C188.955 158.712 188.784 158.882 188.784 158.172C189.391 161.904 186.621 164.437 186.621 167.904C185.896 167.904 186.081 167.717 186.081 168.444C185.726 168.444 185.372 168.444 185.002 168.444C185.002 159.371 186.926 151.651 188.784 143.574C189.68 139.627 190.661 135.163 192.571 131.686Z" fill="white"/>
<path fill-rule="evenodd" clip-rule="evenodd" d="M194.193 145.74C199.748 150.96 194.193 160.49 194.193 166.824C193.838 166.824 193.484 166.824 193.108 166.824C193.819 161.045 194.529 155.287 195.24 149.508C195.273 148.816 195.406 148.986 194.733 148.986C194.733 148.799 194.733 148.629 194.733 148.442C194.546 148.442 194.376 148.442 194.193 148.442C194.193 148.629 194.193 148.816 194.193 148.986C192.4 150.892 189.867 155.42 189.867 158.173C189.682 158.173 189.514 158.173 189.329 158.173C189.329 157.988 189.329 157.82 189.329 157.633C189.142 157.633 188.974 157.633 188.787 157.633C189.866 153.527 191.707 149.186 194.193 145.74Z" fill="white"/>
<path fill-rule="evenodd" clip-rule="evenodd" d="M183.38 227.905C183.38 226.88 182.027 226.964 181.217 226.835C178.686 229.058 177.196 231.762 176.352 234.935C175.997 234.935 175.623 234.935 175.271 234.935C175.271 232.896 173.951 230.205 173.11 228.454C169.951 228.454 167.871 233.707 167.16 236.018C166.264 236.018 167.06 232.61 167.16 231.696C166.992 231.696 166.805 231.696 166.62 231.696C166.62 231.523 166.62 231.341 166.62 231.154C165.302 231.154 164.018 242.916 165.539 244.67C165.539 244.861 165.539 245.023 165.539 245.216C165.724 245.216 165.894 245.216 166.079 245.216C166.079 241.006 169.001 233.265 172.026 230.613C172.026 229.94 172.429 230.43 172.668 230.848C173.53 232.758 174.374 234.67 175.218 236.577C175.488 237.947 175.166 238.977 175.64 240.195C175.962 241.02 176.725 241.542 177.433 241.968C177.433 241.968 181.367 235.989 181.755 234.936C181.94 234.936 182.112 234.936 182.295 234.936C182.295 240.241 178.883 252.932 172.985 253.811C170.554 254.162 168.931 252.83 167.158 251.702C167.53 250.449 167.885 249.179 168.239 247.916C168.069 247.916 167.886 247.916 167.699 247.916C167.699 248.099 167.699 248.271 167.699 248.454C164.846 248.454 167.159 255.517 172.516 255.077C174.168 254.925 176.111 254.283 177.312 253.182C181.216 249.517 185.796 233.251 183.38 227.905ZM182.297 229.532C182.297 230.837 181.183 232.2 180.676 233.314C180.504 233.314 180.319 233.314 180.136 233.314C180.304 235.968 178.852 237.873 177.435 239.806C177.435 239.989 177.435 240.157 177.435 240.34C177.078 240.34 176.708 240.34 176.352 240.34C176.352 235.309 179.006 232.1 181.757 228.454C181.942 228.454 182.114 228.454 182.297 228.454C182.297 228.819 182.297 229.179 182.297 229.532Z" fill="white"/>
<path d="M46.2575 453.566L35.0605 476.674C35.0605 476.674 37.1675 481.911 41.7105 485.768" stroke="#918E8E" stroke-width="0.9845" stroke-miterlimit="2.6131" stroke-linecap="round" stroke-linejoin="round"/>
<path d="M51.8513 426.983C51.8513 426.983 50.7953 425.603 49.0543 430.84C47.2963 436.093 44.5033 449.393 44.5033 449.393C44.5033 449.393 42.4043 453.566 47.2963 456.01" stroke="#918E8E" stroke-width="0.9845" stroke-miterlimit="2.6131" stroke-linecap="round" stroke-linejoin="round"/>
<path d="M158.864 418.255C160.971 418.255 160.971 420.366 160.971 420.366C160.971 420.366 168.664 438.886 170.769 443.806C172.864 448.694 171.457 451.121 171.457 451.121L167.96 453.249L171.817 460.597L174.959 461.295L181.607 480.164" stroke="#918E8E" stroke-width="0.9845" stroke-miterlimit="2.6131" stroke-linecap="round" stroke-linejoin="round"/>
<path d="M191.039 88.1091C191.405 76.2231 189.298 64.6691 186.139 55.9411C183.001 47.1961 174.257 32.8661 159.224 18.8521C144.179 4.87105 122.839 3.84006 113.752 1.71206C104.667 -0.382945 90.3205 2.77605 85.0695 3.14205C79.8265 3.49105 70.0345 8.01306 66.1985 9.79206C62.3375 11.5211 52.1965 16.7741 52.1965 16.7741L43.1155 23.7731C43.1155 23.7731 31.9215 36.358 28.0705 40.564C24.2215 44.737 22.1275 53.1651 22.1275 53.1651C22.1275 53.1651 19.3265 63.622 14.7795 74.81C10.2325 86.015 11.2845 101.06 11.2845 101.06" stroke="#918E8E" stroke-width="0.9845" stroke-miterlimit="2.6131" stroke-linecap="round" stroke-linejoin="round"/>
<path d="M191.04 89.8721L190.701 87.4111L197.681 84.6181C197.681 84.6181 201.895 83.9361 201.895 86.3641C201.895 88.8251 202.244 93.3631 203.981 94.7591C205.735 96.1721 207.48 97.2201 207.48 97.2201C207.48 97.2201 210.979 97.8851 210.281 102.44C210.281 102.44 212.371 103.138 209.934 108.042C207.48 112.946 206.437 121.691 204.681 131.134C202.95 140.577 203.284 144.084 202.243 146.844C201.196 149.67 200.485 155.605 200.485 155.605C200.485 155.605 200.83 161.557 199.791 166.095C198.744 170.65 196.634 172.063 195.587 184.648C194.546 197.233 194.191 211.547 193.84 221.355L193.491 229.418C193.491 229.418 193.84 232.56 187.891 243.399C181.956 254.238 179.51 258.078 175.306 277.995C171.115 297.944 169.371 296.897 166.561 327.653C163.766 358.458 163.766 363.346 163.766 363.346C163.766 363.346 164.464 369.298 159.934 371.758C155.366 374.185 144.534 379.439 144.534 379.439C150.469 379.788 148.738 386.072 148.738 386.072L150.829 392.024C155.022 399.721 154.326 406.72 154.326 406.72L153.975 413.037C159.224 414.766 159.935 418.955 159.935 418.955" stroke="#918E8E" stroke-width="0.9845" stroke-miterlimit="2.6131" stroke-linecap="round" stroke-linejoin="round"/>
<path d="M51.8516 427.349C51.8516 422.478 54.6446 420.001 54.6446 420.001C54.6446 420.001 55.6936 418.954 58.4936 414.764C61.3076 410.558 60.9456 407.05 61.6456 402.861C62.3376 398.655 63.7546 398.339 63.7546 398.339C64.4446 394.831 64.1036 394.831 61.3066 386.768C58.4926 378.738 57.4556 374.882 52.5516 366.503C47.6476 358.091 47.6476 350.743 47.2966 345.855C46.9556 340.968 47.2966 338.856 44.8546 333.304C42.4046 327.652 42.7576 324.892 42.7576 316.829C42.7576 308.783 43.1146 289.216 39.9566 278.709C36.8186 268.219 37.8616 259.125 37.8616 253.889C37.8616 248.653 32.6086 239.542 29.4746 232.56C26.3246 225.561 24.9156 219.593 24.9156 219.593C24.9156 219.593 20.0276 200.724 18.2696 191.265C16.5266 181.839 14.7786 172.064 11.2836 158.748C7.78857 145.482 3.94158 130.436 2.17758 124.468C0.440582 118.55 1.13858 115.757 1.13858 115.757L3.59058 106.298L6.73257 98.2681" stroke="#918E8E" stroke-width="0.9845" stroke-miterlimit="2.6131" stroke-linecap="round" stroke-linejoin="round"/>
<path d="M5.68062 101.758C5.68062 101.758 5.33562 98.267 8.47762 97.22C11.6316 96.173 11.6316 96.173 11.6316 96.173" stroke="#918E8E" stroke-width="0.9845" stroke-miterlimit="2.6131" stroke-linecap="round" stroke-linejoin="round"/>
<path fill-rule="evenodd" clip-rule="evenodd" d="M46.2575 453.566L35.0605 476.674C35.0605 476.674 37.1675 481.911 41.7105 485.768C46.2575 489.608 69.6895 502.891 115.154 500.115C160.622 497.305 176.004 484.721 181.606 480.166L174.958 461.297L171.816 460.599L167.959 453.251L46.2575 453.566Z" fill="#918E8E"/>
<path d="M165.975 453.25L176.937 483.689" stroke="#918E8E" stroke-width="0.2952" stroke-miterlimit="2.6131"/>
<path d="M164.549 453.25L175.733 484.487" stroke="#918E8E" stroke-width="0.3045" stroke-miterlimit="2.6131"/>
<path d="M163.104 453.266L174.499 485.269" stroke="#918E8E" stroke-width="0.3139" stroke-miterlimit="2.6131"/>
<path d="M161.702 453.3L173.252 486.017" stroke="#918E8E" stroke-width="0.3231" stroke-miterlimit="2.6131"/>
<path d="M160.484 453.931L171.998 486.732" stroke="#918E8E" stroke-width="0.3323" stroke-miterlimit="2.6131"/>
<path d="M159.278 454.53L170.735 487.397" stroke="#918E8E" stroke-width="0.3414" stroke-miterlimit="2.6131"/>
<path fill-rule="evenodd" clip-rule="evenodd" d="M176.189 484.554L169.882 466.533L164.296 469.492L157.999 458.487L167.608 452.519L171.815 460.599L174.086 461.114C174.086 461.114 174.614 461.114 175.487 462.86C176.354 464.589 181.257 479.983 181.257 479.983C181.257 479.983 177.229 483.822 176.189 484.554Z" fill="#918E8E"/>
<path fill-rule="evenodd" clip-rule="evenodd" d="M43.9834 487.513L50.1074 472.119C53.5794 474.613 60.9444 475.959 60.9444 475.959L66.1974 459.866L47.2953 451.836L35.2344 476.141C35.2344 476.141 37.5164 484.171 43.9834 487.513Z" fill="#918E8E"/>
<path fill-rule="evenodd" clip-rule="evenodd" d="M51.8513 426.983C51.8513 426.983 50.7953 425.603 49.0543 430.84C47.2963 436.093 44.5033 449.393 44.5033 449.393C44.5033 449.393 42.4043 453.566 47.2963 456.01C52.1963 458.487 67.5904 467.581 113.062 467.581C158.522 467.581 171.456 451.123 171.456 451.123C171.456 451.123 172.863 448.696 170.768 443.808C168.663 438.887 160.97 420.368 160.97 420.368C160.97 420.368 160.97 418.257 158.863 418.257L51.8513 426.983Z" fill="#918E8E"/>
<path fill-rule="evenodd" clip-rule="evenodd" d="M100.846 438.52L97.4277 467.181C94.4787 467.031 91.7027 466.832 89.0737 466.599L93.8577 438.088L100.846 438.52Z" fill="#918E8E"/>
<path d="M100.846 438.52L97.4277 467.181" stroke="#918E8E" stroke-width="0.7877" stroke-miterlimit="2.6131"/>
<path d="M89.0737 466.599L93.8577 438.088" stroke="#918E8E" stroke-width="0.7877" stroke-miterlimit="2.6131"/>
<path d="M102.798 438.57L99.5757 467.298" stroke="#918E8E" stroke-width="0.7877" stroke-miterlimit="2.6131"/>
<path d="M104.717 438.653L101.733 467.38" stroke="#918E8E" stroke-width="0.7877" stroke-miterlimit="2.6131"/>
<path d="M106.642 438.703L103.87 467.447" stroke="#918E8E" stroke-width="0.7877" stroke-miterlimit="2.6131"/>
<path d="M108.577 438.803L106.016 467.497" stroke="#918E8E" stroke-width="0.7877" stroke-miterlimit="2.6131"/>
<path d="M110.503 438.853L108.167 467.547" stroke="#918E8E" stroke-width="0.7877" stroke-miterlimit="2.6131"/>
<path d="M112.444 438.936L110.322 467.564" stroke="#918E8E" stroke-width="0.7877" stroke-miterlimit="2.6131"/>
<path d="M114.378 438.986L112.482 467.58" stroke="#918E8E" stroke-width="0.7877" stroke-miterlimit="2.6131"/>
<path d="M91.7914 437.839L86.7144 466.367" stroke="#918E8E" stroke-width="0.7877" stroke-miterlimit="2.6131"/>
<path d="M89.7345 437.573L84.3774 466.134" stroke="#918E8E" stroke-width="0.7877" stroke-miterlimit="2.6131"/>
<path d="M87.6626 437.357L82.0376 465.851" stroke="#918E8E" stroke-width="0.7877" stroke-miterlimit="2.6131"/>
<path d="M85.5948 437.141L79.6978 465.535" stroke="#918E8E" stroke-width="0.7877" stroke-miterlimit="2.6131"/>
<path d="M83.5237 436.924L77.3867 465.203" stroke="#918E8E" stroke-width="0.7877" stroke-miterlimit="2.6131"/>
<path d="M81.4615 436.675L75.0615 464.82" stroke="#918E8E" stroke-width="0.7877" stroke-miterlimit="2.6131"/>
<path d="M72.7676 464.421L79.4006 436.426" stroke="#918E8E" stroke-width="0.7877" stroke-miterlimit="2.6131"/>
<path d="M130.713 436.293L138.327 465.585" stroke="#918E8E" stroke-width="0.443" stroke-miterlimit="2.6131"/>
<path d="M140.12 465.253L132.1 435.328" stroke="#918E8E" stroke-width="0.443" stroke-miterlimit="2.6131"/>
<path d="M141.914 464.887L133.485 434.331" stroke="#918E8E" stroke-width="0.443" stroke-miterlimit="2.6131"/>
<path d="M143.693 464.505L134.859 433.4" stroke="#918E8E" stroke-width="0.443" stroke-miterlimit="2.6131"/>
<path d="M145.488 464.089L136.253 432.453" stroke="#918E8E" stroke-width="0.443" stroke-miterlimit="2.6131"/>
<path d="M147.26 463.623L137.634 431.488" stroke="#918E8E" stroke-width="0.443" stroke-miterlimit="2.6131"/>
<path d="M149.022 463.141L139.014 430.541" stroke="#918E8E" stroke-width="0.443" stroke-miterlimit="2.6131"/>
<path d="M150.776 462.609L140.394 429.576" stroke="#918E8E" stroke-width="0.443" stroke-miterlimit="2.6131"/>
<path d="M152.53 462.044L141.782 428.596" stroke="#918E8E" stroke-width="0.443" stroke-miterlimit="2.6131"/>
<path d="M154.259 461.429L143.156 427.648" stroke="#918E8E" stroke-width="0.443" stroke-miterlimit="2.6131"/>
<path d="M155.979 460.764L144.536 426.684" stroke="#918E8E" stroke-width="0.443" stroke-miterlimit="2.6131"/>
<path d="M157.683 460.066L145.913 425.753" stroke="#918E8E" stroke-width="0.443" stroke-miterlimit="2.6131"/>
<path d="M159.375 459.318L147.301 424.772" stroke="#918E8E" stroke-width="0.443" stroke-miterlimit="2.6131"/>
<path d="M161.036 458.52L148.688 423.824" stroke="#918E8E" stroke-width="0.443" stroke-miterlimit="2.6131"/>
<path d="M162.687 457.655L150.061 422.86" stroke="#918E8E" stroke-width="0.443" stroke-miterlimit="2.6131"/>
<path d="M164.308 456.724L151.449 421.896" stroke="#918E8E" stroke-width="0.443" stroke-miterlimit="2.6131"/>
<path d="M165.892 455.743L152.841 420.965" stroke="#918E8E" stroke-width="0.443" stroke-miterlimit="2.6131"/>
<path d="M167.45 454.663L154.221 420.001" stroke="#918E8E" stroke-width="0.443" stroke-miterlimit="2.6131"/>
<path d="M168.963 453.499L155.604 419.037" stroke="#918E8E" stroke-width="0.443" stroke-miterlimit="2.6131"/>
<path d="M170.419 452.219L157.109 418.405" stroke="#918E8E" stroke-width="0.443" stroke-miterlimit="2.6131"/>
<path d="M171.7 450.49L158.822 418.255" stroke="#918E8E" stroke-width="0.443" stroke-miterlimit="2.6131"/>
<path fill-rule="evenodd" clip-rule="evenodd" d="M191.039 88.1091C191.405 76.2231 189.298 64.6691 186.139 55.9411C183.001 47.1961 174.257 32.8661 159.224 18.8521C144.179 4.87105 122.839 3.84006 113.752 1.71206C104.667 -0.382945 90.3205 2.77605 85.0695 3.14205C79.8265 3.49105 70.0345 8.01306 66.1985 9.79206C62.3375 11.5211 52.1965 16.7741 52.1965 16.7741L43.1155 23.7731C43.1155 23.7731 31.9215 36.358 28.0705 40.564C24.2215 44.737 22.1275 53.1651 22.1275 53.1651C22.1275 53.1651 19.3265 63.622 14.7795 74.81C10.2325 86.015 11.2845 101.06 11.2845 101.06L16.1845 126.595L29.1225 159.811L52.1975 180.442L110.266 183.567L154.327 182.204L179.163 168.555L190.702 139.163L193.842 96.5051L191.039 88.1091Z" fill="#918E8E"/>
<path d="M11.3564 101.426C12.6014 94.7761 21.5304 50.5881 43.2314 29.5081C43.2314 29.5081 75.1095 -2.04494 125.144 7.36406" stroke="#918E8E" stroke-width="0.2952" stroke-miterlimit="2.6131"/>
<path d="M125.185 6.20105C74.6436 -3.29195 42.4046 28.611 42.4046 28.611C21.0626 49.325 12.6806 90.803 11.2046 98.966" stroke="#918E8E" stroke-width="0.2952" stroke-miterlimit="2.6131"/>
<path d="M125.218 5.07006C74.1578 -4.52194 41.5968 27.6961 41.5968 27.6961C21.1298 47.5621 13.1128 85.0671 11.1968 95.6571" stroke="#918E8E" stroke-width="0.2952" stroke-miterlimit="2.6131"/>
<path d="M125.25 3.92303C73.6645 -5.76897 40.7715 26.765 40.7715 26.765C30.8215 36.441 23.9395 49.956 19.2755 62.524M17.0895 68.825C14.1265 77.952 12.3515 86.065 11.3955 91.152" stroke="#918E8E" stroke-width="0.2952" stroke-miterlimit="2.6131"/>
<path d="M22.5596 51.635C24.4836 47.446 26.6846 43.289 29.2056 39.316M75.9816 5.58504C78.9616 4.65404 82.1096 3.80603 85.4156 3.10803" stroke="#918E8E" stroke-width="0.2952" stroke-miterlimit="2.6131"/>
<path fill-rule="evenodd" clip-rule="evenodd" d="M131.413 185.18C176.073 162.903 202.312 118.616 189.985 86.231C177.679 53.847 131.492 45.617 86.8129 67.878C42.1348 90.138 10.3188 112.049 22.6218 144.45C34.9358 176.818 86.7299 207.423 131.413 185.18Z" fill="#918E8E"/>
<path fill-rule="evenodd" clip-rule="evenodd" d="M86.1227 74.5941C128.374 53.7801 172.063 61.4611 183.717 91.7341C195.363 122.024 170.553 163.435 128.291 184.216C86.0337 205.013 37.5457 178.148 25.8857 147.892C14.2467 117.618 43.8677 95.4071 86.1227 74.5941Z" fill="#918E8E"/>
<path fill-rule="evenodd" clip-rule="evenodd" d="M85.4126 81.31C125.252 61.959 166.462 69.108 177.434 97.253C188.419 125.398 165.016 163.934 125.185 183.285C85.3356 202.636 40.1486 179.478 29.1716 151.316C18.1726 123.187 45.5696 100.644 85.4126 81.31Z" fill="#918E8E"/>
<path fill-rule="evenodd" clip-rule="evenodd" d="M84.7135 88.01C122.148 70.105 160.841 76.722 171.156 102.773C181.467 128.807 159.497 164.433 122.069 182.305C84.6465 200.226 42.7485 180.809 32.4295 154.791C22.1265 128.74 47.2965 105.914 84.7135 88.01Z" fill="#918E8E"/>
<path fill-rule="evenodd" clip-rule="evenodd" d="M84.0216 94.7261C119.023 78.3011 155.225 84.369 164.877 108.292C174.525 132.215 153.976 164.932 118.964 181.373C83.9526 197.814 45.3466 182.138 35.7036 158.215C26.0526 134.292 49.0046 111.168 84.0216 94.7261Z" fill="#918E8E"/>
<path fill-rule="evenodd" clip-rule="evenodd" d="M83.3237 101.442C115.918 86.447 149.62 91.983 158.61 113.811C167.575 135.606 148.442 165.447 115.848 180.442C83.2576 195.404 47.9406 183.484 38.9697 161.656C29.9817 139.878 50.7297 116.437 83.3237 101.442Z" fill="#918E8E"/>
<path fill-rule="evenodd" clip-rule="evenodd" d="M82.6233 108.142C112.788 94.6261 144.003 99.6141 152.313 119.314C160.627 139.014 142.904 165.962 112.743 179.461C82.5654 193.01 50.5554 184.797 42.2434 165.114C33.9304 145.431 52.4453 121.691 82.6233 108.142Z" fill="#918E8E"/>
<path fill-rule="evenodd" clip-rule="evenodd" d="M109.629 178.547C137.4 166.461 153.684 142.389 146.037 124.817C138.39 107.245 109.679 102.773 81.9254 114.859C54.1644 126.945 37.8495 150.984 45.5015 168.556C53.1645 186.144 81.8665 190.599 109.629 178.547Z" fill="#918E8E"/>
<path fill-rule="evenodd" clip-rule="evenodd" d="M83.6204 118.915C107.827 108.392 132.858 112.282 139.52 127.593C146.191 142.921 131.977 163.884 107.778 174.408C83.5734 184.931 58.5514 181.058 51.8864 165.73C45.2094 150.418 59.4234 129.438 83.6204 118.915Z" fill="#918E8E"/>
<path fill-rule="evenodd" clip-rule="evenodd" d="M85.3246 122.988C105.966 114.011 127.312 117.336 132.998 130.386C138.694 143.47 126.571 161.324 105.917 170.301C85.2856 179.295 63.9456 175.987 58.2646 162.903C52.5786 149.836 64.6976 131.965 85.3246 122.988Z" fill="#918E8E"/>
<path fill-rule="evenodd" clip-rule="evenodd" d="M87.0414 127.061C104.121 119.597 121.765 122.356 126.474 133.162C131.191 144.001 121.154 158.78 104.081 166.195C87.0034 173.626 69.3404 170.9 64.6484 160.077C59.9304 149.254 69.9554 134.475 87.0414 127.061Z" fill="#918E8E"/>
<path fill-rule="evenodd" clip-rule="evenodd" d="M88.7497 131.1C102.26 125.215 116.235 127.393 119.963 135.954C123.687 144.532 115.757 156.236 102.227 162.104C88.7177 167.972 74.7407 165.828 71.0057 157.25C67.2917 148.689 75.2257 136.985 88.7497 131.1Z" fill="#918E8E"/>
<path fill-rule="evenodd" clip-rule="evenodd" d="M100.38 157.999C110.353 153.677 116.184 145.049 113.445 138.731C110.698 132.43 100.403 130.834 90.4534 135.173C80.4974 139.495 74.6454 148.124 77.3944 154.424C80.1314 160.725 90.4224 162.321 100.38 157.999Z" fill="#918E8E"/>
<path fill-rule="evenodd" clip-rule="evenodd" d="M24.1833 77.037C24.1833 77.037 -1.51364 106.812 29.0444 139.229C42.1094 153.11 44.7773 113.162 47.6283 96.0051L24.1833 77.037Z" fill="#918E8E"/>
<path fill-rule="evenodd" clip-rule="evenodd" d="M46.9327 97.951C44.3617 113.478 42.4416 150.135 29.8486 138.98C4.11864 113.827 24.5397 80.412 24.5397 80.412L46.9327 97.951Z" fill="#918E8E"/>
<path fill-rule="evenodd" clip-rule="evenodd" d="M46.2447 99.929C43.9397 113.777 42.7867 147.176 30.6557 138.681C9.77571 120.909 24.9057 83.787 24.9057 83.787L46.2447 99.929Z" fill="#918E8E"/>
<path fill-rule="evenodd" clip-rule="evenodd" d="M45.5597 101.874C43.5187 114.06 43.1237 144.216 31.4617 138.398C15.4277 127.941 25.2607 87.178 25.2607 87.178L45.5597 101.874Z" fill="#918E8E"/>
<path fill-rule="evenodd" clip-rule="evenodd" d="M25.6135 90.5701C25.6135 90.5701 21.0795 134.991 32.2595 138.116C43.4585 141.291 43.1155 114.343 44.8545 103.853L25.6135 90.5701Z" fill="#918E8E"/>
<path fill-rule="evenodd" clip-rule="evenodd" d="M161.192 186.277C176.235 180.708 188.417 167.009 188.417 155.738C188.417 144.45 176.235 139.845 161.192 145.448C146.153 151 133.961 164.682 133.961 175.954C133.961 187.258 146.153 191.863 161.192 186.277Z" fill="#918E8E"/>
<path fill-rule="evenodd" clip-rule="evenodd" d="M184.141 159.545C184.141 169.42 173.456 181.423 160.26 186.327C147.06 191.231 136.373 187.208 136.373 177.3C136.373 167.392 147.061 155.389 160.26 150.501C173.456 145.614 184.141 149.653 184.141 159.545Z" fill="#918E8E"/>
<path fill-rule="evenodd" clip-rule="evenodd" d="M179.862 163.352C179.862 171.864 170.675 182.171 159.329 186.394C147.983 190.6 138.783 187.109 138.783 178.597C138.783 170.118 147.983 159.811 159.329 155.589C170.675 151.366 179.862 154.84 179.862 163.352Z" fill="#918E8E"/>
<path fill-rule="evenodd" clip-rule="evenodd" d="M175.604 167.176C175.604 174.275 167.892 182.919 158.398 186.427C148.914 189.968 141.204 187.059 141.204 179.927C141.204 172.795 148.914 164.183 158.398 160.659C167.893 157.151 175.604 160.044 175.604 167.176Z" fill="#918E8E"/>
<path fill-rule="evenodd" clip-rule="evenodd" d="M157.469 186.493C165.116 183.667 171.328 176.718 171.328 170.966C171.328 165.247 165.117 162.887 157.469 165.729C149.82 168.555 143.621 175.521 143.621 181.256C143.621 187.008 149.82 189.353 157.469 186.493Z" fill="#918E8E"/>
<path fill-rule="evenodd" clip-rule="evenodd" d="M191.248 111.517L192.279 97.5691L189.478 89.1571C189.844 77.2711 187.732 65.7171 184.582 56.9891C181.436 48.2451 172.697 33.9141 157.652 19.9001C147.675 10.6401 134.891 7.04906 124.783 5.07106V5.05406C124.783 5.05406 111.5 3.84006 121.466 6.65006L126.181 7.84706C126.181 7.84706 125.821 8.37906 127.577 9.59306C129.323 10.8071 130.551 11.7041 130.551 11.7041C130.551 11.7041 128.98 12.9181 132.305 14.8461C135.622 16.7741 132.172 16.3921 136.528 20.7641C137.326 21.7621 137.978 22.7091 138.417 23.5741C140.522 27.7801 138.598 30.2241 140.343 33.5491C142.097 36.8901 142.799 39.334 144.358 43.873C145.948 48.411 142.983 50.1571 142.983 50.1571L139.997 55.7591C139.997 55.7591 137.019 61.0121 135.791 63.6221C134.567 66.2651 133.528 72.2001 133.528 72.2001C133.528 72.2001 132.649 74.6271 132.127 76.2231C131.616 77.8021 130.897 78.6501 130.897 78.6501L127.755 80.412L127.572 80.4781C128.258 81.7081 129.147 83.1051 130.022 83.4041C131.616 83.9361 131.948 83.2211 132.306 84.6181C132.649 86.0151 134.234 87.4111 135.103 88.1091C135.963 88.8241 137.73 89.1561 138.418 90.9191C139.131 92.6481 139.476 94.3931 140.872 97.4021C142.273 100.361 142.624 101.575 142.624 101.575C142.624 101.575 143.499 105.781 145.068 104.551C146.641 103.337 147.693 98.4171 147.693 98.4171C147.693 98.4171 148.915 96.1731 149.451 95.7901C149.966 95.4581 150.494 94.261 150.494 94.261C150.494 94.261 152.938 93.7121 152.763 91.9671C152.58 90.2211 152.41 86.8801 152.41 86.8801C152.41 86.8801 152.58 84.2701 153.464 83.4061C154.339 82.5081 157.304 79.5491 157.304 79.5491C157.304 79.5491 158.179 78.5021 158.179 77.2711C158.179 76.0401 158.179 74.129 159.415 76.041C160.629 77.969 161.508 78.3191 161.848 80.0641C162.191 81.8101 163.086 85.666 163.086 85.666C163.086 85.666 162.556 88.2931 164.316 88.4591C166.053 88.6421 168.684 90.3881 170.243 93.5461C171.822 96.6721 170.783 100.362 170.783 100.362C170.783 100.362 170.783 101.758 171.656 102.44C172.512 103.138 174.108 104.202 173.044 105.233C171.993 106.297 174.453 106.979 171.822 107.162C169.195 107.345 169.382 108.758 168.855 109.788C168.325 110.835 168.148 114.343 169.721 120.112C171.298 125.897 171.822 125.897 172.354 127.975C172.873 130.086 172.873 132.879 174.266 134.641C175.671 136.387 178.298 136.204 179.164 134.791C180.051 133.411 180.567 132.164 180.91 131.3C181.265 130.436 186.519 118.017 188.435 114.526L191.248 111.517Z" fill="#918E8E"/>
<path fill-rule="evenodd" clip-rule="evenodd" d="M150.132 144.084L151.533 153.178V159.811L154.328 175.189C154.328 175.189 160.261 172.064 165.865 168.556C171.457 165.065 179.512 152.115 182.645 144.766C182.645 144.766 185.448 141.292 186.855 138.116C188.239 134.991 189.985 119.929 189.985 112.265L190.702 101.758L191.041 89.8721L190.702 87.4111L197.682 84.6181C197.682 84.6181 201.896 83.9361 201.896 86.3641C201.896 88.8251 202.245 93.3631 203.982 94.7591C205.736 96.1721 207.481 97.2201 207.481 97.2201C207.481 97.2201 210.98 97.8851 210.282 102.44C210.282 102.44 212.372 103.138 209.935 108.042C207.481 112.946 206.438 121.691 204.682 131.134C202.951 140.577 203.285 144.084 202.244 146.844C201.197 149.67 200.486 155.605 200.486 155.605C200.486 155.605 200.831 161.557 199.792 166.095C198.745 170.65 196.635 172.063 195.588 184.648C194.547 197.233 194.192 211.547 193.841 221.355L193.492 229.418C193.492 229.418 193.841 232.56 187.892 243.399C181.957 254.238 179.511 258.078 175.307 277.995C171.116 297.944 169.372 296.897 166.562 327.653C163.767 358.458 163.767 363.346 163.767 363.346C163.767 363.346 164.465 369.298 159.935 371.758C155.367 374.185 144.535 379.439 144.535 379.439C150.47 379.788 148.739 386.072 148.739 386.072L150.83 392.024C155.023 399.721 154.327 406.72 154.327 406.72L153.976 413.037C159.225 414.766 159.936 418.955 159.936 418.955C159.936 422.08 156.071 440.633 112.351 441.348C68.6426 442.063 51.8516 427.35 51.8516 427.35C51.8516 422.479 54.6446 420.002 54.6446 420.002C54.6446 420.002 55.6936 418.955 58.4936 414.765C61.3076 410.559 60.9456 407.051 61.6456 402.862C62.3376 398.656 63.7546 398.34 63.7546 398.34C64.4446 394.832 64.1036 394.832 61.3066 386.769C58.4926 378.739 57.4556 374.883 52.5516 366.504C47.6476 358.092 47.6476 350.744 47.2966 345.856C46.9556 340.969 47.2966 338.857 44.8546 333.305C42.4046 327.653 42.7576 324.893 42.7576 316.83C42.7576 308.784 43.1146 289.217 39.9566 278.71C36.8186 268.22 37.8616 259.126 37.8616 253.89C37.8616 248.654 32.6086 239.543 29.4746 232.561C26.3246 225.562 24.9156 219.594 24.9156 219.594C24.9156 219.594 20.0276 200.725 18.2696 191.266C16.5266 181.84 14.7786 172.065 11.2836 158.749C7.78857 145.483 3.94158 130.437 2.17758 124.469C0.440582 118.551 1.13858 115.758 1.13858 115.758L3.59058 106.299L6.73257 98.2691L24.5706 142.656L67.2456 179.728L117.604 178.348L150.132 144.084Z" fill="#918E8E"/>
<path fill-rule="evenodd" clip-rule="evenodd" d="M163.935 359.87L162.362 364.059C163.409 360.551 164.108 333.985 163.068 324.892C162.012 315.782 166.908 293.056 166.908 293.056C166.908 293.056 168.662 285.708 170.767 271.727C172.862 257.713 167.606 248.287 167.606 248.287C167.606 248.287 184.415 231.845 189.131 241.072C188.753 241.803 188.339 242.585 187.89 243.399C181.955 254.238 179.509 258.078 175.305 277.995C171.114 297.944 169.37 296.897 166.56 327.653C164.856 346.437 164.195 355.581 163.935 359.87Z" fill="#918E8E"/>
<path fill-rule="evenodd" clip-rule="evenodd" d="M168.025 293.837L163.843 285.442C163.843 285.442 162.434 281.236 165.244 283.115C168.026 284.977 171.767 284.495 171.767 284.495L168.025 293.837Z" fill="#918E8E"/>
<path d="M8.3457 102.273L21.7737 146.511C21.7737 146.511 30.8737 185.329 31.5717 206.326C32.2597 227.306 31.9207 223.815 35.7757 238.145C39.6117 252.475 39.9567 254.237 40.3167 263.68C40.6137 271.527 41.1377 280.121 41.7107 287.819" stroke="#918E8E" stroke-width="0.443" stroke-miterlimit="2.6131"/>
<path d="M42.1095 291.693C42.2255 283.231 41.9615 274.271 41.7605 266.44C41.5135 257.031 41.1644 255.285 37.4904 240.888C33.7834 226.524 34.1054 230.032 33.6274 209.036C33.1664 188.056 24.4845 149.121 24.4845 149.121L17.3354 124.65" stroke="#918E8E" stroke-width="0.443" stroke-miterlimit="2.6131"/>
<path d="M42.4373 296.431C43.3083 286.955 43.3313 277.28 43.2063 269.267C43.0523 259.791 42.7493 258.045 39.2123 243.632C35.6753 229.218 35.9373 232.743 35.6923 211.73C35.4453 190.733 27.1823 151.765 27.1823 151.765L24.6533 142.738" stroke="#918E8E" stroke-width="0.443" stroke-miterlimit="2.6131"/>
<path d="M42.6436 301.468C44.3726 290.828 44.6985 280.338 44.6535 272.042C44.6035 262.583 44.3235 260.837 40.9295 246.374C37.5465 231.927 37.7835 235.452 37.7545 214.438C37.7335 193.458 29.8995 154.357 29.8995 154.357L27.4146 145.13" stroke="#918E8E" stroke-width="0.443" stroke-miterlimit="2.6131"/>
<path d="M30.1685 147.525L32.6085 157.001C32.6085 157.001 40.0145 196.168 39.8275 217.165C39.6175 238.145 39.4324 234.654 42.6534 249.15C45.8914 263.613 46.1575 265.392 46.1005 274.818C46.0615 283.297 45.4125 294.568 42.7425 306.388" stroke="#918E8E" stroke-width="0.443" stroke-miterlimit="2.6131"/>
<path fill-rule="evenodd" clip-rule="evenodd" d="M151.183 212.976L156.436 257.031L162.712 260.888L170.769 258.444L174.258 251.096C174.258 251.096 174.958 246.89 180.91 241.321C186.855 235.702 186.14 247.572 186.14 247.572L190.358 238.495C194.192 232.56 193.841 221.355 193.841 221.355C194.136 216.817 194.834 196.169 195.588 184.964C196.297 174.856 199.443 166.777 199.443 166.777L198.745 159.096L197.681 156.669L195.246 169.586L196.298 175.87L193.16 177.3L191.406 182.204L189.644 176.951L186.14 184.283L181.957 189.187L176.355 188.838L174.958 186.727L173.212 187.791L174.615 189.869L182.645 191.631L180.91 193.393L187.204 194.79L190.701 193.393C190.701 193.393 188.606 203.185 186.14 208.438C183.696 213.675 180.209 219.593 175.654 222.386C171.116 225.196 170.417 231.164 170.417 231.164C169.012 225.562 166.211 219.959 164.108 217.166C162.013 214.356 157.818 205.978 157.818 205.978L155.368 204.581L155.717 202.453L159.225 203.517L163.069 207.008C163.069 207.008 168.318 202.453 166.909 196.535C166.909 196.535 165.508 193.742 162.711 193.393L156.07 192.678L151.531 195.837L151.183 212.976Z" fill="#918E8E"/>
<path fill-rule="evenodd" clip-rule="evenodd" d="M51.8516 427.349C51.8516 427.349 68.6426 442.062 112.351 441.347C156.071 440.632 159.936 422.079 159.936 418.954C159.936 418.954 159.225 414.765 153.976 413.036L154.327 406.719C154.327 406.719 155.023 399.72 150.83 392.023L148.739 386.071C148.739 386.071 150.47 379.787 144.535 379.438V379.621C144.535 379.621 139.807 382.746 135.78 386.454C131.767 390.128 131.067 389.596 130.015 392.023C128.972 394.483 127.052 400.235 123.369 401.831C119.703 403.41 119.175 404.109 108.336 410.559C97.4966 417.043 95.9126 417.209 93.8266 419.32C91.7316 421.398 85.6096 427.516 75.8076 429.261C66.0136 431.04 62.5246 432.42 53.0636 428.23L51.8516 427.349Z" fill="#918E8E"/>
<path fill-rule="evenodd" clip-rule="evenodd" d="M151.411 430.491C152.163 430.524 152.886 430.408 153.568 430.192C159.071 425.338 159.935 420.433 159.935 418.954C159.935 418.954 159.224 414.765 153.975 413.036L154.326 406.719C154.326 406.719 155.022 399.72 150.829 392.023L148.738 386.071C148.738 386.071 150.469 379.787 144.534 379.438V379.621C144.534 379.621 140.326 382.397 136.469 385.822C134.624 390.394 133.994 396.977 135.025 404.375C137.001 418.505 144.335 430.208 151.411 430.491Z" fill="#918E8E"/>
<path fill-rule="evenodd" clip-rule="evenodd" d="M156.088 413.983C156.148 425.304 152.109 433.45 145.928 433.184C138.543 432.918 130.895 420.732 128.84 405.936C128.335 402.329 128.214 398.887 128.424 395.779C129.112 394.316 129.621 392.953 130.014 392.022C131.066 389.595 131.767 390.127 135.78 386.453C138.141 384.275 140.743 382.297 142.489 381.05C145.182 382.629 147.77 385.622 149.951 389.529L150.828 392.023C155.021 399.72 154.325 406.719 154.325 406.719L153.974 413.036C154.781 413.301 155.488 413.617 156.088 413.983Z" fill="#918E8E"/>
<path fill-rule="evenodd" clip-rule="evenodd" d="M150.493 408.63C152.642 424.024 148.149 436.227 140.462 435.928C132.771 435.612 124.8 422.928 122.655 407.566C122.406 405.787 122.252 404.042 122.175 402.363C122.547 402.197 122.938 402.014 123.37 401.831C127.052 400.235 128.972 394.483 130.016 392.023C131.068 389.596 131.768 390.128 135.781 386.454C136.945 385.373 138.169 384.359 139.316 383.445C144.525 388.182 148.974 397.741 150.493 408.63Z" fill="#918E8E"/>
<path fill-rule="evenodd" clip-rule="evenodd" d="M145.414 410.275C147.322 424.023 144.163 435.295 138.166 438.005C137.46 438.205 136.732 438.404 135.984 438.587C135.656 438.62 135.319 438.637 134.974 438.62C126.973 438.337 118.707 425.104 116.479 409.128C116.323 408.014 116.207 406.917 116.117 405.853C119.857 403.559 120.894 402.894 123.369 401.83C127.051 400.234 128.971 394.482 130.015 392.022C131.067 389.595 131.767 390.127 135.78 386.453C135.824 386.403 135.88 386.353 135.923 386.32C140.394 391.689 144.047 400.467 145.414 410.275Z" fill="#918E8E"/>
<path fill-rule="evenodd" clip-rule="evenodd" d="M135.541 438.703C139.944 434.081 142.002 423.874 140.335 411.921C139.097 403.043 136.063 394.981 132.231 389.362C131.13 390.193 130.631 390.609 130.016 392.022C128.973 394.482 127.053 400.234 123.37 401.83C119.914 403.326 119.247 404.025 110.128 409.477C110.172 409.893 110.222 410.308 110.282 410.724C112.273 424.988 118.906 437.074 125.982 440.432C129.52 439.983 132.696 439.402 135.541 438.703Z" fill="#918E8E"/>
<path fill-rule="evenodd" clip-rule="evenodd" d="M148.739 217.165C148.739 217.165 148.033 201.771 153.269 209.484C158.522 217.165 162.014 224.18 161.336 234.304C160.621 244.428 161.658 258.443 161.658 258.443L164.823 252.142C164.823 252.142 171.816 246.174 171.816 261.236C171.816 261.236 161.658 256.714 158.173 275.899C158.173 275.899 156.07 284.295 161.336 286.406C166.562 288.517 164.823 287.803 164.823 293.388C164.823 299.007 165.509 305.64 164.466 311.575C163.41 317.543 163.41 317.543 162.014 321.034C160.622 324.525 170.064 324.525 159.936 336.744C149.783 348.996 127.743 370.359 127.743 370.359C127.743 370.359 134.384 357.408 136.496 349.362C138.591 341.316 141.733 331.191 147.676 325.905C153.63 320.668 158.524 314.052 157.819 309.829C157.127 305.64 156.072 304.592 156.072 304.592L142.44 312.322L120.758 348.314C120.758 348.314 109.21 362.644 91.0207 339.22C72.8417 315.779 66.5457 308.448 62.6927 303.86C58.8377 299.355 50.4567 294.451 46.9577 278.375L44.1547 267.87C44.1547 267.87 43.1157 246.175 59.1917 271.029C75.2887 295.833 78.4267 299.69 83.6837 304.976C88.9207 310.196 99.0657 323.462 107.108 328.716C107.108 328.716 118.301 335.731 107.453 326.272C96.6177 316.829 88.2287 307.387 76.6727 293.389C65.1477 279.424 65.1477 274.869 60.2477 268.585C55.3517 262.268 42.7587 233.607 38.5717 221.355C38.5717 221.355 36.4547 208.438 43.8017 219.593C51.1457 230.814 60.9457 249.351 70.3887 261.237C79.8277 273.107 88.9207 286.406 100.114 294.802C111.304 303.214 116.555 309.465 116.555 309.465C116.555 309.465 125.312 313.671 113.064 302.848C100.814 292.009 86.1337 278.709 81.9257 273.456C77.7277 268.219 63.3917 246.89 59.8937 241.637C56.4027 236.4 49.0547 224.181 49.0547 224.181C49.0547 224.181 36.1087 196.169 48.3627 211.929C60.5987 227.673 59.8937 228.354 73.8877 242.003C87.8767 255.635 92.7647 251.429 101.871 264.745C110.954 277.995 116.554 286.772 120.397 290.263C124.254 293.754 127.743 295.516 120.757 287.453C113.754 279.423 101.522 259.457 87.8777 246.889C74.2307 234.304 67.5917 223.099 54.6457 211.545C41.7117 200.024 31.2137 186.392 24.2227 167.507L19.3267 153.177L21.4127 148.971L26.3257 156.668L35.2367 168.737L45.5607 179.21L64.4457 186.043L97.6697 189.517C97.6697 189.517 93.1167 191.263 100.459 198.278C107.811 205.26 113.064 208.785 116.202 215.767C119.361 222.766 119.706 226.606 122.841 229.05C126 231.494 125.644 229.416 128.442 239.191C131.235 248.983 139.283 259.124 135.449 271.725C135.449 271.725 132.284 280.12 133.33 278.707C134.385 277.327 139.283 269.962 139.283 269.962C139.283 269.962 143.487 256.313 145.233 247.569C146.985 238.844 148.739 217.165 148.739 217.165Z" fill="#918E8E"/>
<path fill-rule="evenodd" clip-rule="evenodd" d="M53.0645 199.859L51.1445 201.771L53.5965 207.373C53.5965 207.373 77.7265 220.639 80.8775 225.194L85.0685 231.162L87.8765 228.352L88.5665 231.843L85.4245 235.7L88.2275 244.428L95.5585 254.586L116.2 280.819C116.2 280.819 119.704 289.564 121.094 283.612C122.501 277.677 126.345 273.82 126.345 273.82V269.265C126.345 269.265 125.309 254.585 121.789 248.983C121.789 248.983 128.797 259.124 130.187 264.377L132.281 266.804L134.383 263.679L129.146 253.887L128.086 248.983C128.086 248.983 122.155 230.48 116.902 223.814L109.207 211.229H106.408L104.309 207.705L99.4125 202.834L93.8265 196.533L85.7765 191.263C85.7765 191.263 66.1965 183.566 55.6925 182.901L52.8935 187.074L56.0475 190.931L52.5505 194.073L53.0645 199.859Z" fill="#918E8E"/>
<path fill-rule="evenodd" clip-rule="evenodd" d="M11.6327 96.1721L14.7787 108.757L15.1277 111.201L18.2697 118.549C18.2697 118.549 18.9847 122.04 20.3667 123.786L24.9157 132.88C24.9157 132.88 29.4747 139.879 31.9207 142.655C34.3627 145.481 36.1077 147.925 36.1077 147.925C36.1077 147.925 39.6107 152.829 42.4037 155.256C45.2007 157.717 48.7007 161.208 51.8507 162.604C54.9947 163.984 57.8047 166.095 61.6447 167.508C65.4957 168.905 73.8867 172.379 81.2267 172.761C88.5667 173.077 105.351 172.761 115.153 167.508L124.945 162.238C124.945 162.238 129.488 159.096 126.697 159.428C126.697 159.428 129.488 157.001 131.94 154.89C134.384 152.828 137.892 148.622 136.838 143.718C136.838 143.718 136.495 141.291 136.495 139.163C136.495 137.068 136.495 134.641 135.092 132.53C133.693 130.435 130.188 128.69 129.839 125.531C129.488 122.389 130.884 120.627 128.798 117.119C126.697 113.644 124.253 110.835 124.253 110.835C124.253 110.835 121.443 109.106 124.253 107.693C127.052 106.296 131.584 103.853 131.584 107.693C131.584 111.55 132.282 117.501 133.693 117.501C135.092 117.501 137.18 123.785 137.18 123.785C137.18 123.785 136.145 128.689 139.645 128.689C143.138 128.689 144.179 129.387 144.884 131.831C145.576 134.275 147.675 138.481 147.675 138.481C147.675 138.481 151.532 145.114 149.782 149.32L148.739 154.889C148.739 154.889 150.47 159.095 146.985 158.746L144.18 161.556C144.18 161.556 143.139 163.285 144.535 164.698C145.929 166.095 148.032 166.776 144.18 169.253C140.335 171.697 138.933 171.697 137.534 174.855C136.146 177.997 139.98 177.997 131.94 181.471C123.902 184.962 116.201 189.517 116.201 189.517C116.201 189.517 111.303 191.263 101.871 191.263C92.4157 191.263 82.6397 191.629 82.6397 191.629C82.6397 191.629 80.8777 190.249 76.6717 189.518C72.4987 188.836 67.2457 188.487 63.3907 187.074C59.5407 185.694 58.1477 185.694 58.1477 185.694C58.1477 185.694 51.1447 184.281 46.9547 181.837C42.7567 179.41 39.2617 177.299 39.2617 177.299C39.2617 177.299 35.7747 173.808 37.8607 174.157L34.7127 170.998C34.7127 170.998 29.8187 166.46 27.7197 163.633C25.6127 160.857 22.4707 153.858 22.4707 153.858C22.4707 153.858 21.7727 161.904 18.9837 152.461C16.1827 143.035 15.1267 140.575 13.0277 136.036C10.9287 131.464 13.3727 134.639 10.2307 125.529C7.08872 116.435 6.03471 111.897 6.03471 111.897C6.03471 111.897 7.78672 109.786 6.38972 108.04C4.98472 106.294 5.67872 101.756 5.67872 101.756C5.67872 101.756 5.33372 98.265 8.47572 97.218C11.6327 96.172 11.6327 96.1721 11.6327 96.1721Z" fill="#918E8E"/>
<path fill-rule="evenodd" clip-rule="evenodd" d="M44.7114 127.144L45.7294 129.388C45.7294 129.388 46.5944 131.666 47.4704 131.666C48.3454 131.666 48.8604 131.832 48.8604 133.744C48.8604 135.689 48.5174 137.285 50.2574 137.784C52.0134 138.299 53.4154 139.014 53.4154 139.014C53.4154 139.014 54.9884 140.577 53.9454 141.99C52.8774 143.386 52.5324 143.918 53.5794 145.813C54.6284 147.725 54.1074 150.002 56.2144 150.351C58.3134 150.717 58.6524 152.645 59.7094 154.557C60.7564 156.469 63.3714 162.437 65.1334 162.437C66.8794 162.437 68.6324 163.501 68.6324 163.501C68.6324 163.501 70.7184 163.817 71.4194 163.501C72.1174 163.119 75.6194 163.501 77.0154 164.499C78.4164 165.596 82.0894 164.881 82.0894 164.881C82.0894 164.881 86.1084 166.277 85.5824 162.603C85.0564 158.912 84.1844 159.428 85.2394 156.668C86.2804 153.858 87.1594 150.899 88.7344 149.137C90.3094 147.391 90.1354 147.042 91.3614 145.995C92.5874 144.948 98.1774 142.487 95.7234 139.877C93.2854 137.283 91.3614 135.688 92.0494 132.529C92.7624 129.387 93.1034 129.719 92.5874 128.506C92.0494 127.292 91.3614 123.103 92.7624 122.205C94.1504 121.357 99.7614 118.016 99.7614 118.016C99.7614 118.016 99.7614 116.985 99.7614 116.071C99.7614 115.223 101.332 113.278 102.196 112.264C103.069 111.2 104.997 107.875 105.338 104.916L107.441 103.337C107.441 103.337 110.595 101.059 110.768 98.4161V96.6701C110.768 96.6701 111.547 95.0571 109.764 95.3731L107.1 97.8831L106.755 99.3131L104.827 102.438L102.554 104.017C102.554 104.017 102.373 106.128 100.983 107.691C99.5784 109.27 97.1304 112.046 97.1304 112.046C97.1304 112.046 94.5084 111.714 93.8054 113.642C93.1034 115.554 91.1834 114.523 91.5324 115.554C91.8814 116.618 92.7624 117.865 91.3624 118.014C89.9534 118.197 88.7354 117.332 87.6844 119.078C86.6304 120.807 86.1094 122.386 86.1094 122.386C86.1094 122.386 85.0584 123.267 84.0044 122.918C82.9574 122.552 81.2174 123.783 81.2174 123.783C81.2174 123.783 79.4714 123.949 79.2974 122.736C79.1144 121.506 78.9444 120.625 77.1944 120.109C75.4424 119.594 76.3304 118.713 74.0464 118.895C71.7834 119.078 67.7564 118.546 67.9224 120.624C68.1014 122.735 68.1014 122.386 66.1814 122.552C64.2524 122.735 57.9604 126.06 53.0604 125.711C48.1624 125.345 45.7284 126.941 45.7284 126.941L44.7114 127.144Z" fill="#918E8E"/>
<path fill-rule="evenodd" clip-rule="evenodd" d="M109.766 95.3741L107.102 97.8841L106.757 99.3141L104.829 102.439L102.556 104.018C102.556 104.018 102.375 106.129 100.985 107.692C99.5804 109.271 97.1324 112.047 97.1324 112.047C97.1324 112.047 94.5104 111.715 93.8074 113.643C93.1054 115.555 91.1854 114.524 91.5344 115.555C91.8834 116.619 92.7644 117.866 91.3644 118.015C89.9554 118.198 88.7374 117.333 87.6864 119.079C86.6324 120.808 86.1114 122.387 86.1114 122.387C86.1114 122.387 85.0604 123.268 84.0064 122.919C82.9594 122.553 81.2194 123.784 81.2194 123.784C81.2194 123.784 79.4734 123.95 79.2994 122.737C79.1164 121.507 78.9464 120.626 77.1964 120.11C75.4444 119.595 76.3324 118.714 74.0484 118.896C71.7854 119.079 67.7584 118.547 67.9244 120.625C68.1034 122.736 68.1034 122.387 66.1834 122.553C64.2544 122.736 57.9624 126.061 53.0624 125.712C48.1644 125.346 45.7304 126.942 45.7304 126.942L44.7124 127.142L42.5784 124.465C42.5784 124.465 42.0524 120.808 41.3374 118.713C40.6394 116.618 42.5784 114.008 42.5784 114.008L43.4594 111.548C43.4594 111.548 41.8784 111.382 41.5144 110.517C41.1654 109.619 39.4174 107.691 38.3614 107.691C37.3224 107.691 36.7984 108.04 35.5724 105.962C34.3424 103.851 32.9584 105.779 32.9584 105.779C32.9584 105.779 32.4304 106.477 28.5864 106.66C24.7334 106.826 24.3884 104.549 24.3884 104.549C24.3884 104.549 21.4124 100.692 20.5334 98.2651C19.6694 95.7881 21.2384 90.3851 21.9364 88.1071C22.6384 85.8291 22.8174 80.4101 23.1584 77.9661C23.5164 75.5221 23.3324 74.4751 23.6864 71.8481C24.0354 69.2381 27.8754 62.5711 27.8754 62.5711C27.8754 62.5711 30.6724 58.216 31.3834 56.304C32.0774 54.376 35.5724 53.3121 35.5724 53.3121L39.7664 50.8681L41.6864 50.1531L42.2224 53.6611L41.6864 55.4071C41.6864 55.4071 39.4174 61.1921 42.4054 65.0321C45.3774 68.8561 49.7414 71.1501 49.7414 71.1501C49.7414 71.1501 50.2594 72.3801 51.6614 73.9601C53.0624 75.5231 53.4174 76.0381 56.3934 77.2681C59.3674 78.4981 64.7784 80.0611 64.7784 80.0611C64.7784 80.0611 69.3254 79.5461 70.3804 81.6571C71.4214 83.7351 72.6494 84.9821 72.6494 84.9821L75.4444 85.3141C75.4444 85.3141 76.8474 86.0121 76.6724 87.2431C76.5024 88.4571 76.3314 89.3541 77.9024 89.5211C79.4734 89.6881 84.4274 89.9701 88.2114 93.0121C91.8834 95.9881 93.1054 91.6161 93.1054 91.6161L93.1654 91.5331C93.5704 92.1651 93.8864 92.747 94.1524 93.179C95.1994 94.925 93.9944 95.9891 96.9534 95.4571C99.9314 94.9251 100.629 96.3211 102.375 96.8701C104.131 97.4021 105.872 96.6711 108.857 95.6401C109.223 95.5071 109.522 95.4241 109.788 95.3741H109.766Z" fill="#918E8E"/>
<path fill-rule="evenodd" clip-rule="evenodd" d="M41.9458 127.842L42.9408 130.086C42.9408 130.086 43.8238 132.347 44.6888 132.347C45.5678 132.347 46.0958 132.53 46.0958 134.458C46.0958 136.386 45.7368 137.949 47.4928 138.481C49.2388 139.013 50.6348 139.711 50.6348 139.711C50.6348 139.711 52.2098 141.29 51.1668 142.654C50.1088 144.084 49.7658 144.599 50.8048 146.511C51.8648 148.456 51.3388 150.717 53.4338 151.066C55.5348 151.432 55.8878 153.344 56.9308 155.255C57.9868 157.167 60.6128 163.118 62.3548 163.118C64.1128 163.118 65.8458 164.182 65.8458 164.182C65.8458 164.182 67.9568 164.498 68.6558 164.182C69.3418 163.816 72.8498 164.182 74.2538 165.246C75.6378 166.277 79.3158 165.595 79.3158 165.595C79.3158 165.595 83.3478 166.975 82.8068 163.284C82.2868 159.626 81.4128 160.158 82.4598 157.349C83.5238 154.556 84.3988 151.597 85.9678 149.835C87.5408 148.106 87.3618 147.724 88.5928 146.693C89.8088 145.662 95.3948 143.202 92.9568 140.575C90.5128 137.948 88.5928 136.386 89.2868 133.227C89.9888 130.085 90.3378 130.434 89.8088 129.221C89.2868 127.974 88.5928 123.785 89.9898 122.92C91.3858 122.039 96.9848 118.714 96.9848 118.714C96.9848 118.714 96.9848 117.667 96.9848 116.785C96.9848 115.921 98.5538 114.009 99.4348 112.945C100.297 111.898 102.228 108.556 102.567 105.597L104.678 104.018C104.678 104.018 107.82 101.757 107.991 99.1301V97.4011C107.991 97.4011 108.801 95.772 107.006 96.054L104.334 98.598L103.968 99.9951L102.052 103.137L99.7678 104.716C99.7678 104.716 99.6078 106.827 98.2108 108.39C96.8078 109.986 94.3578 112.762 94.3578 112.762C94.3578 112.762 91.7358 112.429 91.0388 114.341C90.3388 116.253 88.4268 115.222 88.7718 116.253C89.1168 117.334 89.9898 118.547 88.5928 118.714C87.1878 118.897 85.9678 118.016 84.9188 119.761C83.8728 121.507 83.3478 123.103 83.3478 123.103C83.3478 123.103 82.2878 123.951 81.2368 123.618C80.1938 123.269 78.4548 124.466 78.4548 124.466C78.4548 124.466 76.6908 124.665 76.5158 123.419C76.3498 122.205 76.1668 121.357 74.4258 120.809C72.6678 120.294 73.5508 119.396 71.2798 119.595C68.9958 119.761 64.9728 119.229 65.1708 121.357C65.3288 123.419 65.3288 123.103 63.4108 123.269C61.4888 123.419 55.1918 126.743 50.3048 126.411C45.4008 126.062 42.9438 127.641 42.9438 127.641L41.9458 127.842Z" fill="#918E8E"/>
<path fill-rule="evenodd" clip-rule="evenodd" d="M107.004 96.0561L104.332 98.6001L103.966 99.9971L102.05 103.139L99.7656 104.718C99.7656 104.718 99.6056 106.829 98.2086 108.392C96.8056 109.988 94.3556 112.764 94.3556 112.764C94.3556 112.764 91.7336 112.431 91.0366 114.343C90.3366 116.255 88.4246 115.224 88.7696 116.255C89.1146 117.336 89.9876 118.549 88.5906 118.716C87.1856 118.899 85.9656 118.018 84.9166 119.763C83.8706 121.509 83.3456 123.105 83.3456 123.105C83.3456 123.105 82.2856 123.953 81.2346 123.62C80.1916 123.271 78.4526 124.468 78.4526 124.468C78.4526 124.468 76.6886 124.667 76.5136 123.421C76.3476 122.207 76.1646 121.359 74.4236 120.811C72.6656 120.296 73.5486 119.398 71.2776 119.597C68.9936 119.763 64.9706 119.231 65.1686 121.359C65.3266 123.421 65.3266 123.105 63.4086 123.271C61.4866 123.421 55.1896 126.745 50.3026 126.413C45.3986 126.064 42.9416 127.643 42.9416 127.643L41.9466 127.842L39.7996 125.182C39.7996 125.182 39.2696 121.508 38.5716 119.397C37.8796 117.335 39.7996 114.709 39.7996 114.709L40.6726 112.265C40.6726 112.265 39.0976 112.049 38.7436 111.201C38.4046 110.32 36.6536 108.391 35.5956 108.391C34.5466 108.391 34.0266 108.757 32.8006 106.662C31.5826 104.551 30.1866 106.479 30.1866 106.479C30.1866 106.479 29.6586 107.161 25.8036 107.343C21.9526 107.509 21.6076 105.232 21.6076 105.232C21.6076 105.232 18.6356 101.408 17.7676 98.9481C16.9036 96.5041 18.4656 91.0851 19.1536 88.8241C19.8626 86.5461 20.0346 81.1271 20.3816 78.6501C20.7326 76.2231 20.5646 75.1761 20.9096 72.5661C21.2546 69.9231 25.1196 63.2561 25.1196 63.2561C25.1196 63.2561 27.9086 58.9171 28.6126 56.9881C29.3046 55.0601 32.7996 54.0121 32.7996 54.0121L37.0056 51.5681L38.9196 50.8701L39.4416 54.3781L38.9196 56.1241C38.9196 56.1241 36.6526 61.8761 39.6176 65.7161C42.5876 69.5731 46.9656 71.8501 46.9656 71.8501C46.9656 71.8501 47.4916 73.0801 48.8916 74.6261C50.3006 76.2221 50.6326 76.7371 53.5986 77.9671C56.5886 79.1971 61.9996 80.7601 61.9996 80.7601C61.9996 80.7601 66.5486 80.2451 67.5936 82.3391C68.6536 84.4501 69.8736 85.6641 69.8736 85.6641L72.6646 86.0131C72.6646 86.0131 74.0776 86.6951 73.8866 87.9411C73.7246 89.1551 73.5476 90.0191 75.1086 90.2191C76.6876 90.3851 81.6546 90.6681 85.4446 93.7101C89.1146 96.6691 90.3366 92.33 90.3366 92.33L90.3866 92.2471C90.7976 92.8791 91.1266 93.4441 91.3836 93.8931C92.4396 95.6391 91.2136 96.6691 94.1786 96.1711C97.1606 95.6391 97.8426 97.0361 99.6046 97.5681C101.351 98.0671 103.09 97.4021 106.076 96.3211C106.431 96.2051 106.758 96.1221 107.013 96.0551H107.004V96.0561Z" fill="#918E8E"/>
<path fill-rule="evenodd" clip-rule="evenodd" d="M43.1426 126.096L44.1546 128.324C44.1546 128.324 45.0356 130.602 45.9026 130.602C46.7736 130.602 47.2966 130.785 47.2966 132.713C47.2966 134.641 46.9556 136.204 48.7016 136.736C50.4556 137.285 51.8516 137.95 51.8516 137.95C51.8516 137.95 53.4166 139.529 52.3796 140.926C51.3216 142.322 50.9706 142.871 52.0346 144.766C53.0656 146.695 52.5526 148.972 54.6446 149.321C56.7516 149.67 57.0906 151.599 58.1486 153.51C59.1916 155.422 61.8226 161.373 63.5746 161.373C65.3136 161.373 67.0636 162.437 67.0636 162.437C67.0636 162.437 69.1746 162.77 69.8586 162.437C70.5716 162.071 74.0546 162.437 75.4546 163.501C76.8506 164.499 80.5246 163.817 80.5246 163.817C80.5246 163.817 84.5516 165.247 84.0216 161.556C83.4956 157.899 82.6396 158.414 83.6826 155.604C84.7196 152.828 85.6106 149.835 87.1776 148.106C88.7566 146.36 88.5656 145.995 89.7896 144.947C91.0176 143.916 96.6156 141.439 94.1616 138.813C91.7326 136.203 89.7896 134.64 90.4876 131.465C91.1926 128.323 91.5326 128.689 91.0176 127.442C90.4876 126.228 89.7896 122.039 91.1926 121.158C92.5996 120.293 98.1826 116.985 98.1826 116.985C98.1826 116.985 98.1826 115.921 98.1826 115.04C98.1826 114.175 99.7636 112.264 100.644 111.2C101.521 110.153 103.437 106.828 103.786 103.852L105.883 102.289C105.883 102.289 109.04 99.995 109.208 97.401V95.639C109.208 95.639 110.006 94.01 108.21 94.326L105.533 96.87L105.182 98.267L103.266 101.409L100.984 102.972C100.984 102.972 100.812 105.067 99.4126 106.663C98.0116 108.209 95.5576 111.002 95.5576 111.002C95.5576 111.002 92.9306 110.669 92.2436 112.598C91.5326 114.526 89.6236 113.479 89.9866 114.526C90.3186 115.557 91.1916 116.787 89.7896 116.987C88.3996 117.12 87.1776 116.255 86.1316 118.018C85.0676 119.764 84.5506 121.359 84.5506 121.359C84.5506 121.359 83.4946 122.207 82.4516 121.891C81.3936 121.509 79.6546 122.739 79.6546 122.739C79.6546 122.739 77.9086 122.922 77.7256 121.692C77.5536 120.462 77.3706 119.597 75.6346 119.082C73.8846 118.55 74.7576 117.669 72.4966 117.868C70.2146 118.018 66.1956 117.502 66.3706 119.597C66.5406 121.692 66.5406 121.359 64.6086 121.509C62.6886 121.692 56.4006 125 51.4956 124.668C46.6076 124.319 44.1516 125.898 44.1516 125.898L43.1426 126.096Z" fill="#918E8E"/>
<path fill-rule="evenodd" clip-rule="evenodd" d="M109.65 137.168L109.384 140.576L106.757 141.806L106.063 143.037L107.809 147.392L109.384 149.138L108.15 152.829L109.207 154.724L111.832 154.89L113.752 150.717L115.153 149.487L117.077 142.654L116.021 137.069L112.526 133.045L110.598 133.744L109.65 137.168Z" fill="#918E8E" stroke="#918E8E" stroke-width="0.2218" stroke-miterlimit="2.6131"/>
<path fill-rule="evenodd" clip-rule="evenodd" d="M36.2766 50.87C37.6876 48.942 35.2355 48.2431 35.2355 48.2431C32.7915 48.2431 35.4186 45.8161 35.4186 45.8161C35.4186 45.8161 37.6876 42.275 40.1316 39.848C42.5876 37.387 42.5876 39 41.7106 36.689C40.8416 34.428 41.8846 34.777 43.1156 33.547C44.3296 32.333 44.5036 29.358 48.8846 28.826C53.2446 28.311 48.8845 28.826 51.4985 26.731C54.1125 24.636 55.1686 25.152 55.6946 27.429C56.2246 29.69 58.3216 25.8661 59.3746 26.5481C60.4156 27.2631 60.7756 27.9781 62.6916 26.1991C64.6116 24.4701 64.7946 22.176 63.2256 22.375C61.6466 22.508 60.7756 20.979 65.6596 16.773C70.5726 12.567 71.0956 15.21 70.7466 19.034C70.3896 22.874 73.5316 18.352 79.1356 16.956C84.7216 15.543 81.5735 15.5431 82.9815 12.5671C84.3825 9.59105 87.1796 10.6551 90.1466 9.94005C93.1166 9.24205 93.9956 10.8041 95.2276 12.0351C96.4416 13.2651 96.2745 14.1461 98.5415 14.3131C100.813 14.4961 104.138 14.1471 101.343 12.4011C98.5416 10.6551 95.7316 9.42505 105.183 10.489C114.634 11.52 103.267 7.31405 108.51 6.98105C113.753 6.64905 112.012 7.84605 114.106 9.59105C116.201 11.3531 116.022 11.52 123.719 11.702C131.424 11.868 137.891 18.352 139.98 22.508C142.089 26.731 140.153 29.208 141.915 32.499C143.652 35.824 144.346 38.268 145.93 42.806C147.511 47.361 144.536 49.123 144.536 49.123L141.56 54.692C141.56 54.692 138.59 59.979 137.364 62.572C136.146 65.215 135.093 71.15 135.093 71.15C135.093 71.15 134.222 73.594 133.694 75.173C133.158 76.736 132.464 77.634 132.464 77.634L129.314 79.3801L129.173 79.4801C128.6 78.5161 128.159 77.618 127.926 77.452C127.394 77.086 126.525 76.388 125.312 76.222C124.071 76.039 122.685 74.1271 122.685 74.1271L119.015 71.317C119.015 71.317 116.38 70.453 112.706 67.826C109.04 65.216 106.227 66.779 106.227 66.779C106.227 66.779 105.013 65.5491 103.954 65.5491C102.909 65.5491 103.085 67.494 104.669 68.541C106.228 69.572 105.885 71.151 107.811 71.5C109.739 71.849 110.433 73.0791 111.651 74.4761C112.873 75.8721 114.107 74.476 116.023 73.246C117.96 72.032 119.705 73.7781 119.705 73.7781C119.705 73.7781 122.003 75.307 123.869 76.089L123.852 76.039L120.569 77.9671C120.569 77.9671 119.526 79.197 115.503 80.245C111.492 81.292 112.012 84.451 112.012 84.451L110.079 85.149L108.15 84.6171C108.15 84.6171 103.786 85.8311 102.209 86.1961C100.644 86.5451 97.8305 86.3621 95.5585 86.1961C93.2975 86.0131 92.5996 88.108 92.5996 88.108L92.5726 88.042C92.1986 87.493 91.6495 86.878 90.8475 86.197C88.7565 84.451 88.9186 81.442 88.9186 80.063C88.9186 78.65 88.7566 78.3171 86.2986 76.3891C83.8526 74.4771 83.4956 71.668 83.1506 70.97C82.8056 70.272 82.6396 69.058 80.3406 65.55C78.0856 62.059 79.6546 66.9631 79.6546 66.9631C79.6546 66.9631 81.0556 70.4541 81.9236 71.8511C82.8046 73.2481 83.3325 74.478 82.8045 75.874C82.2845 77.271 82.8045 77.4531 84.1925 77.0881C85.6095 76.7391 85.9465 78.1521 85.9465 78.1521C85.9465 78.1521 85.9466 78.85 87.5216 81.128C89.1006 83.406 87.3446 83.7381 87.3446 83.7381C87.3446 83.7381 87.1765 84.4531 85.2395 85.4841C83.3315 86.5481 85.9456 86.698 85.9456 86.698C88.5636 86.449 90.4136 88.6601 91.6006 90.5051L91.5316 90.572C91.5316 90.572 90.3175 94.928 86.6455 91.968C82.8695 88.926 77.9076 88.643 76.3276 88.46C74.7566 88.294 74.9246 87.4131 75.1056 86.1991C75.2846 84.9851 73.8836 84.271 73.8836 84.271L71.0906 83.938C71.0906 83.938 69.8536 82.675 68.8066 80.597C67.7656 78.502 63.2206 79.0181 63.2206 79.0181C63.2206 79.0181 57.8006 77.4551 54.8186 76.2251C51.8466 74.9951 51.4936 74.479 50.1036 72.9C48.6966 71.321 48.1746 70.107 48.1746 70.107C48.1746 70.107 43.7966 67.8291 40.8366 63.9891C37.8566 60.1321 40.1256 54.3801 40.1256 54.3801L40.6656 52.6341L40.1256 49.1261L38.2216 49.8081L36.2766 50.87Z" fill="#918E8E"/>
<path fill-rule="evenodd" clip-rule="evenodd" d="M62.6904 424.223L65.8454 417.906C65.8454 417.906 68.2844 414.415 70.0344 412.669C71.7844 410.907 74.5894 406.717 74.5894 406.717L76.6714 402.86C76.6714 402.86 78.7824 395.529 81.9244 392.719C85.0684 389.926 92.0734 382.245 96.9694 375.928C96.9694 375.928 99.7644 367.2 106.757 358.456C113.752 349.745 121.79 337.808 124.252 333.619C126.696 329.413 129.146 324.525 129.146 324.525C129.146 324.525 137.533 314.051 138.932 309.147C140.335 304.226 141.386 300.053 141.386 300.053L142.437 292.688L149.781 284.675C149.781 284.675 152.225 283.96 150.828 286.404C149.427 288.848 147.673 291.641 147.673 291.641C147.673 291.641 146.272 296.545 145.574 298.64C144.882 300.735 145.574 300.735 146.626 301.433C147.673 302.115 148.388 302.846 149.072 301.101C149.781 299.355 150.13 299.355 151.875 300.735C153.627 302.115 155.715 304.226 155.715 304.226C155.715 304.226 157.467 304.974 153.267 309.147C149.072 313.303 143.833 319.986 141.385 326.636C138.931 333.302 132.636 345.156 128.085 350.426C123.542 355.663 125.641 355.995 115.5 366.153C105.349 376.294 110.951 369.644 101.868 380.151C92.7624 390.624 89.6224 392.021 86.1314 396.21C82.6384 400.416 78.0854 405.669 78.0854 405.669C78.0854 405.669 73.8854 411.271 69.3384 416.841L62.6904 424.223Z" fill="#918E8E"/>
<path fill-rule="evenodd" clip-rule="evenodd" d="M79.4817 64.669L78.9617 63.256C78.9617 63.256 77.9107 61.544 79.8267 61.194C81.7507 60.828 83.8537 59.432 83.8537 59.432C83.8537 59.432 87.3467 56.988 85.2417 55.758C83.1517 54.544 81.2267 54.378 81.2267 54.378L78.4257 54.544C78.4257 54.544 76.5137 55.059 75.2877 53.846C74.0537 52.632 71.4427 52.084 72.3117 50.87C73.1887 49.64 74.5897 47.529 74.5897 47.529C74.5897 47.529 75.4547 42.808 73.0147 47.014C70.5707 51.22 70.3877 51.569 68.6427 51.054C66.8927 50.522 66.0157 49.807 66.7167 48.943C67.4217 48.062 67.0637 47.014 67.0637 47.014L65.8457 45.618L64.7937 42.127C64.7937 42.127 64.7937 39.849 63.3907 39.001C62.0007 38.103 59.3737 34.23 60.5977 39.849C61.8217 45.451 63.2247 45.817 63.2247 45.817L64.2697 47.879L62.6907 48.062L61.3067 48.777L60.4147 51.055H58.8357L57.0897 51.737V50.673L58.4927 49.31C58.4927 49.31 58.8357 46.667 58.8357 46.135C58.8357 45.62 59.3737 43.525 58.1477 41.962C56.9217 40.366 55.8657 41.081 55.8657 40.216C55.8657 39.335 56.0487 38.47 54.9947 39.85C53.9457 41.246 53.9457 43.324 53.0647 41.961C52.1957 40.565 51.6807 38.786 50.4547 39.151L48.1937 39.45V41.312L46.5647 41.561L47.4787 44.138L46.3167 48.078L44.4647 48.776L44.2217 51.353L47.0247 57.188L49.3527 59.499L52.8557 59.981L54.0197 62.076L55.6597 63.955L60.5457 64.42L64.0457 66.033L65.9017 65.351L69.6407 66.033L71.2777 67.679L73.5967 66.981L75.2257 65.352L78.2537 65.119L79.4817 64.669Z" fill="#918E8E"/>
<path fill-rule="evenodd" clip-rule="evenodd" d="M96.2747 45.617C96.6177 44.736 95.7328 44.054 94.5188 43.173C93.2988 42.275 94.1637 41.427 94.1637 41.427C94.1637 41.427 92.7658 40.895 91.0198 40.895C89.2768 40.895 89.6257 39 89.7917 38.102C89.9887 37.221 88.7587 36.5231 88.7587 36.5231C88.7587 36.5231 86.8217 36.174 86.3007 36.008C85.7787 35.825 84.7218 36.357 84.7218 36.357C84.7218 36.357 84.3828 39 85.6128 40.729C86.8228 42.475 82.6407 41.244 82.6407 41.244H80.3428C80.3428 41.244 79.4827 42.125 78.4267 43.173C77.3727 44.22 79.1358 45.268 79.1358 45.268L84.0897 45.052L86.1987 46.914L89.2327 47.629L90.1637 46.449L93.6547 50.422L96.6847 50.655L98.7797 47.845L96.2747 45.617Z" fill="#918E8E"/>
<path fill-rule="evenodd" clip-rule="evenodd" d="M113.404 48.942C112.872 48.061 111.492 48.061 110.432 47.728C109.385 47.362 108.337 45.982 108.682 45.45C109.04 44.918 109.384 44.22 108.859 43.322C108.337 42.474 108.682 42.275 109.913 40.03C111.135 37.736 106.759 38.268 105.013 38.101C103.267 37.918 102.386 39.847 102.386 39.847L100.645 42.125L100.813 43.704L105.318 46.447L105.075 48.775L106.708 51.817L109.746 53.662L112.772 52.748L113.404 48.942Z" fill="#918E8E"/>
<path d="M79.4816 64.669L78.9616 63.256C78.9616 63.256 77.9106 61.544 79.8266 61.194C81.7506 60.828 83.8536 59.432 83.8536 59.432C83.8536 59.432 87.3466 56.988 85.2416 55.758C83.1516 54.544 81.2266 54.378 81.2266 54.378L78.4256 54.544C78.4256 54.544 76.5136 55.059 75.2876 53.846C74.0536 52.632 71.4426 52.084 72.3116 50.87C73.1886 49.64 74.5896 47.529 74.5896 47.529C74.5896 47.529 75.4546 42.808 73.0146 47.014C70.5706 51.22 70.3876 51.569 68.6426 51.054C66.8926 50.522 66.0156 49.807 66.7166 48.943C67.4216 48.062 67.0636 47.014 67.0636 47.014L65.8456 45.618L64.7936 42.127C64.7936 42.127 64.7936 39.849 63.3906 39.001C62.0006 38.103 59.3736 34.23 60.5976 39.849C61.8216 45.451 63.2246 45.817 63.2246 45.817L64.2696 47.879L62.6906 48.062L61.3066 48.777L60.4146 51.055H58.8356L57.0896 51.737V50.673L58.4926 49.31C58.4926 49.31 58.8356 46.667 58.8356 46.135C58.8356 45.62 59.3736 43.525 58.1476 41.962C56.9216 40.366 55.8656 41.081 55.8656 40.216C55.8656 39.335 56.0486 38.47 54.9946 39.85C53.9456 41.246 53.9456 43.324 53.0646 41.961C52.1956 40.565 51.6806 38.786 50.4546 39.151" stroke="#918E8E" stroke-width="0.2218" stroke-miterlimit="2.6131" stroke-linecap="round" stroke-linejoin="round"/>
<path d="M100.813 43.705L100.645 42.126L102.386 39.848C102.386 39.848 103.267 37.919 105.013 38.102C106.759 38.268 111.135 37.736 109.913 40.031C108.683 42.275 108.338 42.475 108.859 43.323C109.385 44.221 109.04 44.919 108.682 45.451C108.337 45.983 109.384 47.363 110.432 47.729C111.492 48.061 112.872 48.061 113.404 48.943" stroke="#918E8E" stroke-width="0.2218" stroke-miterlimit="2.6131" stroke-linecap="round" stroke-linejoin="round"/>
<path fill-rule="evenodd" clip-rule="evenodd" d="M153.269 187.441C153.269 187.441 154.327 213.292 152.571 222.768L150.131 221.355C150.131 221.355 146.628 266.125 134.051 279.757C134.051 279.757 145.231 262.617 125.999 228.354L119.36 215.42L116.904 211.929L119.015 211.547L116.904 207.374L112.706 205.263L110.599 198.63C110.599 198.63 113.753 200.392 113.404 198.281C113.063 196.17 112.35 193.044 109.913 193.743L108.51 195.489L105.711 196.536L104.31 193.743C104.31 193.743 105.351 191.266 115.153 190.568L116.2 192.679L121.094 190.568L119.704 189.188L122.156 188.141L125.31 193.394C125.31 193.394 128.086 191.998 127.741 189.87L128.086 187.792L131.232 186.728L131.583 190.252V192.679L135.091 193.394L134.736 186.728L136.837 184.65L137.891 190.252L139.645 191.632L140.684 188.49L144.884 193.045C144.884 193.045 149.429 178.681 146.628 171.367L143.486 165.731L141.387 155.607L138.59 154.892L139.282 152.116L142.089 149.323L141.387 143.721L138.933 138.118L139.282 133.596L136.838 130.088L137.892 129.024L142.78 134.643C142.78 134.643 142.09 139.165 144.536 143.72C146.986 148.258 147.676 153.179 147.676 153.179L146.629 158.748L148.74 167.16C148.74 167.16 155.023 175.87 153.269 187.441Z" fill="#918E8E"/>
<path fill-rule="evenodd" clip-rule="evenodd" d="M55.1676 346.038L51.8506 341.666L53.5966 347.95L51.4976 345.157L50.4546 349.363L52.5516 352.854L50.7956 352.505C50.7956 352.505 49.7526 355.996 52.1966 360.901C54.6446 365.805 57.8056 372.089 57.8056 372.089L58.4936 369.645L60.5986 372.089L59.8946 376.644L61.6466 381.515L64.1046 387.832C64.1046 387.832 65.8456 393.784 65.8456 396.577L68.6426 394.831C68.6426 394.831 69.6896 386.07 68.9876 382.579C68.2856 379.104 67.5916 376.976 67.5916 376.976C67.5916 376.976 64.7946 374.532 64.1046 369.994C63.3916 365.456 62.3386 363.71 62.3386 363.71L60.9466 358.806L57.8066 357.06L55.1676 346.038Z" fill="#918E8E"/>
<path fill-rule="evenodd" clip-rule="evenodd" d="M55.6934 429.793C55.6934 429.793 70.0344 437.507 101.155 422.079L103.952 421.763L107.809 418.255H112.35L116.903 414.082C116.903 414.082 124.945 407.05 127.052 404.623C127.052 404.623 131.233 397.275 129.839 403.21C128.441 409.178 127.052 416.842 127.052 416.842C127.052 416.842 126.346 420.367 120.045 424.223C120.045 424.223 118.299 423.874 115.153 427.714C112.011 431.571 109.208 434.331 109.208 434.331C109.208 434.331 110.266 436.775 114.794 431.904C119.359 426.983 122.84 425.254 122.84 425.254C122.84 425.254 130.188 418.621 130.537 413.351C130.537 413.351 130.188 421.048 128.44 425.603C126.696 430.141 121.094 436.425 121.094 436.425C121.094 436.425 126.345 436.425 129.839 434.014C133.328 431.57 138.933 429.442 138.933 429.442L135.448 433.648L136.495 435.377L141.732 433.282L140.335 437.505C140.335 437.505 90.4884 450.257 55.6934 429.793Z" fill="#918E8E"/>
<path fill-rule="evenodd" clip-rule="evenodd" d="M165.864 175.87C165.864 175.87 157.491 171.864 153.975 182.902C151.531 190.566 157.468 195.836 157.468 195.836L169.371 198.629L173.571 191.63L169.371 189.868L161.657 188.837C161.657 188.837 160.969 189.186 160.62 186.044C160.62 186.044 168.317 183.268 171.455 186.044L171.815 181.838L164.107 180.442L162.012 181.157L163.766 179.411L168.662 179.045L172.862 180.442L165.864 175.87Z" fill="#918E8E"/>
<path fill-rule="evenodd" clip-rule="evenodd" d="M148.913 171.864C148.913 171.864 149.954 203.883 146.274 228.886L154.144 226.243C154.144 226.243 156.07 184.283 155.023 177.65L148.913 171.864Z" fill="#918E8E"/>
<path fill-rule="evenodd" clip-rule="evenodd" d="M157.292 257.713L155.023 264.047L158.522 264.38L154.326 288.17L149.781 293.057L145.23 294.803L149.781 278.71L150.13 269.616C150.13 269.616 152.225 262.268 148.389 262.268C148.389 262.268 144.883 260.556 142.088 270.331L142.778 262.983L146.627 232.56L152.225 235.353C152.225 235.353 151.182 207.008 158.172 224.863C165.163 242.684 162.71 244.43 160.62 258.444L157.292 257.713Z" fill="#918E8E"/>
<path fill-rule="evenodd" clip-rule="evenodd" d="M147.328 434.331C147.328 434.331 152.226 423.508 150.131 411.605L152.571 415.129C152.571 415.129 154.327 419.651 153.629 422.793C153.629 422.793 155.368 418.62 155.023 416.509C155.023 416.509 159.225 418.953 159.225 422.078C159.225 422.078 156.071 431.222 147.328 434.331Z" fill="#918E8E"/>
<path fill-rule="evenodd" clip-rule="evenodd" d="M60.9446 425.969L82.6396 400.783C82.6396 400.783 89.9876 392.022 94.8836 388.547C99.7646 385.056 99.7646 380.152 107.107 373.851C114.459 367.55 117.959 364.408 117.959 364.408C117.959 364.408 139.282 334.999 144.884 319.622L152.226 310.528C152.226 310.528 158.173 306.006 155.368 303.546C155.368 303.546 158.863 307.386 154.67 312.324C150.47 317.178 146.274 323.462 139.98 335.731C133.694 347.95 128.087 356.362 101.521 384.325C74.9276 412.304 71.0936 417.557 71.0936 417.557L57.4556 429.111L60.9446 425.969Z" fill="#918E8E"/>
<path fill-rule="evenodd" clip-rule="evenodd" d="M141.848 134.159L140.461 128.573L137.65 127.177L138.699 124.367L137.309 121.574L137.995 118.432L135.206 115.274L133.111 114.227L134.859 112.481H137.995L139.059 115.623L141.848 115.972L143.601 113.861L146.745 114.592L144.994 115.972L143.601 119.131H141.848L141.503 121.574V125.764L143.95 127.875L143.248 129.986L144.3 133.478V141.507L143.248 140.128L142.903 136.952L141.848 134.159Z" fill="#918E8E"/>
<path fill-rule="evenodd" clip-rule="evenodd" d="M144.18 138.814L141.034 132.53L141.387 138.116L142.78 140.926L144.18 148.622L143.486 154.557L144.536 158.065L145.576 155.256L146.275 157.001L145.232 159.811L146.275 163.285L148.739 168.206L149.074 173.443L150.47 179.411L151.532 177.649L151.877 180.442L150.132 183.268V187.441L151.877 185.695L152.226 192.678L154.327 190.932L154.67 184.282L155.023 177.998L153.629 173.809L149.783 161.905V158.414L149.429 154.557L147.675 152.829V150.351L144.18 138.814Z" fill="#918E8E"/>
<path fill-rule="evenodd" clip-rule="evenodd" d="M117.42 190.766C117.42 190.766 135.092 220.325 137.018 245.66C137.018 245.66 135.962 216.999 118.831 190.766H117.42Z" fill="#918E8E"/>
<path fill-rule="evenodd" clip-rule="evenodd" d="M121.443 187.79C121.443 187.79 137.18 210.682 140.86 254.753C140.86 254.753 139.979 214.023 122.839 187.79H121.443Z" fill="#918E8E"/>
<path fill-rule="evenodd" clip-rule="evenodd" d="M123.901 186.726C123.901 186.726 135.091 199.859 141.203 235.868C141.203 235.868 139.281 207.008 125.31 186.726H123.901Z" fill="#918E8E"/>
<path fill-rule="evenodd" clip-rule="evenodd" d="M131.911 186.044C131.911 186.044 140.373 195.985 145.011 223.233C145.011 223.233 143.544 201.388 132.962 186.044H131.911Z" fill="#918E8E"/>
<path fill-rule="evenodd" clip-rule="evenodd" d="M128.232 186.044C128.232 186.044 139.979 201.106 143.261 230.581C143.261 230.581 140.759 200.324 129.296 186.044H128.232Z" fill="#918E8E"/>
<path fill-rule="evenodd" clip-rule="evenodd" d="M11.9716 111.201L9.5426 108.757L7.0896 109.788L6.3916 112.597L9.8866 123.786V118.898H11.6326L12.3376 130.784L14.4296 134.641L14.0726 138.116L17.2246 146.511L20.0276 147.924L21.0796 151.432L22.4716 156.669L25.6136 157.35L26.6656 160.16L27.7206 163.285L31.9206 167.508L32.2596 170.65L35.4176 173.077L37.1676 172.379L39.6116 174.158L37.8616 175.554L40.3156 178.68L43.8006 177.3L45.5596 181.157L49.0546 183.268L49.4156 181.838L56.0486 186.393L59.1906 186.044L60.2466 185.695L70.0346 187.441L65.8456 185.329L77.0296 187.075L72.1356 187.79L77.0296 188.837L81.5716 188.139L90.6716 192.312L88.5666 189.519L92.0746 189.186L96.9706 190.932H99.0646V188.837L103.267 190.25L109.913 185.861L114.106 187.274L115.503 185.18L126.172 179.212L131.234 171.515L130.189 175.022L134.737 169.42L133.329 167.309L124.601 177.998L118.649 179.212L114.46 180.974L116.903 177.117L112.012 179.727L107.107 181.838L109.913 182.204L107.452 184.282L89.9876 182.902L87.1786 186.044H89.9876L85.0696 187.075L80.5246 184.282L84.3816 182.536L80.5246 181.157L76.6716 182.204L70.3876 183.268L67.2456 181.157L68.2846 180.093L66.8926 176.951L61.3066 176.602L58.1476 174.49L56.7516 171.365L51.4986 169.952L50.4546 171.697L44.5036 170.301L47.2966 167.857L44.5036 166.095L38.2276 168.206L37.5166 163.634L35.7756 159.811L39.2626 162.604L40.3156 161.207L38.2276 157.001L32.6086 155.256L29.8196 151.432L26.6656 147.559L21.4116 143.718L20.7306 140.227L18.6276 132.879L15.8266 126.595L14.7786 119.596L11.9716 111.201Z" fill="#918E8E"/>
<path fill-rule="evenodd" clip-rule="evenodd" d="M127.941 161.772C123.388 165.895 117.168 168.256 107.106 170.999C107.106 170.999 71.7835 178.347 49.0535 159.811C49.0535 159.811 23.1654 133.927 15.1274 110.835L20.0275 123.42C20.0275 123.42 35.4174 162.604 66.5424 171.365C66.5424 171.365 99.0645 180.442 123.543 165.397C123.543 165.397 125.747 163.202 127.941 161.772Z" fill="#918E8E"/>
<path fill-rule="evenodd" clip-rule="evenodd" d="M87.5238 194.423L86.8208 198.978L89.6248 201.089L89.2758 197.914L92.0748 200.025L90.3208 204.93L93.1158 208.055L95.9148 209.485L95.2268 204.215L97.6688 205.628V208.055L99.7658 211.23L103.267 208.437L104.668 210.516V211.929L108.151 213.292L114.106 222.768L117.255 225.561L119.36 229.418L124.254 233.607L120.756 228.004L119.015 223.815L116.554 222.07L114.106 216.101L112.706 210.865L110.599 207.706L106.409 209.817L107.107 207.373L105.351 203.882L103.267 204.93L101.871 202.453L102.209 200.391L97.3198 194.074L95.9148 187.075L91.7338 186.393V189.868L87.5238 194.423Z" fill="#918E8E"/>
<path fill-rule="evenodd" clip-rule="evenodd" d="M65.8454 256.316L61.6454 251.794L59.8934 252.476L68.2844 265.776L60.5974 257.397L55.6934 251.096L53.2434 250.032L50.1074 246.175L58.8354 263.681L63.7544 269.965L67.9434 278.71C67.9434 278.71 76.6714 292.01 81.2264 296.548C85.7774 301.103 95.9144 312.324 95.9144 312.324L101.155 315.782L94.5184 308.085L85.7784 297.944L92.0744 301.801L95.5594 306.705L100.112 308.783L104.31 305.275L102.907 300.737L95.5594 297.246L94.8844 293.755L86.1334 281.868C86.1334 281.868 70.7454 264.046 65.8454 256.316Z" fill="#918E8E"/>
<path fill-rule="evenodd" clip-rule="evenodd" d="M60.5974 302.117L82.2864 331.193L88.5664 338.857L95.2263 346.571L94.5174 341.318L93.8274 337.112L92.0734 337.81L85.7774 332.241L87.8764 331.859L85.4244 327.653L82.9804 326.988L79.1344 313.306L84.3814 323.464L88.9194 323.165L93.4804 331.86L91.3754 324.196L93.8274 325.227L90.3194 314.737L88.5654 316.499L85.0684 312.642L83.6824 306.707C83.6824 306.707 71.0934 292.343 66.1974 284.995L64.7924 287.455L73.5284 302.118L73.1874 304.595L70.0334 302.484L66.8914 303.864L58.4914 291.312L56.4014 291.645L57.4554 295.153L60.5974 302.117Z" fill="#918E8E"/>
<path fill-rule="evenodd" clip-rule="evenodd" d="M64.4447 311.941C64.4447 311.941 44.8547 286.772 50.7957 306.006C56.7517 325.224 56.0487 328.715 57.8047 336.063C59.5397 343.411 58.4927 349.363 64.7937 359.853C71.0947 370.36 71.4437 385.056 71.4437 390.974C71.4437 390.974 71.4437 400.782 70.0347 403.924L77.7277 386.768L91.3767 354.6L64.4447 311.941Z" fill="#918E8E"/>
<path fill-rule="evenodd" clip-rule="evenodd" d="M72.4345 368.448C72.4345 368.448 66.3815 353.985 64.9705 351.641C64.9705 351.641 61.7186 346.072 66.8426 351.192C71.9666 356.296 72.4345 364.259 72.4345 368.448Z" fill="#918E8E"/>
<path fill-rule="evenodd" clip-rule="evenodd" d="M75.6366 394.482C75.6366 394.482 88.5666 379.786 89.2746 371.756L89.9876 365.804L90.6716 372.437C90.6716 372.437 93.4816 368.946 94.5176 364.407C95.5586 359.852 93.4806 355.662 93.4806 355.662C93.4806 355.662 96.9696 359.153 96.9696 361.597C96.9696 361.597 99.7646 354.249 97.3186 350.741C97.3186 350.741 89.6236 343.775 84.7196 337.475C79.8256 331.191 67.2456 313.303 67.2456 313.303L60.2466 306.005C60.2466 306.005 54.2976 300.735 60.5976 310.893C66.8926 321.034 75.2876 327.318 77.3716 336.744C79.4806 346.203 74.9276 346.901 76.6716 353.551C78.4256 360.201 77.7266 364.756 75.9896 368.945C75.9896 368.945 82.2866 359.153 80.5236 353.551C80.5236 353.551 81.9246 367.549 73.1876 379.435C73.1876 379.435 77.3706 376.293 78.7816 374.182C78.7816 374.182 76.3296 381.879 73.8856 386.069C71.4416 390.275 72.8386 392.719 71.4416 398.654C70.0326 404.622 66.1966 410.208 66.1966 410.208L75.6366 394.482Z" fill="#918E8E"/>
<path fill-rule="evenodd" clip-rule="evenodd" d="M49.0547 209.119C49.0547 209.119 66.8927 232.21 86.4727 253.889C106.065 275.584 129.148 303.546 120.397 289.565C111.65 275.584 112.706 276.615 49.0547 209.119Z" fill="#918E8E"/>
<path fill-rule="evenodd" clip-rule="evenodd" d="M46.2578 250.032C46.2578 250.032 68.9878 301.102 105.013 326.272C105.013 326.272 59.8938 280.122 46.2578 250.032Z" fill="#918E8E"/>
<path fill-rule="evenodd" clip-rule="evenodd" d="M167.607 168.904C167.607 168.904 180.909 157.001 186.139 143.036L187.203 145.114L185.098 150.351C185.098 150.351 194.547 141.291 193.84 122.738C193.84 122.738 197.333 132.164 195.947 138.116C195.947 138.116 198.046 121.691 195.947 104.202C195.947 104.202 207.48 131.832 199.442 154.89L195.947 157.001L194.546 159.811C194.546 159.811 189.983 167.857 192.8 172.761C192.8 172.761 187.89 169.951 189.982 164.698L192.8 155.255L190.356 156.668L187.202 159.095L187.89 154.889L184.746 155.936L182.304 159.427C182.304 159.427 177.044 160.158 176.352 165.728L176.001 169.253L171.454 174.855C171.456 174.856 175.306 167.159 167.607 168.904Z" fill="#918E8E"/>
<path fill-rule="evenodd" clip-rule="evenodd" d="M200.317 85.4831C200.317 85.4831 197 83.5541 197.163 86.5471C197.336 89.5231 198.746 91.784 198.746 91.784C198.746 91.784 200.143 94.0621 199.606 97.2201L199.444 99.3151L201.198 95.275C201.198 95.275 203.104 88.6411 200.317 85.4831Z" fill="#918E8E"/>
<path fill-rule="evenodd" clip-rule="evenodd" d="M187.769 171.298C187.769 171.298 189.515 164.848 183.048 170.051C176.587 175.304 175.596 176.518 175.596 176.518C175.596 176.518 171.116 179.261 172.363 182.27C173.595 185.229 179.081 185.479 179.081 185.479C179.081 185.479 185.043 185.728 186.535 186.726C188.023 187.723 189.515 187.723 188.767 184.498C188.023 181.256 187.769 171.298 187.769 171.298Z" fill="#918E8E"/>
<path fill-rule="evenodd" clip-rule="evenodd" d="M14.7783 111.899C14.7783 111.899 24.5703 147.559 45.9013 161.905C67.2453 176.235 74.2293 176.601 99.4133 175.87C124.599 175.188 146.273 157.001 137.89 136.038C137.89 136.038 145.465 155.073 129.486 167.857C113.751 180.442 78.7813 182.204 57.8033 171.697C57.8033 171.697 23.8683 158.414 14.7783 111.899Z" fill="#918E8E"/>
<path fill-rule="evenodd" clip-rule="evenodd" d="M94.8838 416.144C94.8838 416.144 112.35 403.576 131.94 382.945C131.94 382.945 142.438 374.184 150.83 370.709C150.83 370.709 135.093 380.501 122.502 395.164C109.913 409.86 94.8838 416.144 94.8838 416.144Z" fill="#918E8E"/>
<path fill-rule="evenodd" clip-rule="evenodd" d="M163.069 211.23L170.064 195.487L189.644 198.629L184.046 219.593C184.046 219.593 180.21 245.145 167.96 219.244L163.069 211.23Z" fill="#918E8E"/>
<path d="M170.135 195.487L163.104 211.297" stroke="#918E8E" stroke-width="0.5908" stroke-miterlimit="2.6131"/>
<path d="M172.591 195.886L164.491 213.558" stroke="#918E8E" stroke-width="0.5908" stroke-miterlimit="2.6131"/>
<path d="M175.051 196.285L165.857 215.802" stroke="#918E8E" stroke-width="0.5908" stroke-miterlimit="2.6131"/>
<path d="M177.525 196.684L167.222 218.046" stroke="#918E8E" stroke-width="0.5908" stroke-miterlimit="2.6131"/>
<path d="M180.012 197.083L168.535 220.44" stroke="#918E8E" stroke-width="0.5908" stroke-miterlimit="2.6131"/>
<path d="M182.473 197.465L169.803 222.868" stroke="#918E8E" stroke-width="0.5908" stroke-miterlimit="2.6131"/>
<path d="M184.942 197.864L171.148 225.162" stroke="#918E8E" stroke-width="0.5908" stroke-miterlimit="2.6131"/>
<path fill-rule="evenodd" clip-rule="evenodd" d="M126.172 182.686L132.638 181.306L133.497 179.045L136.666 175.371L137.534 175.72L138.399 172.595L139.463 170.999L140.336 166.461L141.56 166.777L140.685 172.595L139.282 173.958L139.463 176.086L134.91 182.536L135.253 180.608L134.222 180.791L133.694 182.37L126.87 183.567L123.37 185.695V184.648L126.172 182.686Z" fill="#918E8E"/>
<path fill-rule="evenodd" clip-rule="evenodd" d="M169.012 225.927C169.012 225.927 157.817 211.929 156.776 206.659C156.776 206.659 165.163 213.292 169.012 225.927Z" fill="#918E8E"/>
<path fill-rule="evenodd" clip-rule="evenodd" d="M190.701 102.107C190.701 102.107 194.192 157.001 154.67 174.856C154.67 174.856 192.437 165.729 192.092 102.44L190.701 102.107Z" fill="#918E8E"/>
<path fill-rule="evenodd" clip-rule="evenodd" d="M85.7778 205.628C85.7778 205.628 82.2868 206.326 79.1338 203.517C75.9898 200.724 68.2838 196.169 72.8398 202.453C77.3718 208.787 78.4258 210.865 86.1328 218.213C93.8278 225.561 102.907 231.163 106.409 238.146C109.912 245.145 121.444 261.237 118.3 246.89C115.154 232.56 120.046 240.257 117.604 235.004C115.154 229.784 108.022 222.453 96.6178 212.611C86.4718 203.882 85.7778 205.628 85.7778 205.628Z" fill="#918E8E"/>
<path fill-rule="evenodd" clip-rule="evenodd" d="M106.687 251.162C106.687 251.162 89.0655 225.078 89.5395 229.65C90.5825 239.608 65.6254 210.366 81.0904 230.664C98.8504 253.955 123.162 279.291 106.687 251.162Z" fill="#918E8E"/>
<path fill-rule="evenodd" clip-rule="evenodd" d="M71.7845 253.157L76.6725 261.935C76.6725 261.935 78.7835 266.474 81.9255 268.917C85.0695 271.394 90.3205 273.106 90.3205 273.106C90.3205 273.106 103.952 281.169 107.452 285.707C110.954 290.262 118.649 292.34 111.303 284.676C103.953 276.962 98.7165 271.726 98.7165 271.726C98.7165 271.726 95.9155 273.106 92.7655 270.33C89.6255 267.504 85.7795 265.426 85.7795 265.426C85.7795 265.426 80.5265 261.935 77.3735 257.396C74.2315 252.841 66.8935 243.398 71.7855 252.143V253.157H71.7845Z" fill="#918E8E"/>
<path fill-rule="evenodd" clip-rule="evenodd" d="M91.3756 265.077C91.3756 265.077 97.6676 269.615 91.0186 261.586C84.3816 253.523 81.5716 250.747 81.5716 250.747C81.5716 250.747 75.2876 247.572 70.7446 242.003C66.1976 236.4 62.6896 233.957 67.2456 240.257C71.7836 246.541 75.2876 248.287 78.4256 252.144C81.5716 255.967 86.4716 259.824 91.3756 265.077Z" fill="#918E8E"/>
<path fill-rule="evenodd" clip-rule="evenodd" d="M129.487 110.253L122.839 117.235C122.839 117.235 120.395 120.394 122.156 120.045C123.902 119.712 125.643 118.299 125.643 118.299L127.052 121.109L129.839 121.458L129.488 118.665L128.798 114.459L131.234 112.364L134.738 113.777L134.052 111.317L129.487 110.253Z" fill="#918E8E"/>
<path fill-rule="evenodd" clip-rule="evenodd" d="M130.731 115.639L132.564 117.867L131.566 119.53L133.104 126.229L132.738 127.111L134.076 129.754L135.756 130.868L135.359 132.58L136.815 135.689L139.132 137.468L136.466 136.57L135.419 134.675L133.104 132.912L134.01 131.416L132.084 130.186L131.882 128.457L130.494 126.612L132.094 124.983L130.987 122.439L129.364 121.99L129.538 120.793L130.494 119.945L129.557 118.516L130.265 117.551L130.731 115.639Z" fill="#918E8E"/>
<path fill-rule="evenodd" clip-rule="evenodd" d="M205.387 122.738L206.439 115.041L206.967 113.645L205.913 111.899L206.967 110.519L208.712 107.51L207.303 107.161L206.439 105.598L208.529 106.13L209.57 105.066L208.887 103.138L207.482 102.639L208.363 100.694L207.303 99.1311L204.167 100.694L203.642 98.067L202.073 99.481L201.198 102.29L199.961 102.107L197.873 98.2671L196.468 100.362L196.104 98.9491L197.516 97.037L195.589 90.5701L196.468 88.1091H195.246L194.365 90.3871L195.246 95.1251L194.723 100.694L196.104 102.972L197.516 102.639L198.048 105.066L198.222 106.13L198.746 109.987L200.317 108.757L199.793 111.55L199.961 115.756L202.599 115.39L202.245 118.2L203.459 118.898L204.683 123.952L203.459 125.348L204.167 126.595L205.736 124.467L205.387 122.738Z" fill="#918E8E"/>
<path fill-rule="evenodd" clip-rule="evenodd" d="M123.869 76.09C124.002 76.14 124.131 76.19 124.254 76.223C126.172 76.905 124.254 79.199 124.254 79.199C124.254 79.199 122.841 81.128 122.157 81.809C121.444 82.507 120.397 83.039 120.397 84.452C120.397 85.832 119.526 86.364 119.526 86.364C119.526 86.364 114.634 88.293 112.527 88.991C110.432 89.689 109.913 91.252 108.859 92.649C107.81 94.062 103.084 93.896 100.645 93.896C98.1837 93.896 98.0137 93.364 96.4407 92.499C94.8837 91.618 93.2987 89.523 93.2987 89.523C93.2987 89.523 93.1657 88.925 92.5737 88.043L92.6007 88.109C92.6007 88.109 93.2987 86.014 95.5597 86.197C97.8307 86.363 100.645 86.546 102.21 86.197C103.787 85.831 108.151 84.618 108.151 84.618L110.08 85.15L112.013 84.452C112.013 84.452 111.493 81.293 115.504 80.246C119.527 79.199 120.57 77.968 120.57 77.968L123.853 76.04L123.869 76.09Z" fill="#918E8E"/>
<path fill-rule="evenodd" clip-rule="evenodd" d="M108.211 94.327L105.534 96.871L105.183 98.268L103.267 101.41L100.985 102.973C100.985 102.973 100.813 105.068 99.4137 106.664C98.0127 108.21 95.5587 111.003 95.5587 111.003C95.5587 111.003 92.9317 110.67 92.2447 112.599C91.5337 114.527 89.6247 113.48 89.9877 114.527C90.3197 115.558 91.1927 116.788 89.7907 116.988C88.4007 117.121 87.1787 116.256 86.1327 118.019C85.0687 119.765 84.5517 121.36 84.5517 121.36C84.5517 121.36 83.4957 122.208 82.4527 121.892C81.3947 121.51 79.6557 122.74 79.6557 122.74C79.6557 122.74 77.9097 122.923 77.7267 121.693C77.5547 120.463 77.3717 119.598 75.6357 119.083C73.8857 118.551 74.7587 117.67 72.4977 117.869C70.2157 118.019 66.1967 117.503 66.3717 119.598C66.5417 121.693 66.5417 121.36 64.6097 121.51C62.6897 121.693 56.4017 125.001 51.4967 124.669C46.6087 124.32 44.1527 125.899 44.1527 125.899L43.1407 126.098L41.0127 123.421C41.0127 123.421 40.4747 119.763 39.7887 117.669C39.0827 115.558 41.0127 112.948 41.0127 112.948L41.8837 110.521C41.8837 110.521 40.3147 110.321 39.9547 109.457C39.6097 108.559 37.8597 106.664 36.8167 106.664C35.7737 106.664 35.2337 106.98 34.0137 104.918C32.7897 102.807 31.3807 104.718 31.3807 104.718C31.3807 104.718 30.8717 105.416 27.0147 105.599C23.1637 105.782 22.8257 103.504 22.8257 103.504C22.8257 103.504 19.8497 99.647 18.9837 97.22C18.1027 94.759 19.6777 89.357 20.3657 87.062C21.0787 84.801 21.2527 79.381 21.5957 76.904C21.9507 74.477 21.7727 73.413 22.1257 70.803C22.4707 68.177 26.3237 61.543 26.3237 61.543C26.3237 61.543 29.1207 57.154 29.8187 55.226C30.5167 53.314 34.0147 52.267 34.0147 52.267L38.2267 49.806L40.1307 49.124L40.6707 52.632L40.1307 54.378C40.1307 54.378 37.8617 60.13 40.8417 63.987C43.8007 67.827 48.1797 70.105 48.1797 70.105C48.1797 70.105 48.7017 71.319 50.1087 72.898C51.4987 74.477 51.8517 74.993 54.8237 76.223C57.8057 77.453 63.2257 79.016 63.2257 79.016C63.2257 79.016 67.7707 78.501 68.8117 80.595C69.8587 82.673 71.0957 83.936 71.0957 83.936L73.8887 84.269C73.8887 84.269 75.2897 84.984 75.1107 86.197C74.9297 87.411 74.7617 88.292 76.3327 88.458C77.9117 88.641 82.8747 88.924 86.6507 91.966C90.3227 94.925 91.5367 90.57 91.5367 90.57L91.6057 90.503C92.0047 91.118 92.3367 91.7 92.6027 92.132C93.6567 93.894 92.4177 94.925 95.3957 94.393C98.3717 93.894 99.0677 95.274 100.816 95.789C102.559 96.321 104.313 95.639 107.283 94.575C107.659 94.459 107.965 94.376 108.224 94.326H108.211V94.327Z" fill="#918E8E"/>
<path fill-rule="evenodd" clip-rule="evenodd" d="M90.2728 115.257C70.0138 117.967 52.6328 117.451 39.6818 116.072C39.9148 114.443 41.0138 112.946 41.0138 112.946L41.8848 110.519C41.8848 110.519 40.3157 110.319 39.9557 109.455C39.6107 108.557 37.8607 106.662 36.8177 106.662C35.7747 106.662 35.2348 106.978 34.0148 104.916C32.7908 102.805 31.3818 104.716 31.3818 104.716C31.3818 104.716 30.8727 105.414 27.0157 105.597C23.1647 105.78 22.8268 103.502 22.8268 103.502C22.8268 103.502 20.9258 101.025 19.7178 98.7811C30.3638 102.854 60.5208 112.164 100.158 105.597C99.9578 105.946 99.7128 106.312 99.4138 106.661C98.0128 108.207 95.5587 111 95.5587 111C95.5587 111 92.9318 110.667 92.2448 112.596C91.5338 114.524 89.6248 113.477 89.9878 114.524C90.0628 114.775 90.1728 115.025 90.2728 115.257Z" fill="#918E8E"/>
<path d="M19.7188 98.782C30.3647 102.855 60.5218 112.165 100.159 105.598" stroke="#918E8E" stroke-width="0.7877" stroke-miterlimit="2.6131"/>
<path d="M39.6826 116.072C52.6336 117.452 70.0136 117.967 90.2736 115.257" stroke="#918E8E" stroke-width="0.7877" stroke-miterlimit="2.6131"/>
<path d="M18.7354 94.9091C27.8644 98.8321 58.8834 110.187 100.744 104.169" stroke="#918E8E" stroke-width="0.7877" stroke-miterlimit="2.6131"/>
<path d="M19.1865 91.6011C28.3465 95.7901 59.2015 107.876 101.293 102.756" stroke="#918E8E" stroke-width="0.7877" stroke-miterlimit="2.6131"/>
<path d="M19.9678 88.442C29.6438 93.097 60.7378 105.864 103.371 101.243" stroke="#918E8E" stroke-width="0.7877" stroke-miterlimit="2.6131"/>
<path d="M20.7466 85.316C30.8066 90.403 61.6556 103.636 104.21 99.863" stroke="#918E8E" stroke-width="0.7877" stroke-miterlimit="2.6131"/>
<path d="M21.1294 82.0081C31.1394 87.3781 61.9614 101.492 105 98.5661" stroke="#918E8E" stroke-width="0.7877" stroke-miterlimit="2.6131"/>
<path d="M21.4136 78.6331C31.2366 84.2191 61.9336 99.2641 105.428 97.3021" stroke="#918E8E" stroke-width="0.7877" stroke-miterlimit="2.6131"/>
<path d="M39.9814 118.299C47.4624 118.997 56.3984 119.38 66.4724 118.964M74.5605 118.482C78.5425 118.183 82.6735 117.734 86.9415 117.135M88.5164 116.92C89.1684 116.837 89.8235 116.721 90.4825 116.621" stroke="#918E8E" stroke-width="0.7877" stroke-miterlimit="2.6131"/>
<path d="M40.5098 120.527C47.8788 121.109 56.6228 121.342 66.4438 120.793M77.1228 119.912C79.9138 119.613 82.7688 119.247 85.6908 118.798" stroke="#918E8E" stroke-width="0.7877" stroke-miterlimit="2.6131"/>
<path d="M40.9126 122.738C46.5486 123.104 52.9676 123.253 60.0386 122.987M77.7026 121.491C80.0596 121.192 82.4656 120.826 84.9136 120.41" stroke="#918E8E" stroke-width="0.7877" stroke-miterlimit="2.6131"/>
<path d="M42.2715 124.999C43.4975 125.065 44.7655 125.099 46.0615 125.132" stroke="#918E8E" stroke-width="0.7877" stroke-miterlimit="2.6131"/>
<path fill-rule="evenodd" clip-rule="evenodd" d="M192.811 110.469L193.841 96.5041L191.041 88.1081C191.407 76.2221 189.3 64.6681 186.141 55.9401C183.003 47.1951 174.259 32.8651 159.226 18.8511C149.23 9.55805 136.44 6.00005 126.347 3.98905C126.347 3.98905 113.064 2.77505 123.03 5.56805L127.743 6.79806C127.743 6.79806 127.394 7.31306 129.148 8.54406C130.885 9.79106 132.101 10.6551 132.101 10.6551C132.101 10.6551 130.538 11.8691 133.869 13.7811C137.181 15.7091 133.723 15.327 138.091 19.732C138.889 20.713 139.548 21.661 139.98 22.508C142.089 26.731 140.152 29.208 141.914 32.499C143.651 35.824 144.346 38.2681 145.93 42.8061C147.511 47.3611 144.536 49.123 144.536 49.123L141.56 54.692C141.56 54.692 138.59 59.979 137.364 62.572C136.146 65.215 135.093 71.15 135.093 71.15C135.093 71.15 134.222 73.5941 133.694 75.1731C133.158 76.7361 132.464 77.6341 132.464 77.6341L129.314 79.3801L129.131 79.43C129.833 80.66 130.702 82.04 131.585 82.339C133.158 82.871 133.497 82.1561 133.869 83.5531C134.222 84.9831 135.781 86.3631 136.666 87.0611C137.535 87.7591 139.282 88.1081 139.98 89.8711C140.685 91.6171 141.034 93.3621 142.438 96.3211C143.835 99.3131 144.179 100.527 144.179 100.527C144.179 100.527 145.06 104.716 146.627 103.503C148.198 102.289 149.256 97.4021 149.256 97.4021C149.256 97.4021 150.47 95.1241 150.999 94.7591C151.531 94.3931 152.059 93.18 152.059 93.18C152.059 93.18 154.492 92.6481 154.326 90.9191C154.143 89.1571 153.974 85.8321 153.974 85.8321C153.974 85.8321 154.143 83.2221 155.022 82.3411C155.895 81.4431 158.862 78.5011 158.862 78.5011C158.862 78.5011 159.743 77.454 159.743 76.223C159.743 74.992 159.743 73.0811 160.969 74.9931C162.189 76.9051 163.068 77.271 163.409 79.016C163.766 80.762 164.643 84.6181 164.643 84.6181C164.643 84.6181 164.106 87.2451 165.862 87.4111C167.605 87.5771 170.233 89.356 171.815 92.498C173.394 95.64 172.336 99.314 172.336 99.314C172.336 99.314 172.336 100.694 173.211 101.409C174.086 102.107 175.654 103.138 174.615 104.202C173.572 105.233 176.003 105.964 173.395 106.131C170.768 106.297 170.932 107.694 170.417 108.758C169.881 109.789 169.715 113.28 171.298 119.082C172.863 124.834 173.395 124.834 173.916 126.945C174.442 129.023 174.442 131.833 175.832 133.595C177.228 135.307 179.855 135.141 180.726 133.745C181.605 132.348 182.122 131.135 182.486 130.254C182.827 129.39 188.08 116.988 189.984 113.48L192.811 110.469Z" fill="#918E8E"/>
<path fill-rule="evenodd" clip-rule="evenodd" d="M143.144 97.868C145.891 96.338 149.885 93.911 154.299 90.586C154.127 88.774 153.975 85.831 153.975 85.831C153.975 85.831 154.143 83.221 155.022 82.34C155.895 81.442 158.862 78.5 158.862 78.5C158.862 78.5 159.743 77.453 159.743 76.222C159.743 76.122 159.745 76.023 159.745 75.906C153.043 84.052 145.529 89.472 140.86 92.381C141.226 93.462 141.675 94.725 142.437 96.321C142.712 96.904 142.945 97.419 143.144 97.868ZM164.085 82.091C172.503 73.629 180.3 62.125 182.278 47.595C180.192 43.805 177.467 39.599 174.076 35.16C174.456 52.05 168.239 65.117 160.749 74.66C160.82 74.76 160.89 74.86 160.969 74.993C162.189 76.905 163.068 77.271 163.409 79.016C163.567 79.797 163.835 80.994 164.085 82.091Z" fill="#918E8E"/>
<path d="M135.675 86.198C142.755 78.551 169.462 47.579 162.407 21.911" stroke="#918E8E" stroke-width="0.7877" stroke-miterlimit="2.6131"/>
<path d="M169.761 89.606C177.483 83.787 185.031 76.606 189.505 68.493" stroke="#918E8E" stroke-width="0.7877" stroke-miterlimit="2.6131"/>
<path d="M164.299 23.822C170.4 50.737 144.452 79.132 136.586 86.995" stroke="#918E8E" stroke-width="0.7877" stroke-miterlimit="2.6131"/>
<path d="M166.246 25.884C171.265 53.796 146.436 79.598 137.712 87.677" stroke="#918E8E" stroke-width="0.7877" stroke-miterlimit="2.6131"/>
<path d="M168.201 28.045C172.12 56.822 148.339 80.329 138.896 88.425" stroke="#918E8E" stroke-width="0.7877" stroke-miterlimit="2.6131"/>
<path d="M170.168 30.306C173.019 60.18 149.687 81.792 139.824 89.522" stroke="#918E8E" stroke-width="0.7877" stroke-miterlimit="2.6131"/>
<path d="M172.131 32.683C173.927 63.904 150.43 83.853 140.376 90.919" stroke="#918E8E" stroke-width="0.7877" stroke-miterlimit="2.6131"/>
<path d="M140.86 92.382C145.529 89.473 153.044 84.053 159.745 75.907M160.75 74.66C168.239 65.118 174.457 52.051 174.077 35.16" stroke="#918E8E" stroke-width="0.7877" stroke-miterlimit="2.6131"/>
<path d="M188.655 64.436C184.54 73.912 176.63 82.075 168.497 88.525M147.76 101.908C146.812 102.407 145.965 102.839 145.249 103.188" stroke="#918E8E" stroke-width="0.7877" stroke-miterlimit="2.6131"/>
<path d="M187.609 60.4631C183.9 71.4181 175.554 80.6451 166.993 87.6941M148.459 100.195C147.002 101.01 145.731 101.675 144.7 102.19" stroke="#918E8E" stroke-width="0.7877" stroke-miterlimit="2.6131"/>
<path d="M186.411 56.689C183.105 69.274 174.233 79.548 165.211 87.178M148.972 98.55C147.16 99.597 145.581 100.445 144.33 101.094" stroke="#918E8E" stroke-width="0.7877" stroke-miterlimit="2.6131"/>
<path d="M185.092 53.298C182.295 66.847 173.571 77.736 164.582 85.732M149.588 96.787C147.41 98.134 145.496 99.198 144.002 99.995" stroke="#918E8E" stroke-width="0.7877" stroke-miterlimit="2.6131"/>
<path d="M183.691 50.2891C181.357 64.3371 173.151 75.558 164.465 83.804M151.598 94.0441C148.435 96.1721 145.642 97.8011 143.587 98.9151" stroke="#918E8E" stroke-width="0.7877" stroke-miterlimit="2.6131"/>
<path d="M143.145 97.868C145.892 96.338 149.885 93.911 154.299 90.586M164.086 82.091C172.504 73.629 180.301 62.125 182.279 47.595" stroke="#918E8E" stroke-width="0.7877" stroke-miterlimit="2.6131"/>
<path fill-rule="evenodd" clip-rule="evenodd" d="M161.582 205.711C161.582 205.711 161.343 209.435 164.84 212.943L165.555 211.048C165.555 211.048 165.31 219.46 173.476 225.062C173.476 225.062 179.76 218.994 185.358 219.692C185.358 219.692 179.29 218.528 175.09 218.728L179.057 213.391L180.241 207.323L178.371 206.625L175.57 211.047L170.445 213.391L167.403 211.995L166.709 208.038L164.61 210.598C164.612 210.599 162.272 209.202 161.582 205.711Z" fill="#918E8E"/>
<path fill-rule="evenodd" clip-rule="evenodd" d="M183.501 204.664L182.556 205.927L184.083 208.354L185.714 206.044L183.501 204.664Z" fill="#918E8E"/>
<path fill-rule="evenodd" clip-rule="evenodd" d="M178.015 192.062L175.33 191.497L172.773 192.295L171.833 197.781L174.523 200.574L179.291 199.061L182.096 203.5L183.5 203.018L181.401 198.829L182.213 195.77L178.015 192.062Z" fill="#918E8E"/>
<path fill-rule="evenodd" clip-rule="evenodd" d="M178.015 199.41L175.218 199.976L173.822 201.023L175.679 201.738L178.015 199.41Z" fill="#918E8E"/>
<path fill-rule="evenodd" clip-rule="evenodd" d="M185.479 210.133L183.602 210.598L182.555 212.709L185.358 212.127L182.785 214.089C182.785 214.089 182.681 215.502 183.03 215.502C183.383 215.502 184.183 215.502 184.183 215.502L181.513 217.131C181.513 217.131 180.815 219.924 185.008 219.575C185.008 219.575 187.456 219.109 187.215 214.322L185.479 210.133Z" fill="#918E8E"/>
</svg>
